<svg width="216" height="411" viewBox="0 0 216 411" fill="none" xmlns="http://www.w3.org/2000/svg">
<g opacity="0.3" clip-path="url(#clip0_15_406)">
<path d="M60.4198 89.4902C60.2439 87.2578 58.8436 84.9916 56.6458 84.3054C54.5024 83.6264 52.4039 84.739 51.2468 86.5748C51.178 86.6765 51.1372 86.7885 51.0685 86.8903C50.3713 87.3592 49.8395 87.9834 49.4934 88.707C49.0399 89.4295 48.8226 90.3395 48.9233 91.3336C48.9613 91.6644 49.0243 91.979 49.0989 92.2788C49.4402 93.8487 50.4107 95.2926 51.9935 95.9958C53.8166 96.8055 55.6051 96.6135 57.0809 95.8003C57.921 95.4089 58.5781 94.8239 59.0448 94.0998C60.0127 92.8355 60.5497 91.205 60.4198 89.4902Z" fill="white"/>
<path d="M132.962 75.4733C132.806 74.0028 131.8 72.7105 130.195 72.3987C128.261 72.0308 126.464 72.9613 125.302 74.4087C124.603 74.9718 124.048 75.7462 123.756 76.705C123.615 77.0026 123.491 77.3253 123.424 77.6683C122.922 80.0724 124.015 82.1191 125.773 83.1776C126.756 83.9095 127.99 84.2638 129.406 83.9805C129.681 83.9222 129.941 83.852 130.197 83.7422C130.263 83.7346 130.329 83.727 130.392 83.693C134.04 82.5231 135.193 78.3145 132.975 75.4718L132.962 75.4733Z" fill="white"/>
<path d="M116.482 106.329C111.716 111.301 105.056 112.75 98.4287 113.203C92.0946 113.635 85.0039 114.02 79.2719 110.938C77.0133 109.722 75.4214 113.378 77.6668 114.595C84.3704 118.196 93.0367 117.751 100.4 117.052C107.684 116.363 114.435 114.193 119.598 108.814C121.37 106.961 118.243 104.491 116.482 106.329Z" fill="white"/>
<path d="M188.915 175.083C184.1 162.938 178.195 140.714 160.657 145.303C160.11 145.446 159.737 145.703 159.479 146.028C159.01 142.757 158.555 139.497 158.085 136.226C157.92 135.024 157.091 134.342 155.998 134.052C152.066 132.975 148.491 133.265 144.739 134.808C143.74 135.218 143.061 136.315 143.199 137.399C143.481 139.619 143.736 141.843 143.992 144.066L136.652 141.463C134.764 140.795 132.549 139.601 130.491 139.784C128.965 139.932 128.004 140.673 126.915 141.696C124.978 143.514 123.249 145.389 121.209 147.018L120.468 140.559C120.398 139.951 120.156 139.482 119.821 139.132C128.111 136.463 135.745 132.288 141.911 126.418C152.308 116.521 156.264 102.269 155.889 87.7908C163.254 86.1805 171.578 78.8957 169.746 70.6585C167.914 62.4081 158.481 62.8345 151.685 64.5C149.931 59.2709 147.703 54.3511 145.094 49.971C132.727 29.1732 109.957 16.7036 86.3878 16.4204C91.3561 12.2697 100.357 12.4025 106.197 12.9251C114.084 13.6284 121.519 16.9445 127.861 21.6063C141.526 31.6354 149.499 47.1052 156.915 61.9282C158.049 64.2115 161.756 62.7399 160.605 60.4316C152.127 43.478 142.762 25.7009 126.033 15.6082C118.77 11.2263 110.735 8.7568 102.252 8.81922C95.3649 8.87277 86.4853 9.32944 81.9473 15.241C75.3775 10.8198 65.9142 11.7994 58.7508 14.0032C49.9927 16.6852 42.5036 22.359 36.3498 29.0327C24.0656 42.3505 16.1643 59.9652 17.0365 78.302C17.1562 80.8628 21.114 80.4082 20.981 77.849C20.226 62.1671 26.5407 47.2018 36.2915 35.1806C41.1442 29.2061 46.9201 23.7961 53.8272 20.2942C59.9602 17.1762 69.6933 14.3421 76.7613 17.0299C74.3038 17.3524 71.86 17.794 69.4212 18.3959C69.0037 18.4975 68.691 18.6943 68.4257 18.9527C68.016 18.7719 67.5258 18.7075 66.9835 18.8904C42.8729 26.7415 30.6549 52.8972 27.7917 76.5438C27.629 77.9302 27.5193 79.3105 27.4493 80.6862C19.4927 82.0559 10.7809 87.7094 12.2791 97.0172C12.8904 100.822 15.6839 104.242 19.3899 105.332C22.3049 106.19 28.3713 106.58 31.7425 105.455C38.1267 120.638 51.0705 132.681 67.8139 138.454C77.0733 141.655 87.7127 143.208 98.3317 142.834C98.3439 142.939 98.3413 143.034 98.3534 143.14C98.94 146.612 99.3118 150.082 99.4997 153.587C93.8777 153.214 88.3313 151.397 83.4607 148.108C82.4429 147.421 81.4543 147.454 80.4251 148.068C76.3084 150.525 72.0594 151.831 67.2968 152.284C66.1421 152.39 65.4753 153.124 65.2666 153.993C65.0398 153.536 64.8248 153.065 64.6112 152.606C64.2598 151.882 63.5669 151.104 62.6913 151.07C58.3001 150.904 54.9517 152.227 51.8985 155.421C51.5863 155.738 51.411 156.08 51.3151 156.413C50.3872 156.975 49.8144 158.06 50.3783 159.35C50.4866 159.592 50.5832 159.849 50.6915 160.091C42.1216 158.34 34.4064 164.147 30.7272 171.931C28.3312 176.994 27.4311 182.702 26.3962 188.171C24.9559 195.832 23.5156 203.492 22.0753 211.153C21.8256 212.483 22.8619 213.798 24.1457 214C27.5068 214.539 30.8599 214.891 34.2182 215.055C34.9506 232.992 39.9616 254.085 57.9774 261.362C57.6421 261.83 57.4514 262.388 57.586 262.976C63.1955 287.178 67.6523 311.619 70.9504 336.248C71.0791 337.252 71.9439 338.36 73.0374 338.422C83.9399 339.114 94.7907 338.538 105.447 336.738C107.307 350.482 109.075 364.238 111.015 377.974C110.508 378.702 110.114 379.592 109.864 380.68C109.499 382.291 110.616 383.262 111.894 383.41C112.625 386.853 113.812 390.069 116.337 392.782C118.923 395.569 122.923 398.864 126.895 399.119C137.2 399.745 131.817 384.059 127.983 379.98C125.309 377.136 119.93 374.791 115.675 375.346C113.882 362.184 112.115 349.018 110.348 335.853C117.908 334.301 125.342 332.119 132.624 329.312C133.638 328.914 134.287 327.794 134.164 326.722C133.444 320.449 132.936 314.165 132.562 307.865C135.338 314.17 136.877 320.912 137.191 327.97C137.285 330.077 139.444 330.54 140.877 329.705C141.28 329.94 141.801 330.041 142.419 329.93C149.9 328.508 157.369 326.98 164.814 325.36C165.805 337.609 166.781 349.846 167.772 362.095C168.034 365.31 168.407 367.735 166.418 370.39C165.059 372.222 163.553 373.817 162.458 375.846C160.425 379.633 159.049 384.35 159.52 388.681C160.311 395.804 168.343 399.413 172.949 393.159C178.023 386.301 177.858 375.056 173.178 368.179C173.444 365.708 172.803 362.926 172.61 360.548L171.674 348.896C171.013 340.685 170.352 332.474 169.69 324.264C175.993 322.856 182.29 321.395 188.562 319.844C189.502 319.615 190.1 318.983 190.39 318.239C191.665 318.133 192.872 317.203 192.684 315.562C190.766 299.209 188.475 282.886 185.765 266.651C185.075 262.506 184.359 258.378 183.616 254.24C183.126 251.494 183.186 247.343 181.658 244.904C181.478 244.616 181.249 244.375 181.007 244.134C181.062 243.913 181.101 243.668 181.098 243.413C181.062 241.58 180.998 239.737 180.896 237.912C182.937 232.797 183.39 227.167 183.764 221.546C184.421 211.508 184.661 201.45 184.58 191.403C184.58 191.175 184.543 190.965 184.508 190.781C184.646 190.698 184.799 190.627 184.937 190.544C187.248 189.179 191.27 187.296 191.834 184.268C192.382 181.335 189.993 177.695 188.972 175.117L188.915 175.083ZM165.96 72.4879C166.35 77.8736 160.554 82.5217 155.671 83.7932C155.243 78.5459 154.268 73.3346 152.848 68.322C157.803 67.0958 165.512 66.2507 165.96 72.4879ZM23.0465 101.788C19.058 101.508 15.9005 99.1221 16.1065 94.7272C16.401 88.7668 22.1857 85.7693 27.3789 84.7437C27.4933 90.6438 28.5073 96.3199 30.3029 101.678C28.167 102.232 24.8037 101.908 23.0465 101.788ZM124.134 383.252C125.346 384.467 130.971 393.85 125.53 393.657C123.523 393.579 119.858 389.575 118.875 388.146C117.204 385.737 116.672 382.861 116.276 379.997C118.734 379.554 123.226 382.35 124.149 383.263L124.134 383.252ZM115.507 141.156L116.524 150.01C112.714 151.989 108.61 153.158 104.44 153.516C104.272 149.834 103.894 146.191 103.274 142.547C103.271 142.521 103.27 142.508 103.268 142.495C107.422 142.111 111.538 141.397 115.538 140.375C115.497 140.607 115.473 140.865 115.505 141.143L115.507 141.156ZM79.9758 137.5C55.3511 133.168 32.7227 114.34 31.2547 88.0128C29.8421 62.7521 42.9073 30.8943 68.467 22.5818C68.6477 22.5208 68.7989 22.4364 68.9502 22.352C69.0606 22.3795 69.1976 22.404 69.3315 22.402C49.8008 33.3474 37.4948 53.9487 37.1365 76.9857C37.0959 79.5515 41.0507 79.0704 41.0811 76.5327C41.4176 54.3563 54.001 34.7691 73.1838 24.8827C61.1835 38.5701 53.8738 55.8487 52.7275 74.2431C52.5632 76.7828 56.4985 77.4169 56.6613 74.8639C57.7593 57.3333 64.5549 40.7172 76.0204 27.6275C70.0746 42.0677 67.507 57.6619 68.4829 73.3989C68.6439 75.9683 72.5869 75.502 72.4275 72.9459C71.4157 56.6632 74.4321 40.6554 81.108 25.9168C81.5571 41.6205 83.3079 57.2148 86.3809 72.6439C86.883 75.1473 90.8291 74.7075 90.3255 72.1909C87.0382 55.7137 85.2687 39.022 84.9892 22.2261C97.1531 34.2512 101.705 54.4985 104.793 70.5292C105.269 73.0356 109.23 72.6076 108.738 70.0762C105.643 53.9925 101.21 34.7775 90.0466 21.8866C99.166 25.0362 107.848 29.7511 114.926 36.38C122.977 43.8894 125.966 55.5469 129.968 65.5193C130.926 67.9033 134.618 66.4199 133.658 64.0227C129.597 53.8829 126.526 42.208 118.556 34.3541C113.702 29.5749 107.994 25.6448 101.87 22.54C113.756 25.4924 124.819 31.6637 133.303 40.8397C139.996 48.0893 144.999 56.8473 148.073 66.2155C147.786 66.9859 148.115 67.9806 148.796 68.5459C149.662 71.5305 150.344 74.5496 150.818 77.6194C152.789 90.4665 151.958 105.767 144.687 116.954C131.604 137.095 101.753 141.328 79.9758 137.5ZM67.8388 157.237C72.8809 156.765 77.4354 155.317 81.8173 152.95C90.8926 158.518 101.687 160.255 112.014 157.219C117.345 155.641 122.387 152.836 126.551 149.153C128.876 147.089 129.761 144.641 132.994 145.463C136.337 146.313 139.663 147.835 142.921 148.989C143.522 149.202 144.096 149.176 144.587 149.012C148.019 179.485 149.594 210.131 149.282 240.805C131.087 246.448 112.131 248.733 93.1133 247.565C89.0563 216.212 80.1734 185.695 66.7377 157.109C67.0604 157.233 67.4417 157.283 67.8535 157.249L67.8388 157.237ZM39.1536 215.172C41.3386 215.163 43.5292 215.085 45.7224 214.914C46.6932 214.843 47.855 213.864 47.8968 212.827C47.9652 210.62 48.2606 208.521 48.8359 206.524C52.8175 222.975 56.1052 239.573 58.7753 256.282C43.6632 249.182 39.8765 230.925 39.1551 215.185L39.1536 215.172ZM51.8435 198.147C51.4001 196.388 48.5311 196.047 47.5875 197.523C45.0903 201.47 43.5589 205.535 43.115 210.078C37.8484 210.347 32.6346 210.142 27.4174 209.44C29.0749 200.4 30.5776 191.297 32.5796 182.338C34.4035 174.164 40.1615 161.475 50.8251 165.225C51.5514 165.477 52.2265 165.399 52.7846 165.121C64.2599 193.57 70.2728 223.854 70.5945 254.563L64.0663 257.86C60.9262 237.759 56.8421 217.847 51.8537 198.119L51.8435 198.147ZM171.187 383.774C170.87 385.446 170.558 387.748 169.461 389.175C168.707 391.367 167.016 391.011 164.416 388.105C164.33 387.123 164.366 386.153 164.538 385.195C165 381.28 166.726 377.622 169.238 374.625C169.603 374.181 169.999 373.774 170.368 373.369C171.815 376.622 171.885 380.154 171.189 383.787L171.187 383.774ZM141.913 324.947C141.035 314.495 137.494 304.684 131.559 295.98C130.059 293.779 127.047 295.465 127.108 297.751C127.35 306.975 127.988 316.154 128.974 325.32C111.866 331.669 93.79 334.496 75.5681 333.599C72.4006 310.457 68.2184 287.472 63.0129 264.686C63.7802 264.477 64.4448 263.958 64.6713 263.127C67.7892 261.549 70.9072 259.971 74.0119 258.394C74.9371 257.926 75.3535 257.114 75.4196 256.288C75.4981 256.038 75.5472 255.764 75.5534 255.468C75.4077 222.205 68.5583 189.309 55.4979 158.735C55.583 158.658 55.6828 158.593 55.7663 158.503C57.1309 157.072 58.8302 156.22 60.7261 156.029C75.0648 185.705 84.4363 217.44 88.4512 250.179C88.5683 251.198 89.4565 252.276 90.5383 252.353C111.61 253.888 132.54 251.39 152.667 244.935C153.806 244.577 154.193 243.392 154.206 242.345C154.658 207.739 152.712 173.167 148.394 138.84C150.073 138.393 151.686 138.315 153.421 138.585C155.945 156.356 158.48 174.113 161.004 191.885C163.533 209.696 165.967 227.626 163.756 245.619C163.453 248.121 166.398 249.124 167.88 247.895C170.352 247.704 174.087 247.061 175.981 247.782C178.745 248.846 178.558 254.11 179.013 256.672C180.196 263.348 181.327 270.043 182.377 276.734C184.372 289.431 186.103 302.172 187.61 314.938C172.48 318.66 157.252 321.992 141.948 324.902L141.913 324.947ZM178.923 218.87C178.918 219.059 178.9 219.248 178.893 219.423C177.466 210.617 175.368 201.928 172.604 193.395C174.916 193.787 177.275 193.543 179.597 192.86C179.656 201.543 179.458 210.214 178.936 218.869L178.923 218.87ZM185.618 184.097C182.358 188.172 174.238 190.218 170.006 187.003C168.007 185.476 165.307 187.543 166.153 189.886C171.659 205.129 174.871 220.958 175.838 237.085C175.266 238.29 174.58 239.442 173.753 240.529C173.251 241.177 173.141 241.86 173.28 242.487C171.799 242.55 170.328 242.706 169.041 242.827C170.555 226.227 168.519 209.673 166.2 193.219C164.126 178.547 162.04 163.889 159.94 149.22C160.563 149.859 161.465 150.238 162.532 149.955C174.393 146.849 179.101 163.78 182.277 171.823C183.183 174.105 184.091 176.401 184.997 178.684C185.904 180.98 187.109 182.249 185.632 184.095L185.618 184.097Z" fill="white"/>
</g>
<defs>
<clipPath id="clip0_15_406">
<rect width="171.998" height="393" fill="white" transform="translate(0 20) rotate(-6.55187)"/>
</clipPath>
</defs>
</svg>
