<svg width="243" height="414" viewBox="0 0 243 414" fill="none" xmlns="http://www.w3.org/2000/svg">
<g opacity="0.3" clip-path="url(#clip0_15_412)">
<path d="M209.297 32.9899C204.632 23.2394 194.836 15.8127 183.662 17.0785C174.027 18.164 166.738 26.652 167.384 36.3353C160.56 30.2756 152.536 25.6019 143.843 22.6792C143.616 22.3901 143.377 22.0994 143.151 21.8103C142.348 20.7711 141.137 20.9517 140.376 21.6187C134.582 20.0151 128.539 19.1795 122.389 19.221C121.971 19.2227 121.63 19.3385 121.32 19.5235C120.973 19.259 120.523 19.0869 119.968 19.1375C95.3477 21.1065 77.8423 43.1592 69.7697 64.9394C60.1835 90.8025 70.6876 118.101 93.6528 132.734C113.96 145.672 144.863 150.77 166.562 138.149C187.093 126.212 192.929 98.1676 189.052 75.4263C192.631 76.9585 197.051 77.493 200.548 76.8953C204.902 76.1393 207.711 72.6972 209.383 68.8166C214.032 58.0464 214.406 43.6054 209.324 32.9801L209.297 32.9899ZM208.279 42.485C207.697 42.5454 207.168 42.9134 206.943 43.6974C204.832 51.4245 197.66 69.4272 186.933 65.1594C186.759 65.086 186.58 65.0513 186.426 65.0326C186.079 64.0092 185.706 62.9827 185.305 61.9788C185.305 61.9788 185.318 61.9804 185.33 61.9819C195.625 58.4767 203.776 50.7473 207.912 40.7656C208.051 41.3451 208.151 41.9199 208.263 42.5092L208.279 42.485ZM183.803 58.3949C183.222 57.1469 182.625 55.9231 181.973 54.7188C189.416 50.5808 196.581 46.0298 203.518 41.0979C199.524 49.2646 192.599 55.3889 183.816 58.3964L183.803 58.3949ZM205.81 34.6881C205.81 34.6881 205.67 34.7628 205.599 34.8066C197.46 40.9279 188.934 46.4529 180.023 51.3817C178.778 49.3597 177.431 47.4171 175.997 45.5426C183.88 38.4088 192.998 33.2826 203.17 30.2468C204.178 31.6381 205.058 33.1185 205.811 34.6752L205.81 34.6881ZM188.149 20.945C190.353 21.2115 192.409 21.8266 194.325 22.7388C190.952 22.6319 187.461 23.0732 185.742 23.3365C180.254 24.1777 175.201 26.7203 171.796 30.8755C173.888 24.2845 180.958 20.0884 188.148 20.9579L188.149 20.945ZM169.806 38.2509C170.719 38.7015 171.942 38.5353 172.43 37.3119C174.38 32.4311 178.464 29.248 183.446 27.8352C185.937 27.1289 188.452 26.8704 191.04 26.8823C191.745 26.889 198.76 27.6852 198.768 26.8617C198.763 27.1228 198.812 27.3643 198.89 27.5831C189.482 30.7898 180.937 35.8283 173.535 42.5491C172.261 41.0864 170.916 39.6675 169.523 38.3213C169.616 38.3064 169.711 38.2787 169.806 38.2509ZM171.602 45.9925C163.368 41.542 155.934 35.8797 149.467 29.1434C157.949 33.0612 165.584 38.7871 171.602 45.9925ZM141.575 26.0821C150.489 37.0139 161.623 45.7017 174.373 51.7321C174.362 51.8223 174.365 51.9013 174.367 51.9931C174.349 53.6529 176.062 54.4096 177.211 53.9859C177.406 54.3235 177.628 54.6513 177.821 55.0018C179.283 57.6126 180.549 60.3306 181.637 63.1187C179.158 62.2168 176.237 61.8244 174.249 61.0736C167.739 58.5851 161.648 55.1135 156.012 51.0165C145.713 43.5419 137.008 34.1142 129.919 23.5471C133.875 24.0255 137.784 24.8908 141.575 26.0821ZM120.52 22.9993C120.706 22.9824 120.868 22.9366 121.03 22.8908C121.263 23.0236 121.554 23.0981 121.907 23.1015C122.966 23.0988 124.022 23.1218 125.075 23.1706C125.108 23.2269 125.115 23.2801 125.148 23.3234C131.968 34.0673 140.423 43.7135 150.384 51.6182C155.036 55.3084 160.012 58.5928 165.291 61.312C168.208 62.8162 171.225 64.1364 174.32 65.2436C175.9 65.801 181.957 66.7429 182.575 68.3356C182.814 68.9534 183.243 69.2932 183.737 69.4314C184.331 71.5447 184.83 73.6857 185.21 75.8385C178.231 72.4689 171.185 69.222 164.067 66.1366C157.272 63.1948 150.262 60.6197 143.782 57.0225C130.415 49.6088 122.82 36.8475 116.093 23.6153C117.552 23.3338 119.029 23.1198 120.533 23.0008L120.52 22.9993ZM171.338 129.789C154.378 145.928 125.139 143.177 105.375 134.61C83.028 124.919 65.8581 101.931 70.4349 76.6271C74.345 54.9977 90.3312 31.0209 112.226 24.561C118.819 37.6068 126.247 50.7798 138.965 58.6907C145.859 62.9792 153.488 65.8385 160.92 69.0274C169.236 72.5849 177.445 76.3781 185.569 80.3311C185.668 80.3823 185.756 80.4061 185.858 80.4315C186.352 84.8881 186.421 89.398 186.05 93.8678C185.006 106.5 180.75 120.825 171.325 129.788L171.338 129.789ZM207.711 60.6974C206.926 64.3713 205.892 69.4674 202.646 71.8753C198.999 74.5748 191.293 73.0017 187.976 70.3759C187.976 70.3759 187.976 70.3759 187.963 70.3744C187.883 70.0637 187.803 69.753 187.721 69.4553C198 71.5883 205.322 59.5841 208.917 50.0735C208.891 53.6428 208.443 57.2396 207.708 60.7231L207.711 60.6974Z" fill="white"/>
<path d="M97.7325 84.6262C98.0718 82.4688 97.2589 80.002 95.3323 78.8529C93.4556 77.7231 91.2153 78.3027 89.703 79.7817C89.6147 79.8626 89.5507 79.9596 89.4625 80.0405C88.6957 80.3273 88.0504 80.7988 87.5585 81.4067C86.9651 81.9893 86.5529 82.8031 86.4231 83.7688C86.3841 84.0913 86.3724 84.4039 86.3752 84.7052C86.3426 86.2716 86.9348 87.8612 88.275 88.887C89.8186 90.0682 91.5565 90.2915 93.1389 89.8547C94.0236 89.6738 94.7787 89.2679 95.385 88.6869C96.5885 87.707 97.4668 86.2822 97.7325 84.6262Z" fill="white"/>
<path d="M204.678 99.6146C205.134 90.3264 194.538 89.5161 187.885 90.8052C187.885 90.8052 187.859 90.802 187.857 90.8149C172.495 80.8829 154.665 75.887 139.114 66.3248C131.46 61.6173 124.848 55.6486 119.436 48.7259C119.631 47.6503 118.775 46.513 117.691 46.395C116.584 44.8478 115.52 43.2666 114.527 41.6416C114.694 40.7982 114.113 39.8773 113.27 39.5005C112.128 37.4781 111.058 35.4119 110.087 33.2792C110.155 32.7117 109.88 32.1811 109.442 31.801C108.516 29.6215 107.688 27.3883 106.956 25.1145C107.142 24.8752 107.294 24.5926 107.363 24.2346C108.988 15.9906 106.881 9.8471 97.8262 9.2624C87.5898 8.61329 75.7179 11.3258 68.0233 18.5216C60.7425 25.3225 59.2749 35.8362 59.0284 45.333C58.936 48.9074 59.1557 52.8205 61.8545 55.4762C65.0558 58.6245 69.788 58.4117 73.9271 58.0224C75.4607 57.8807 75.8283 56.3549 75.2928 55.2694C75.6646 55.6546 76.1968 55.9022 76.8871 55.8155C89.1742 54.3179 100.78 50.3432 111.433 44.094C112.33 45.5373 113.284 46.9482 114.267 48.3363C101.355 57.8063 86.5523 63.9985 70.7146 66.5323C69.9408 66.6612 69.4676 67.1143 69.2557 67.6776C61.2691 65.1806 52.5126 70.0234 51.708 78.8376C50.8739 87.8969 59.1005 94.5712 67.731 92.9323C70.1666 92.4679 69.6252 88.6206 67.1639 89.0819C61.0493 90.2398 54.9971 85.9093 55.5478 79.302C56.0953 72.7206 62.755 69.3254 68.6058 71.5379C69.7811 71.981 70.7267 71.2971 71.0983 70.3867C71.1627 70.3945 71.2287 70.3894 71.2962 70.3714C87.734 67.7401 103.17 61.2842 116.598 51.4318C121.517 57.6798 127.362 63.1762 134.025 67.6461C144.112 74.4013 155.403 78.8682 166.422 83.8519C165.069 83.6883 163.717 84.166 162.649 85.0051C161.858 85.3805 161.157 85.9893 160.663 86.8325C160.462 87.0831 160.272 87.361 160.13 87.671C159.109 89.8376 159.681 92.0267 161.107 93.4292C161.872 94.3461 162.961 94.962 164.366 95.0142C164.64 95.0211 164.903 95.0136 165.17 94.9674C165.234 94.9752 165.298 94.983 165.366 94.965C169.087 94.6822 171.133 90.9515 169.677 87.7525C169.801 86.7207 169.498 85.6633 168.764 84.9202C174.918 87.7583 180.941 90.816 186.604 94.5891C187.365 95.1 188.162 95 188.772 94.6027C193.077 93.8147 201.643 93.2542 200.809 99.9319C199.922 107.048 191.37 107.283 185.999 106.293C183.543 105.839 183.088 109.71 185.532 110.15C193.359 111.593 204.228 109.493 204.718 99.6064L204.678 99.6146ZM76.304 51.9893C74.7785 52.1712 74.4094 53.71 74.9336 54.781C74.5633 54.3829 74.0311 54.1354 73.344 54.1962C68.8476 54.6208 63.6968 54.4035 62.9393 48.7765C62.523 45.6248 62.9761 42.094 63.3294 38.9569C63.6436 36.1421 64.1527 33.3379 65.0215 30.6949C64.9867 32.9284 65.2627 35.1864 65.8959 37.4091C67.5234 43.1936 71.9334 49.969 78.4122 50.5562C80.8954 50.778 81.3618 46.9217 78.8785 46.6999C73.461 46.2017 70.1361 39.4268 69.2276 34.7237C68.5227 31.0398 68.8657 27.3387 70.2434 23.9459C74.1987 29.2923 78.7251 34.1319 83.7696 38.4715C85.6643 40.1008 88.001 36.9941 86.1192 35.3664C80.86 30.8569 76.2488 25.7453 72.2521 20.093C72.4543 19.9342 72.6663 19.8028 72.867 19.657C73.2141 19.9214 73.6639 20.0936 74.2191 20.043C82.1693 19.3818 91.72 19.2152 95.1299 27.9895C96.0373 30.3238 99.5972 28.7784 98.6898 26.444C95.4083 18.0124 87.6635 16.0027 79.709 15.9436C83.4027 14.4798 87.3516 13.6095 91.1463 13.2571C94.4373 12.9615 101.398 12.1546 103.492 15.6007C104.833 17.8044 103.975 21.4432 103.511 23.7687C103.059 24.2636 102.817 24.9671 103.061 25.7557C103.801 28.1745 104.678 30.5445 105.639 32.8722C100.121 38.4992 92.5625 41.3276 84.6605 40.7253C82.1855 40.5438 81.7062 44.3985 84.1941 44.5816C92.861 45.2372 101.013 42.3628 107.307 36.594C107.985 38.0108 108.705 39.4065 109.466 40.794C99.2712 46.8238 88.0601 50.5584 76.2911 51.9878L76.304 51.9893Z" fill="white"/>
<path d="M147.029 113.305C141.386 116.941 134.748 116.806 128.367 115.733C122.268 114.708 115.463 113.466 110.733 109.23C108.869 107.565 106.532 110.672 108.383 112.335C113.918 117.27 122.229 118.812 129.363 119.819C136.42 120.816 143.308 120.288 149.418 116.355C151.517 115 149.115 111.948 147.03 113.292L147.029 113.305Z" fill="white"/>
<path d="M155.606 332.839C155.864 332.87 156.138 332.877 156.446 332.81C165.845 330.871 175.244 328.933 184.658 326.983C185.637 326.774 186.284 326.29 186.571 325.539C192.733 325.29 200.473 324.198 204.954 320.879C209.391 317.595 205.546 310.574 203.99 306.578C201.406 299.945 197.316 294.634 192.493 289.222C188.601 284.865 183.897 277.06 177.336 275.965C178.178 266.514 178.864 257.058 179.434 247.587C185.267 250.595 190.406 241.507 191.357 236.78C192.412 236.162 193.47 235.413 194.732 234.493C198.102 232.035 201.484 229.578 204.854 227.119C207.535 225.167 210.768 223.294 212.414 220.274C215.202 215.167 213.786 207.314 212.373 202.027C210.662 195.63 207.514 189.884 203.201 184.9C204.859 182.863 206.713 180.941 208.502 179.012C211.193 176.105 214.825 172.775 216.152 169.049C217.16 166.227 215.124 164.685 212.878 162.935C209.233 160.099 205.159 157.683 200.879 155.778C192.454 152.037 183.322 150.37 174.116 150.605C173.77 150 173.171 149.548 172.407 149.495C167.983 149.209 163.571 148.937 159.148 148.651C157.916 148.567 157.076 149.238 156.687 150.08C156.542 149.984 156.396 149.888 156.222 149.815C153.382 148.542 150.178 146.61 146.945 145.343C146.941 145.159 146.937 144.975 146.922 144.777C146.845 143.787 145.873 142.962 144.861 142.788C140.135 141.98 135.703 142.308 131.207 143.701C124.085 142.159 116.988 138.579 109.835 138.159C108.525 138.079 107.647 138.85 107.301 139.763C106.048 140.397 105.111 141.553 104.817 143.114C103.05 143.567 101.321 144.026 99.7268 144.343C99.1236 144.467 98.6723 144.739 98.3534 145.106C98.0351 144.819 97.6157 144.611 97.0632 144.531C91.3352 143.682 85.6201 142.833 79.8922 141.984C78.4924 141.775 77.0557 142.845 77.1399 144.203C68.5607 144.984 60.2039 147.062 52.5064 150.606C47.5633 152.887 37.1784 156.709 40.0695 163.287C41.6385 166.853 43.1349 170.803 44.9171 174.552C38.2756 179.742 32.1879 185.758 27.253 192.62C23.2147 198.23 20.8211 204.941 24.83 211.249C28.596 217.188 35.8988 221.447 42.0105 224.529C42.7251 224.89 43.4443 225.212 44.1667 225.509C43.9353 226.018 43.862 226.624 44.0577 227.276C45.3902 231.716 50.2869 242.79 56.2759 239.536C55.6968 242.162 55.0921 244.784 54.4615 247.404C53.3857 251.867 52.3547 255.419 53.8085 259.181C45.7845 266.939 38.4372 275.263 31.9197 284.184C29.223 287.889 24.9987 292.442 23.6086 296.802C22.4523 300.417 26.1642 302.371 28.8472 304.292C31.2897 306.04 33.7194 307.787 36.1635 309.522C37.668 310.593 39.5373 312.324 41.4291 312.789C41.6579 312.843 41.8899 312.871 42.096 312.895C42.2448 313.071 42.4209 313.236 42.6646 313.383C48.5129 317.022 54.746 319.856 61.503 321.602C61.756 321.672 61.9848 321.726 62.2265 321.781C60.0462 334.08 58.4313 346.461 57.4477 358.917C57.2006 362.041 56.9907 365.182 56.8209 368.316C56.6617 371.254 57.1507 374.885 56.4405 377.731C55.4798 381.567 51.7229 383.769 51.5666 388.304C51.3019 395.574 58.8776 400.062 64.6852 395.282C71.5085 389.669 67.2919 380.862 61.6543 376.346C61.5477 376.255 61.4364 376.202 61.3267 376.136C61.4441 372.788 61.6002 369.443 61.7949 366.104C62.6817 351.529 64.4493 337.021 66.9854 322.645C67.5312 322.672 68.0575 322.644 68.5628 322.574C68.2494 323.544 68.5709 324.669 69.8673 325.192C78.3276 328.636 87.0568 331.262 96.0503 333.109C96.6883 333.238 97.2431 333.083 97.6975 332.784C97.9818 333.028 98.3368 333.228 98.7671 333.346C109.084 336.033 119.47 333.389 129.897 333.656C130.226 333.957 130.671 334.168 131.264 334.24C136.964 334.89 143.456 335.583 149.34 335.039C148.37 339.384 149.32 343.739 150.013 348.167C151.03 354.676 152.141 361.17 153.344 367.649C154.535 374.127 155.819 380.589 157.183 387.036C157.534 388.675 157.721 391.026 158.949 392.327C160.525 393.996 163.805 394.223 165.908 394.778C169.939 395.828 175.055 398.056 179.209 396.465C182.088 395.361 184.268 392.366 183.628 389.226C182.861 385.509 178.387 383.803 175.204 382.777C170.536 381.27 165.693 381.103 160.925 382.044C160.74 380.87 160.599 379.767 160.438 378.936C159.018 371.868 157.693 364.773 156.474 357.663C155.838 353.949 155.228 350.237 154.645 346.516C154.057 342.728 153.003 338.688 154.357 334.952C154.512 334.539 154.533 334.149 154.499 333.778C154.923 333.516 155.263 333.19 155.553 332.846L155.606 332.839ZM170.932 386.644C172.799 386.987 174.672 387.607 176.391 388.416C179.989 390.121 176.294 391.925 173.672 391.765C171.259 391.617 165.85 390.505 163.721 389.187C162.979 388.731 162.446 387.842 162.042 386.747C164.985 386.2 167.927 386.084 170.932 386.644ZM180.993 323.124C172.908 324.79 164.837 326.457 156.752 328.123C156.744 327.755 156.725 327.374 156.693 326.99C156.146 320.486 153.754 313.994 152.761 307.501C151.864 301.622 151.363 295.711 151.178 289.787C154.615 289.038 157.976 287.953 161.22 286.526C161.297 287.085 161.461 287.668 161.662 288.281C163.228 292.841 165.941 297.33 168.426 301.531C170.64 305.279 173.077 308.911 175.699 312.421C177.95 315.428 180.382 318.34 181.418 321.776C181.112 322.144 180.975 322.625 180.993 323.124ZM175.82 280.283C175.91 280.294 175.984 280.33 176.088 280.342C179.495 280.702 181.604 284.019 183.619 286.278C185.496 288.376 187.361 290.473 189.238 292.571C192.806 296.575 196.109 300.508 198.298 305.327C199.269 307.459 200.061 309.662 200.814 311.873C201.739 314.602 203.156 316.501 200.229 318.005C196.17 320.105 191.036 320.832 186.227 321.035C184.888 316.11 181.121 312.017 178.066 307.761C175.582 304.307 173.295 300.732 171.231 297.041C170.651 296.003 165.134 286.489 165.853 285.948C166.745 285.271 166.887 284.32 166.605 283.514C169.13 281.987 171.837 281.006 175.005 280.538C175.285 280.494 175.557 280.409 175.82 280.283ZM181.496 241.136C181.172 239.71 183.906 239.046 185.524 238.744C184.28 241.355 182.261 244.539 181.496 241.136ZM208.831 215.745C207.71 221.013 200.156 224.562 196.083 227.537C193.99 229.064 191.85 231.082 189.575 232.273C187.061 233.604 184.41 233.035 181.841 233.85C181.243 234.039 180.669 234.349 180.136 234.756C180.878 219.548 181.28 204.325 181.358 189.09C183.769 190.022 186.168 190.941 188.578 191.873C190.451 192.597 192.676 193.874 194.683 194.143C197.823 194.562 198.527 192.409 199.707 190.118C199.895 189.748 200.109 189.382 200.322 189.028C205.958 196.043 210.776 206.689 208.844 215.746L208.831 215.745ZM179.79 167.138C176.667 165.831 173.545 164.512 170.409 163.203C170.601 162.48 170.793 161.758 171.009 161.051C175.922 161.933 180.662 163.279 185.301 165.135C188.182 166.282 190.114 162.197 187.235 161.037C182.472 159.127 177.572 157.697 172.523 156.746C172.75 156.171 172.987 155.611 173.211 155.062C173.426 155.115 173.658 155.143 173.908 155.134C181.446 154.854 188.955 155.998 196.017 158.684C199.778 160.121 203.379 161.917 206.692 164.137C207.829 164.902 209.565 165.897 210.488 166.912C212.011 168.588 211.54 167.942 209.841 170.21C206.16 175.13 201.33 179.178 197.769 184.191C197.06 185.192 195.98 186.448 195.577 187.616C194.835 189.751 196.606 189.599 193.946 189.107C189.994 188.381 185.576 185.883 181.854 184.452C181.554 184.337 181.259 184.288 180.972 184.28C180.563 183.772 179.902 183.404 179.301 183.292C173.662 182.244 170.884 179.16 169.829 175.238C174.135 177.682 178.689 179.489 183.579 180.669C186.602 181.401 187.272 176.941 184.262 176.211C179.663 175.105 175.305 173.309 171.311 170.876C170.629 170.466 169.931 170.395 169.312 170.543C169.331 169.629 169.392 168.694 169.518 167.754C172.294 168.914 175.067 170.087 177.842 171.247C180.704 172.444 182.638 168.346 179.776 167.149L179.79 167.138ZM115.108 146.452C119.762 146.989 124.411 148.977 129.053 149.84C131.84 150.36 134.408 150.854 137.038 150.504C133.684 151.97 130.225 152.573 125.864 151.666C122.957 151.052 120.196 149.999 117.49 148.808C116.422 148.338 115.371 147.845 114.321 147.338C113.688 147.052 113.072 146.742 112.458 146.419C113.365 146.372 114.241 146.373 115.104 146.478L115.108 146.452ZM98.1899 148.62C98.2895 148.553 98.3648 148.471 98.453 148.39C98.8861 148.809 99.5374 149.044 100.369 148.87C102.192 148.502 104.179 147.957 106.185 147.48C107.776 149.242 110.374 150.46 112.389 151.423C117.826 154.03 123.56 156.451 129.708 156.632C136.025 156.833 140.195 154.459 145.183 151.267C145.622 150.98 145.9 150.634 146.035 150.271C146.309 150.383 146.595 150.509 146.906 150.638C149.36 151.746 151.829 152.843 154.284 153.951C154.593 154.093 154.9 154.156 155.185 154.178C154.251 161.144 151.617 168.115 145.434 172.431C139.023 176.903 131.472 176.213 123.888 175.034C117.433 174.031 110.496 172.799 105.015 169.153C98.4216 164.756 95.7021 157.191 98.1909 150.125C98.374 149.584 98.3559 149.085 98.1883 148.633L98.1899 148.62ZM82.5066 146.958C86.2179 147.512 89.9307 148.053 93.642 148.606C91.2504 155.841 92.6479 163.744 98.3274 169.535C104.332 175.665 113.389 177.847 121.76 179.225C130.81 180.713 139.968 181.624 147.756 176.468C155.716 171.188 159.227 162.374 160.142 153.508C160.153 153.418 160.138 153.324 160.136 153.232C162.912 153.411 165.688 153.59 168.479 153.757C165.445 160.47 162.844 167.811 165.007 175.112C166.669 180.718 170.748 185.373 176.566 187.202C176.492 217.002 175.091 246.748 172.434 276.393C168.302 277.267 164.625 278.916 161.305 281.499C161.262 281.533 161.246 281.557 161.203 281.591C161.002 281.632 160.786 281.684 160.564 281.788C157.139 283.416 153.585 284.582 149.958 285.387C149.037 285.001 147.766 285.24 146.961 285.953C136.985 287.587 126.522 286.648 116.367 285.001C107.47 283.546 98.3928 281.742 89.7448 278.877C89.3952 277.984 88.5552 277.254 87.266 277.321C86.8185 277.345 86.4148 277.44 86.0467 277.566C81.9823 276.04 78.0279 274.254 74.2863 272.113C69.2347 269.238 62.7979 264.953 59.4557 259.942C59.7113 259.018 59.104 258.094 58.1813 257.616C56.7419 253.843 59.2146 248.424 60.0663 244.732C61.0102 240.711 61.8912 236.669 62.7078 232.62C65.9511 216.72 68.2456 200.666 69.7284 184.514C85.9165 183.082 84.5349 159.374 82.4824 146.942L82.5066 146.958ZM46.6666 159.112C49.3978 156.852 53.233 155.3 56.5246 153.919C63.3152 151.063 70.4871 149.378 77.9269 148.721C78.2024 150.442 78.4515 152.383 78.6478 154.435C78.622 154.432 78.5834 154.427 78.556 154.437C77.0032 154.629 75.5555 154.493 74.0358 154.087C72.7691 153.75 71.4742 154.837 71.3014 155.941C71.1021 157.265 72.0877 158.196 73.3543 158.532C75.1786 159.014 77.0852 159.14 78.9534 158.934C78.9989 160.288 79.0042 161.649 78.9724 162.993C74.7707 162.603 70.5691 162.212 66.3819 161.811C63.293 161.516 62.5971 165.972 65.6989 166.269C69.9907 166.67 74.2697 167.07 78.5616 167.471C78.5744 167.473 78.5873 167.474 78.6131 167.477C78.4438 168.661 78.2148 169.798 77.926 170.888C73.1614 171.045 68.5375 171.768 63.9718 172.983C60.9998 173.775 62.8305 177.987 65.8025 177.195C69.1379 176.316 72.5359 175.785 75.98 175.521C74.1703 178.377 71.3906 180.174 67.2417 180.104C66.7459 180.097 66.2446 180.35 65.8483 180.708C64.1381 180.148 62.3506 180.01 60.4992 180.401C59.386 180.633 56.0871 183.047 55.7053 182.962C55.8083 182.974 53.182 179.503 52.7935 178.933C51.9468 177.718 51.2703 176.393 50.6583 175.076C49.4733 172.551 48.5358 169.925 47.4328 167.371C46.0778 164.197 43.4829 161.763 46.6811 159.101L46.6666 159.112ZM52.0444 233.123C50.5945 232.031 49.6546 229.209 49.0054 227.01C50.7917 227.266 52.7588 227.216 54.0431 228.379C56.258 230.387 55.2171 235.535 52.0315 233.121L52.0444 233.123ZM53.0212 222.667C47.0816 222.054 42.3756 219.456 37.4496 216.191C33.4065 213.517 27.8936 210.023 27.591 204.635C27.2727 198.943 32.3988 193.635 35.904 189.623C39.3452 185.707 43.1695 182.192 47.2347 178.954C47.8763 180.026 48.5325 181.087 49.2639 182.065C50.7139 184.02 53.2941 187.224 56.0702 187.403C56.9784 187.46 57.7581 187.175 58.5049 186.729C60.76 185.379 62.322 184.246 64.8241 185.177C63.5424 198.802 61.6665 212.367 59.1252 225.813C59.108 225.955 59.0651 226.094 59.0479 226.236C57.886 223.845 55.8235 222.954 53.0083 222.666L53.0212 222.667ZM43.3199 306.775C42.8005 308.584 41.9091 308.712 40.6474 307.146C39.6723 306.452 38.6988 305.745 37.7238 305.052C36.0158 303.824 34.3062 302.61 32.5982 301.383C31.1065 300.312 28.8976 299.443 28.6119 297.59C28.3923 296.163 31.9053 292.518 32.8403 291.166C35.3456 287.53 37.9977 283.977 40.7709 280.504C45.5916 274.479 50.8321 268.766 56.3795 263.326C59.4302 267.071 63.015 270.292 67.0054 273.078C61.8117 280.458 56.6164 287.852 51.4226 295.232C50.0665 297.149 48.7217 299.08 47.3656 300.996C46.2433 302.601 44.9252 305.609 43.3086 306.761L43.3199 306.775ZM60.2823 381.637C62.6469 384.03 64.7468 387.529 62.5823 390.617C60.7972 393.163 56.7809 392.428 56.4368 389.22C56.2065 387.124 57.4896 385.055 58.7345 383.517C59.4106 382.683 59.9091 382.128 60.2823 381.637ZM70.7126 314.851C70.2918 315.52 69.871 316.189 69.463 316.86C68.4996 318.34 67.2374 318.723 65.6763 318.011C62.648 317.972 58.9018 316.302 56.1302 315.221C52.8331 313.945 49.7038 312.363 46.7057 310.561C47.8897 309.095 48.8019 307.281 49.6552 306.063C56.7765 295.932 63.8979 285.801 71.0321 275.671C74.6675 277.825 78.5609 279.683 82.6175 281.273C81.7538 283.119 81.1985 285.224 80.6166 286.684C78.4559 292.011 76.7415 297.43 75.1868 302.935C74.4325 305.605 73.6781 308.275 72.6208 310.855C72.0643 312.215 71.4562 313.567 70.7254 314.853L70.7126 314.851ZM94.6775 328.245C86.8468 326.513 79.2488 324.154 71.8349 321.138C72.65 320.451 73.4288 319.525 74.2353 318.261C77.3523 313.351 78.8163 307.731 80.3566 302.238C81.3427 298.733 82.4401 295.28 83.7292 291.863C84.0719 290.976 85.9174 285.336 87.1107 282.929C93.225 285.016 99.5981 286.585 105.88 287.829C102.146 301.301 98.3987 314.771 94.6646 328.243L94.6775 328.245ZM99.4969 328.932C99.4969 328.932 99.484 328.931 99.4711 328.929C103.185 315.52 106.911 302.113 110.624 288.704C114.197 289.319 117.728 289.851 121.138 290.303C122.708 290.506 124.282 290.683 125.857 290.847C125.737 291.081 125.651 291.359 125.624 291.696C125.256 297.867 124.886 304.064 125.38 310.248C125.88 316.603 127.833 322.833 127.495 329.191C118.115 329.247 108.761 331.348 99.4824 328.944L99.4969 328.932ZM132.318 329.853C132.65 324.187 131.3 318.698 130.549 313.019C129.64 306.157 130.042 299.27 130.438 292.422C130.47 291.942 130.35 291.534 130.144 291.182C135.271 291.488 140.403 291.428 145.431 290.82C145.549 291.357 145.931 291.77 146.437 292.014C146.829 300.777 147.943 309.509 149.881 318.132C150.356 320.257 150.965 322.359 151.412 324.493C151.668 325.728 152.163 327.476 151.891 328.752C151.448 330.897 152.218 329.616 150.525 330.314C148.571 331.125 144.505 330.581 142.313 330.551C138.972 330.5 135.658 330.23 132.342 329.869L132.318 329.853Z" fill="white"/>
<path d="M148.362 200.541C146.283 194.702 139.528 194.133 133.895 195.088C129.704 195.798 126.174 197.752 123.809 200.659C121.691 196.765 118.708 193.329 113.864 192.299C108.676 191.2 104.095 193.839 102.269 198.342C96.5351 212.462 117.876 219.126 117.844 232.038C117.838 233.163 118.563 233.761 119.445 233.933C120.143 234.318 121.018 234.332 121.828 233.684C129.09 227.797 136.74 222.153 143.679 215.913C148.022 212.002 150.383 206.203 148.363 200.528L148.362 200.541ZM141.782 211.169C138.888 214.666 134.46 217.441 130.894 220.334L122.053 227.496C120.061 220.62 113.333 216.038 109.018 210.099C106.497 206.627 104.459 200.779 108.54 197.622C114.383 193.094 119.038 201.299 121.135 206.12C121.122 206.223 121.086 206.31 121.06 206.412C120.769 207.738 121.66 208.591 122.765 208.856C124.419 209.776 127.119 208.309 126.262 206.099C126.241 206.057 126.222 206.002 126.213 205.962C127.872 201.543 132.709 199.38 137.69 199.276C140.861 199.215 143.484 199.689 144.081 202.967C144.616 205.898 143.708 208.863 141.795 211.17L141.782 211.169Z" fill="white"/>
</g>
<defs>
<clipPath id="clip0_15_412">
<rect width="196.5" height="393" fill="white" transform="translate(47.4238) rotate(6.89581)"/>
</clipPath>
</defs>
</svg>
