<svg width="1920" height="214" viewBox="0 0 1920 214" fill="none" xmlns="http://www.w3.org/2000/svg">
<path d="M815.742 90.2278C809.531 86.4261 799.919 86.9928 794.842 92.2585C798.479 70.8886 790.969 37.7593 767.895 33.5562C744.113 29.2349 736.272 59.3418 737.17 79.5547C725.763 63.4505 706.161 46.3309 687.433 61.5614C671.397 74.5959 676.9 111.244 695.841 119.225C696.596 119.555 697.305 119.296 697.777 118.847C717.497 119.366 737.264 118.8 756.984 119.319C776.468 119.815 796.306 122.531 815.79 122.153C816.758 122.72 818.151 122.72 819.002 121.563C825.732 112.424 826.606 96.8159 815.766 90.2042L815.742 90.2278ZM758.921 114.88C738.445 114.526 717.757 114.337 697.352 116.368C682.048 107.749 675.436 75.0918 691.33 64.1116C711.168 50.416 729.825 74.1945 738.492 89.2361C739.673 91.2668 742.743 89.8972 742.2 87.6776C739.791 77.5239 739.933 67.1577 743.428 57.2402C747.703 45.1502 758.708 31.9505 772.76 39.6247C792.811 50.5576 792.244 79.4366 789.292 98.4216C788.914 100.854 792.173 101.845 793.023 99.437C793.094 99.2717 793.141 99.0827 793.188 98.8938C793.519 98.8702 793.826 98.7049 794.039 98.3507C798.148 91.1723 808.232 88.7166 814.821 94.3601C821.765 100.287 820.537 110.819 816.12 117.902C797.558 114.738 777.649 115.258 758.897 114.927L758.921 114.88Z" fill="white" fill-opacity="0.3"/>
<path d="M486.502 170.985C473.183 165.672 458.162 170.678 449.377 181.28C447.747 156.888 439.93 128.151 411.897 124.491C401.128 123.074 391.256 127.726 384.809 136.297C378.763 144.326 376.803 153.771 376.803 163.405C373.024 155.542 368.183 148.269 360.956 143.051C350.541 135.494 336.985 133.818 326.122 141.398C303.237 157.36 305.575 194.362 324.87 211.93C325.389 212.402 325.933 212.426 326.405 212.214C326.523 212.662 326.854 213.04 327.491 213.064C356.351 214.551 385.494 213.3 414.353 213.016C443.166 212.733 472.498 213.819 501.215 211.694C501.641 211.67 501.971 211.529 502.255 211.34C503.459 211.93 505.112 211.623 505.537 209.947C509.269 194.456 501.759 177.054 486.502 170.985ZM414.353 208.506C385.47 208.979 356.28 208.506 327.491 210.75C327.397 210.75 327.35 210.797 327.255 210.82C327.255 210.513 327.137 210.206 326.901 209.923C312.282 192.331 306.685 163.075 326.452 146.545C337.434 137.36 351.698 140.193 361.594 149.544C370.285 157.762 374.536 169.568 378.432 180.572C379.495 183.594 383.675 182.366 383.156 179.273C381.078 166.593 380.18 152.59 387.43 141.256C394.728 129.874 408.189 126.403 420.234 132.188C441.772 142.507 444.299 168.387 444.606 189.474C444.63 191.859 448.243 193.158 449.377 190.773C455.234 178.565 469.215 170.796 482.724 174.81C496.539 178.943 503.884 193.984 501.215 207.562C472.45 206.192 443.142 208.058 414.353 208.53V208.506Z" fill="white" fill-opacity="0.3"/>
<path d="M632.619 -6.6807C608.199 -20.1166 581.394 -1.22606 571.995 22.0565C566.704 -4.1541 550.22 -30.4828 519.542 -24.4614C483.999 -17.4719 473.891 19.6716 480.551 50.9118C472.899 42.1277 462.72 35.5397 451.219 43.0251C439.529 50.6521 440.615 66.7563 451.55 74.2181C450.274 74.7376 450.463 76.8155 452.069 76.91C511.087 80.7589 570.908 78.8463 630.044 79.2477C631.627 79.2477 632.43 78.0434 632.477 76.8155C647.119 53.7218 665.233 11.2417 632.619 -6.70431V-6.6807ZM454.265 74.0055C454.502 73.3916 454.407 72.6596 453.746 72.1637C441.772 63.1199 445.905 43.8279 461.917 44.1821C472.545 44.4182 478.85 54.2885 483.904 62.4587C485.109 64.4186 488.51 63.1907 487.754 60.8294C478.024 31.1476 482.109 -10.4116 518.219 -19.2901C552.345 -27.6728 567.318 8.29005 568.641 35.8939C568.806 39.2469 573.506 39.1761 573.789 35.8939C576.057 9.68323 611.6 -21.2973 635.689 2.19786C656.826 22.8358 640.577 54.0052 628.037 74.2417C570.294 73.7694 511.961 71.1956 454.265 74.0055Z" fill="white" fill-opacity="0.3"/>
<path d="M0.0460176 -75.3478C8.19377 -30.3647 16.7666 21.3482 46.4055 57.8306C70.4237 87.4179 105.636 107.088 142.502 115.588C218.5 133.109 297.64 103.357 344.046 40.9944C369.505 6.77885 384.88 -35.1109 385.659 -77.8272C385.706 -79.9052 382.636 -79.6926 382.494 -77.6855C376.992 -3.58735 334.576 67.8189 265.45 98.9175C197.411 129.52 109.344 117.312 57.222 62.0809C22.1512 24.9374 15.5386 -29.0424 4.79297 -76.8355C4.72212 -77.1188 4.62765 -77.3549 4.50957 -77.5675C19.0102 -77.2133 33.5108 -77.048 48.0115 -76.9771C54.0573 -11.852 76.8474 63.4269 143.942 89.1653C205.606 112.826 274.259 80.8298 311.455 30.2031C334.718 -1.48577 348.581 -39.9044 354.154 -78.6537C364.121 -78.9606 374.087 -79.3148 384.029 -79.8343C386.273 -79.9524 386.084 -83.1874 383.888 -83.2819C345.534 -84.8876 306.968 -84.675 268.449 -84.1555C267.859 -82.0776 267.033 -80.0705 266.135 -78.087C266.088 -77.9925 266.041 -77.898 266.017 -77.8036C266.395 -77.8036 266.749 -77.8036 267.127 -77.8036C264.151 -58.2991 260.514 -39.1488 251.729 -21.25C243.085 -3.58735 227.923 18.3493 205.889 18.4202C183.359 18.491 166.921 0.899155 160.049 -19.1957C153.46 -38.464 155.562 -57.8032 155.302 -77.6147C155.609 -77.6147 155.916 -77.6147 156.199 -77.6147C155.869 -78.8662 155.751 -80.2358 155.94 -81.747C156.011 -82.2193 156.034 -82.7151 156.081 -83.1874C143.187 -83.1874 130.268 -83.1874 117.374 -83.1874C116.382 -84.1555 114.61 -84.1319 113.713 -83.1874C77.1781 -83.1402 40.6431 -82.904 4.17894 -81.6525C2.38407 -81.5817 1.93535 -79.7635 2.64385 -78.5828C1.22685 -78.512 -0.284616 -77.2133 0.0460176 -75.3714V-75.3478ZM150.555 -77.5202C146.564 -39.6683 154.688 20.0258 203.008 22.5997C223.932 23.7095 239.094 7.93589 249.344 -8.54611C262.097 -28.9951 268.709 -53.7418 269.654 -77.78C279.691 -77.78 289.752 -77.7564 299.789 -77.78C295.868 -48.5705 287.98 -21.2736 271.331 3.4966C255.248 27.464 230.923 51.8092 199.701 48.9048C138.085 43.1668 123.231 -26.6574 118.484 -77.2133C129.158 -77.3077 139.857 -77.4258 150.531 -77.5202H150.555ZM113.524 -77.166C116.216 -46.6342 120.491 -14.8036 136.952 11.6668C150.437 33.3201 173.652 50.841 199.607 53.1315C229.883 55.7998 253.925 34.4299 270.693 11.5487C289.303 -13.8355 302.127 -46.0439 302.906 -77.8036C311.857 -77.8508 320.784 -77.9217 329.711 -78.0633C318.753 -42.0768 307.724 -5.35834 284.296 24.7957C264.718 49.991 235.41 69.9205 202.984 72.4943C166.544 75.3988 135.228 53.1788 115.815 23.8748C95.7172 -6.49177 89.2462 -42.2185 80.7678 -76.9535C91.6787 -77.0007 102.59 -77.0716 113.501 -77.166H113.524ZM75.9972 -76.9535C75.95 -76.6465 75.9264 -76.3396 75.9972 -75.9854C86.0816 -21.1319 104.975 45.41 161.159 69.7316C210.896 91.2668 264.151 61.2309 292.704 20.0258C312.943 -9.16005 324.327 -43.9423 332.852 -78.1342C338.874 -78.2522 344.897 -78.3703 350.919 -78.5356C338.945 -15.8426 310.038 47.913 249.91 77.4295C222.137 91.0543 189.381 96.2256 159.104 88.8347C127.458 81.0896 101.905 58.9404 84.8771 31.7616C64.4959 -0.753769 56.8913 -39.196 53.3725 -76.9063C60.9062 -76.8827 68.4399 -76.9063 75.9736 -76.9299L75.9972 -76.9535Z" fill="white" fill-opacity="0.3"/>
<path d="M1830.83 204.492C1826.51 177.526 1824.34 150.347 1824.34 123.027C1829.3 123.097 1834.26 123.027 1839.22 122.72C1839.69 122.696 1840.07 122.554 1840.4 122.342C1840.75 127.442 1842.62 132.637 1846.18 136.132C1847.2 137.124 1849.18 136.014 1848.36 134.644C1845.36 129.662 1843.14 125.057 1842.6 119.39C1842.71 119.39 1842.83 119.367 1842.95 119.319C1843.02 119.319 1843.07 119.367 1843.14 119.367C1843.23 119.862 1843.59 120.287 1844.27 120.335C1844.37 120.335 1844.51 120.335 1844.63 120.335C1850.03 128.93 1858.39 136.675 1868.12 139.556C1869.42 139.934 1870.44 138.021 1869.19 137.313C1860.45 132.448 1853.22 127.655 1847.15 120.075C1854.73 118.658 1867.39 111.763 1863.52 103.758C1861.49 99.5551 1856.48 101.515 1853.48 103.239C1850.41 104.986 1847.84 107.253 1845.71 109.921C1846.18 104.679 1845.41 99.3898 1843.42 94.2657C1843.11 93.4393 1841.86 93.274 1841.27 93.8643C1837.38 97.7133 1835.7 103.003 1836.34 108.434C1836.71 111.574 1838.01 115.565 1840.54 117.855C1840.54 117.95 1840.54 118.044 1840.54 118.139C1840.26 117.997 1839.9 117.95 1839.5 117.95C1795.27 120.382 1751.39 109.425 1712.92 87.5832C1694.19 76.9336 1676.88 63.7575 1661.57 48.5978C1645.82 32.9895 1634.06 15.3741 1622.56 -3.35118C1629.19 -4.03596 1639.82 -9.98649 1637.67 -16.8107C1635.59 -23.446 1629.45 -19.4554 1624.78 -15.2522C1625.96 -18.2983 1626.64 -21.557 1626.6 -24.3433C1626.53 -27.4603 1624.68 -32.3482 1620.65 -31.1439C1616.39 -29.8688 1615.31 -22.3598 1615.07 -18.747C1614.84 -15.0161 1615.36 -10.9074 1616.96 -7.41265C1609.45 -8.19188 1604.28 -11.2852 1597.83 -15.9134C1596.46 -16.9052 1595.23 -15.0161 1596.04 -13.8354C1600.36 -7.50711 1609.07 -4.461 1616.75 -4.72075C1612.5 -3.75261 1608.25 -3.25673 1603.83 -3.84706C1597.6 -4.67352 1592.87 -7.50711 1587.35 -10.1754C1586.38 -10.6477 1585.15 -9.56145 1586 -8.61693C1593.94 0.00188637 1609.59 1.13533 1619.94 -3.44563C1620.03 -3.39841 1620.13 -3.35118 1620.24 -3.35118C1620.65 -3.30395 1621.07 -3.28034 1621.54 -3.28034C1623.13 0.379702 1624.85 3.99251 1626.74 7.5581C1626.43 7.5581 1626.12 7.60533 1625.89 7.74701C1601.37 22.6469 1576.62 36.7676 1550.74 49.1882C1548.57 50.2271 1549.51 53.226 1551.66 53.4858C1559.93 54.4775 1568.15 55.6582 1576.34 57.1222C1582.15 58.1612 1596.23 58.6098 1599.53 64.2061C1601.19 67.0161 1600.45 74.7376 1600.64 78.0199C1600.85 81.6327 1601.02 85.2455 1601.14 88.8347C1601.4 97.2646 1601.3 105.695 1601 114.124C1600.93 116.273 1603.41 117.289 1604.99 116.037C1627.35 98.3744 1651.04 82.3175 1673.17 64.395C1677.87 68.4565 1682.71 72.3527 1687.65 76.0363C1669.93 96.2965 1654.16 118.233 1639.33 140.618C1638.31 142.153 1639.78 143.83 1641.4 143.641C1649.81 142.602 1658.17 141.303 1666.46 139.603C1670.59 138.753 1674.73 137.808 1678.84 136.769C1681.36 136.132 1688.78 132.637 1691.07 133.416C1696.67 135.282 1699.88 152.732 1701.63 157.667C1704.74 166.475 1707.86 175.259 1710.98 184.043C1711.5 185.483 1713.96 185.602 1714.64 184.232C1726.68 159.651 1737.55 134.573 1747.21 108.977C1747.25 108.835 1747.25 108.693 1747.28 108.552C1752.38 110.441 1757.53 112.141 1762.75 113.676C1754.01 139.792 1749.26 167.396 1745.98 194.693C1745.81 196.133 1747.66 197.385 1748.93 196.605C1756.35 191.906 1763.76 187.184 1771.2 182.485C1775.85 179.533 1787.85 169.072 1793.31 170.914C1795.53 171.67 1798.72 177.644 1800.49 179.722C1803.77 183.547 1807.19 187.278 1810.71 190.891C1816.14 196.44 1821.88 201.635 1827.79 206.665C1829.25 207.916 1831.16 206.074 1830.93 204.516L1830.83 204.492ZM1850.51 108.788C1851.78 107.631 1853.74 105.86 1855.42 105.34C1856.65 104.23 1857.83 104.419 1858.96 105.931C1860.92 106.19 1861.51 106.946 1860.73 108.221C1860.61 110.96 1855.11 113.912 1853.18 114.904C1850.62 116.202 1847.96 116.745 1845.24 117.501C1845.05 117.218 1844.84 116.982 1844.65 116.698C1846.11 113.723 1848 111.031 1850.51 108.764V108.788ZM1841.74 97.6897C1843.63 103.428 1843.66 109.402 1842 115.187C1840.87 113.322 1839.78 111.456 1839.36 109.071C1838.63 105.01 1839.5 101.019 1841.74 97.6897ZM1618.71 -23.4696C1619.2 -25.1225 1621.33 -31.8995 1623.93 -25.3823C1624.66 -23.5405 1623.55 -20.5888 1623.05 -18.8178C1622.11 -15.4411 1620.36 -12.5603 1618.92 -9.44339C1617.76 -14.0243 1617.22 -18.4636 1618.69 -23.4696H1618.71ZM1620.98 -6.0667C1620.98 -6.63342 1620.65 -7.22375 1619.96 -7.22375C1619.82 -7.22375 1619.68 -7.22375 1619.54 -7.24736V-7.29459C1619.75 -7.29459 1619.94 -7.36542 1620.1 -7.53071C1620.98 -8.42802 1621.78 -9.53784 1622.54 -10.7185C1623.93 -11.7103 1625.32 -12.702 1626.69 -13.741C1627.71 -14.5202 1628.72 -15.2995 1629.74 -16.0551C1630.42 -16.6218 1631.16 -17.1413 1631.91 -17.6135C1635.45 -17.2593 1636.33 -15.9606 1634.51 -13.6938C1632.12 -8.19188 1625.96 -7.95576 1620.98 -6.04309V-6.0667ZM1605.86 109.189C1606.19 92.6128 1605.48 76.1072 1603.67 59.6252C1603.57 58.8696 1602.82 58.0667 1602.11 57.9014C1588.03 54.5247 1573.81 51.9037 1559.48 49.9438C1570.08 44.7017 1580.57 39.2234 1590.89 33.4618C1596.86 30.1087 1602.79 26.6848 1608.67 23.1664C1611.88 21.2538 1615.07 19.2939 1618.24 17.334C1619.3 16.6728 1620.34 16.0116 1621.4 15.3505C1623.57 14.7129 1624.85 13.5086 1625.27 11.7613C1625.75 11.9974 1626.31 12.0918 1626.93 11.8793L1627.8 11.5724C1628.16 11.4307 1628.42 11.1945 1628.58 10.8876C1639.3 30.0143 1654.04 47.3936 1670.76 62.2699C1647.97 75.8711 1626.72 92.7309 1605.91 109.236L1605.86 109.189ZM1713.13 177.644C1707.39 161.563 1701.63 145.483 1695.89 129.402C1695.6 128.623 1694.42 128.103 1693.64 128.34C1677.73 133.227 1661.55 136.746 1645.09 139.06C1659.16 117.95 1674.42 97.8077 1689.96 77.7365C1696.69 82.6244 1703.59 87.1109 1710.55 91.1724C1721.18 97.3827 1732.28 102.696 1743.71 107.159C1743.57 107.324 1743.43 107.489 1743.36 107.725C1734.29 131.457 1724.2 154.763 1713.15 177.644H1713.13ZM1794.02 165.153C1793.52 164.491 1792.29 164.232 1791.56 164.68C1777.89 173.37 1764.21 182.036 1750.54 190.726C1753.87 164.916 1759.49 139.721 1765.11 114.337C1783.03 119.414 1801.57 122.342 1820.23 122.932C1820.25 148.671 1822.19 174.267 1826.02 199.699C1814.23 189.238 1803.6 177.715 1794.04 165.153H1794.02Z" fill="white" fill-opacity="0.3"/>
<path d="M1517.2 5.24397C1501.19 0.686623 1484.66 3.28407 1468.79 8.24284C1491.84 -8.19195 1515.03 -32.8441 1491.96 -51.3568C1466.76 -71.5697 1434.85 -44.3437 1417.33 -20.5652C1420.49 -35.843 1421.7 -52.0889 1418.56 -66.8943C1416.01 -78.7718 1408.21 -93.6717 1393.97 -92.5855C1378.76 -91.4284 1372.51 -73.6005 1369.96 -61.0619C1367.26 -47.8149 1367.43 -34.4498 1370.12 -21.5098C1364.74 -32.5608 1357.84 -42.7853 1349.46 -52.018C1340.88 -61.4633 1325.01 -77.3077 1310.7 -69.9404C1297.52 -63.1398 1303.05 -45.4299 1308.03 -35.229C1315.38 -20.1874 1325.67 -6.94044 1337.81 4.44112C1322.49 0.237968 1306.1 -0.801018 1290.56 2.43399C1279.48 4.72447 1265.52 11.4306 1263.61 23.9456C1261.41 38.3024 1276.27 46.3073 1287.67 50.1799C1301.28 54.808 1315.57 56.4374 1329.74 55.5164C1316.65 62.1518 1304.3 70.2275 1295.82 82.5299C1287.58 94.4782 1281.6 115.258 1294.12 126.639C1305.69 137.171 1325.82 131.149 1337.93 125.034C1349.57 119.154 1359.37 110.417 1367.81 100.5C1364.43 113.274 1363.89 126.639 1366.48 139.863C1368.96 152.543 1376.9 179.651 1394.14 178.14C1409.65 176.77 1417.54 155.967 1419.38 143.027C1421.06 131.126 1419.74 119.107 1417.12 107.324C1423.68 118.162 1431.67 127.985 1442.51 135.022C1455.66 143.546 1476.75 149.001 1490.05 137.667C1504.19 125.624 1492.43 108.079 1483.13 97.359C1473.99 86.8039 1463.41 77.7365 1451.76 70.2039C1468.51 75.2807 1485.39 79.8616 1502.99 77.5712C1522.24 75.0918 1540.07 63.0727 1543.77 43.0014C1547.2 24.4415 1534.28 10.1555 1517.18 5.26758L1517.2 5.24397ZM1537.23 46.874C1530.24 67.0161 1508.37 73.7694 1488.89 72.6596C1468.25 71.479 1448.83 62.8602 1428.95 57.9486C1426.12 57.2402 1423.99 61.585 1426.87 62.8602C1441.87 69.4718 1455.71 78.1851 1467.8 89.2833C1478.38 99.0119 1504.69 124.491 1482.72 135.872C1467.11 143.971 1447.37 133.936 1435.94 123.003C1424.04 111.621 1416.67 96.4617 1409.82 81.7271C1408.54 79.0116 1404.06 80.9242 1404.98 83.7814C1412.94 108.67 1424.2 145.79 1402.97 167.49C1397.49 173.11 1387.03 172.071 1382.52 165.766C1380.72 163.263 1379.28 160.43 1377.94 157.643C1373.97 149.379 1371.47 140.311 1370.55 131.197C1368.94 115.423 1371.96 99.8148 1379.02 85.6705C1380.54 82.6244 1376.38 80.1922 1374.47 83.0022C1366.2 95.2574 1356.49 106.71 1344.26 115.163C1333.28 122.743 1312.66 132.354 1299.72 124.16C1282.36 113.18 1297.45 86.6859 1307.68 76.6503C1318.82 65.7173 1333.47 59.2473 1347.5 52.8954C1350.33 51.6203 1348.23 47.5352 1345.49 48.1019C1330.66 51.2189 1315.57 51.5258 1300.71 48.3144C1289.21 45.835 1261.93 38.1844 1269.91 20.994C1275.25 9.49434 1292.11 6.70798 1303.1 5.99959C1318.47 5.00784 1333.42 7.6525 1347.83 12.871C1350.66 13.8864 1351.7 9.94299 1349.72 8.40813C1338.07 -0.564888 1328.04 -11.2617 1319.98 -23.5641C1313.77 -33.0566 1294.83 -65.4067 1318.31 -66.7527C1331.93 -67.5319 1345.06 -51.5694 1352.9 -41.9352C1362.49 -30.1522 1369.77 -16.6691 1375.03 -2.47755C1375.27 -1.8636 1375.81 -1.62748 1376.33 -1.65109C1376.38 -1.55664 1376.4 -1.46218 1376.45 -1.34412C1377.58 1.32417 1382.31 -0.612106 1381.17 -3.32762C1375.22 -17.7081 1372.27 -33.1039 1373.54 -48.6886C1374.56 -60.991 1378.27 -85.714 1394.23 -87.0836C1409.82 -88.4296 1413.98 -66.6582 1414.5 -55.1586C1415.28 -38.4404 1412.82 -21.8876 1408.07 -5.87785C1407.22 -2.99705 1411.54 -1.10798 1412.96 -3.8235C1419.31 -15.9371 1427.58 -26.7991 1437.99 -35.7249C1450.23 -46.2092 1469.29 -58.37 1485.46 -49.2553C1506.18 -37.5904 1489.12 -16.244 1477.48 -5.52365C1466.24 4.81892 1453.46 12.9655 1439.6 19.341C1436.88 20.5925 1438.84 25.4096 1441.66 24.2526C1461.12 16.1769 1481.83 7.34554 1503.34 8.5262C1523.96 9.63602 1545.26 23.5914 1537.18 46.8976L1537.23 46.874Z" fill="white" fill-opacity="0.3"/>
<path d="M1411.76 36.6967C1410.55 29.7545 1404.2 25.2443 1397.54 25.0554C1397.47 25.0318 1397.4 25.0082 1397.33 24.9846C1389.34 23.922 1382.45 31.431 1382.57 39.1761C1382.68 47.3463 1390.69 54.2413 1398.72 53.5329C1406.7 52.8245 1413.15 44.6308 1411.76 36.6967ZM1397.07 48.8575C1391.8 48.645 1387.15 43.7571 1387.15 38.515C1387.15 34.2646 1389.79 31.006 1393.19 28.8808C1393.64 29.2586 1394.21 29.4711 1394.92 29.3294C1400.59 28.1724 1407.1 32.1866 1407.32 38.3497C1407.51 43.7571 1402.55 49.1173 1397.07 48.8811V48.8575Z" fill="white" fill-opacity="0.3"/>
<path d="M1174.76 40.8763L1175.05 41.3957C1175.52 40.2859 1176.11 39.2469 1176.75 38.208C1177.38 37.169 1178 36.0592 1178.68 35.0202C1180.03 32.895 1181.49 30.7698 1182.37 28.4557V28.8335C1188.37 17.7826 1191.48 6.49545 1194.25 -5.50005C1194.25 -5.31114 1194.39 -5.19308 1194.39 -4.98056C1194.39 -5.5945 1194.22 -6.32651 1194.44 -6.96407C1194.6 -7.10574 1194.62 -6.72793 1194.62 -6.51541C1196.09 -8.85312 1195.88 -14.0952 1196.84 -15.5593C1196.89 -16.2913 1196.61 -16.6927 1196.25 -16.3385C1198.05 -25.831 1199.37 -36.0791 1199.77 -45.9258C1199.94 -46.3745 1200.2 -46.4453 1200.48 -46.28C1200.01 -54.7808 1201.31 -63.494 1202.16 -72.0892C1201.8 -72.4434 1201.71 -71.2392 1201.38 -72.1129C1200.69 -69.3973 1201.9 -66.9888 1201.02 -64.533L1200.69 -64.8872C1200.32 -63.0926 1201.57 -64.4386 1200.95 -62.5967C1200.6 -61.8883 1200.53 -62.8093 1200.46 -62.4787C1200.27 -58.6061 1199.61 -54.6155 1200.08 -50.8846C1199.23 -50.0581 1199.63 -46.7523 1198.71 -45.4063C1198.9 -44.3674 1198.71 -43.3992 1199.16 -42.9506C1197.17 -29.5619 1195.59 -15.7954 1191.79 -2.47755C1191.72 0.875519 1190.44 4.22859 1189.15 7.69973C1188.41 9.39988 1187.66 11.1472 1186.9 12.8946C1186.52 13.7683 1186.17 14.6656 1185.84 15.5629C1185.46 16.4366 1185.11 17.3339 1184.78 18.2312C1184.71 18.2548 1184.66 18.2312 1184.63 18.1604C1184.3 19.3646 1183.81 20.8287 1183.22 22.3163C1182.63 23.8039 1181.82 25.2443 1181.07 26.543L1180.48 29.0933C1175.61 36.6967 1170.46 44.1585 1164.44 50.9591C1158.44 57.7597 1151.62 63.9227 1144.04 68.9523C1135.46 74.714 1126.68 78.8699 1117.75 82.341C1108.8 85.7886 1099.71 88.5041 1089.88 90.9835C1089.88 90.8418 1089.72 90.7945 1090.21 90.6293C1087.36 91.1723 1084.57 91.4321 1081.85 91.6682C1079.12 91.7391 1076.42 91.9516 1073.71 92.1169V91.9752C1066.93 92.7544 1059.8 92.1877 1052.83 91.2432C1045.89 90.1098 1039.06 88.693 1032.57 87.347C1024.89 84.9385 1016.89 81.8215 1009.09 77.9962C1001.27 74.2181 993.717 69.6135 986.727 64.702L986.939 64.4894C984.034 62.6712 981.46 60.4516 978.862 58.3264C976.383 56.0359 973.879 53.8163 971.612 51.3605L968.164 47.7241L964.858 43.946C962.638 41.4194 960.394 38.8927 958.15 36.3425C949.601 25.2207 938.62 14.9726 928.063 5.64538C925.087 2.31592 920.387 -0.0690155 915.688 -1.74555C910.917 -3.4457 906.123 -3.84712 902.108 -4.98056C900.03 -5.19308 897.881 -5.54727 895.732 -5.45282C893.583 -5.40559 891.457 -5.07501 889.402 -4.64997C885.246 -3.75267 881.302 -2.28865 877.429 -0.801018C873.556 0.662994 869.706 2.19785 865.691 3.16599C861.676 4.18137 857.402 4.55917 853.127 4.15774C845.404 2.36314 838.201 -1.10799 832.014 -5.92508C825.826 -10.7186 820.772 -17.0233 817.915 -24.0836C815.718 -26.9881 814.396 -30.6009 813.38 -34.3318C812.365 -38.0863 811.633 -41.9824 810.381 -45.7369L810.098 -45.3591C810.381 -48.3816 806.909 -51.0971 808.114 -53.2459L808.255 -52.9626C808.728 -54.6155 805.516 -55.9142 806.272 -57.0476L805.823 -57.1893C805.303 -58.9603 806.224 -57.4963 806.083 -58.9131C805.917 -59.4326 805.303 -58.9367 805.303 -60.0937C806.909 -60.6841 804.004 -64.415 805.847 -64.9344C806.059 -63.9663 806.248 -66.611 807.098 -64.5094C807.146 -65.1706 806.437 -68.1458 805.705 -67.7208C804.807 -67.7916 803.816 -68.807 803.556 -66.8471L804.241 -66.611C803.768 -65.8554 804.028 -66.0679 803.627 -65.7609C804.052 -63.3524 803.225 -62.8565 803.225 -61.0619C803.225 -61.0619 803.249 -61.1091 803.296 -61.0619C804.288 -60.0465 804.217 -58.3464 804.312 -57.3782L804.052 -56.9296C803.461 -56.1976 806.059 -54.521 804.689 -54.9697C806.13 -50.1762 807.571 -44.6035 809.342 -39.2669C810.05 -38.6766 810.712 -35.1818 811.184 -36.6458C810.664 -34.9693 811.963 -30.9314 812.672 -29.5147C812.554 -29.5147 812.436 -29.5383 812.365 -29.7744C812.388 -26.3977 815.01 -27.0353 814.821 -23.7294C815.459 -23.8003 816.002 -22.6196 816.639 -21.3209C817.348 -20.0458 818.104 -18.629 819.166 -18.322C819.166 -17.8734 819.025 -17.6608 818.765 -17.6372C821.599 -13.2452 825.141 -8.56976 828.471 -5.52366C830.243 -4.62636 831.943 -3.0915 833.714 -1.72193C835.509 -0.375984 837.375 0.828285 839.17 0.993576C841.342 2.57566 845.239 5.03143 849.16 5.45647L848.758 5.5037C852.938 6.68436 858.535 7.08578 861.417 5.90512C862.763 7.25108 864.676 6.73159 866.589 6.84966C869.375 5.78706 874.878 4.37027 878.61 2.41038C879.413 2.78819 881.751 1.04081 882.247 1.82005C887.348 -0.848244 893.346 -3.2568 899.628 -3.04427C905.91 -3.0915 912.051 -0.871857 916.892 2.36314H916.703C918.262 2.57567 920.387 2.38676 922.064 2.76456C922.159 2.90625 922.064 3.02431 921.781 2.85902C922.749 3.37851 923.576 4.11052 924.355 4.84253C925.111 5.64538 925.843 6.42461 926.788 7.01495C926.788 7.01495 926.63 7.01495 926.315 7.01495C928.252 7.88863 929.149 10.2736 931.487 11.2889L931.44 11.5487C931.912 11.7848 932.361 12.0918 932.81 12.3515C932.574 12.5404 932.219 12.8474 931.7 12.1862C938.549 18.7035 945.138 25.9291 951.75 33.3437C958.339 40.7346 965.117 48.2908 972.486 55.1386L971.73 54.8553L974.989 57.0749C974.989 57.0749 974.682 57.0985 974.493 57.0277C975.343 57.9486 976.241 58.8223 977.186 59.6487C978.154 60.4516 979.193 61.1836 980.208 61.9392C981.224 62.6712 982.24 63.4032 983.255 64.1353C984.271 64.8437 985.31 65.5284 986.254 66.2604C986.16 66.3549 985.381 66.166 985.829 66.7091C989.183 68.1967 989.939 70.9595 992.395 70.5108C992.489 70.6761 992.395 71.0539 991.993 70.9595C1000.64 76.0127 1009.68 80.8298 1018.89 84.8913C1027.16 86.615 1035.66 90.771 1044.47 91.2904L1044.38 91.5738C1055.5 92.8253 1067.24 94.8796 1078.88 93.9587C1081.29 93.9115 1083.3 93.699 1085.3 93.3448C1087.29 92.9906 1089.32 92.8017 1091.68 92.3058L1091.87 92.66C1093.8 91.928 1095.86 91.5029 1097.94 91.1015C1099.99 90.6293 1102.12 90.2987 1104.27 89.9445C1108.49 89.0708 1112.84 88.1026 1116.52 85.8122L1116.15 86.4969C1117.11 85.3163 1121.08 84.9621 1120.07 83.8287L1121.6 83.6161C1123.89 81.6562 1126.35 80.8298 1128.95 79.7908C1130.25 79.2949 1131.61 78.8226 1132.98 78.1615C1134.33 77.4531 1135.7 76.5794 1137.09 75.446L1136.86 75.9655C1138.37 74.8556 1140.12 73.5097 1141.42 72.9666C1141.25 73.1319 1141.42 73.1555 1141.06 73.4625C1143.87 72.3999 1146.49 70.6525 1148.86 68.5509C1151.31 66.5674 1153.48 64.1825 1155.87 62.199L1155.73 63.1199C1156.18 62.4823 1156.81 61.8448 1157.52 61.1364C1158.21 60.4044 1159.01 59.6487 1159.81 58.8695C1161.47 57.3347 1163.24 55.7526 1164.39 54.1469L1164.44 54.5247L1165.48 52.7773L1165.95 53.1315C1167.75 51.2661 1169.21 49.2117 1170.63 47.181C1172.12 45.1975 1173.39 43.0723 1174.76 40.9707V40.8763Z" fill="white" fill-opacity="0.3"/>
<path d="M1880.03 53.7218L1879.67 54.1232C1882.13 54.4066 1883.92 56.4609 1886.26 57.2402L1886.03 57.3346C1891.34 60.3807 1896.89 62.1281 1902.75 63.5921C1902.63 63.6157 1902.56 63.7574 1902.44 63.781C1902.77 63.6866 1903.17 63.4741 1903.48 63.6157C1903.53 63.7574 1903.31 63.8282 1903.2 63.8519C1904.19 65.1034 1906.95 64.3005 1907.56 65.127C1907.94 65.127 1908.16 64.7728 1908.01 64.4658C1912.6 65.245 1917.67 65.2214 1922.04 63.7102C1922.28 63.8046 1922.37 64.0172 1922.35 64.3241C1925.92 62.1989 1929.69 61.3253 1933 59.1292C1932.91 58.7514 1932.46 59.0348 1932.53 58.5153C1931.32 58.8459 1931.18 60.546 1929.84 60.4988L1929.79 60.121C1928.96 60.2863 1930.07 60.9947 1929.1 60.9711C1928.68 60.853 1928.99 60.5224 1928.82 60.5696C1927.33 61.4433 1925.58 61.7739 1924.19 63.0018C1923.62 62.3642 1922.33 63.4268 1921.55 62.7893C1921.14 63.1671 1920.7 63.1671 1920.58 63.6866C1914.37 64.1588 1907.82 63.8991 1901.52 61.6086C1898.02 61.9864 1895.24 58.8223 1891.69 57.618C1891.69 57.5708 1891.72 57.4999 1891.77 57.4763C1890.51 57.2638 1888.84 56.6026 1887.61 55.7525H1886.22C1879.04 50.3451 1870.56 46.874 1863.43 41.4666C1859.32 38.5149 1855.8 35.3507 1852.44 32.163C1849.07 28.9988 1845.97 25.6693 1842.03 22.3871C1842.15 22.3163 1842.17 22.1982 1842.38 22.3635C1840.33 20.3328 1839.03 17.9242 1836.88 16.106L1837 16.0115C1834.16 13.9336 1831.54 11.4542 1828.43 9.58875C1825.36 7.65247 1821.74 6.63709 1818.39 6.70793C1810.34 5.45644 1801.38 7.69969 1793.33 9.75404L1793.28 9.47069C1790.07 10.4152 1786.77 10.8403 1783.51 10.8875C1780.22 11.0055 1777.01 10.7694 1773.8 10.5805C1773 10.368 1772.17 10.2027 1771.34 10.0374C1770.54 9.80127 1769.74 9.58876 1768.89 9.39986C1767.21 9.04565 1765.61 8.43171 1763.98 7.77054C1760.79 6.33013 1757.76 4.1105 1755.92 1.15885C1755.14 -0.942726 1753.44 -2.6901 1751.86 -4.62638C1750.28 -6.53905 1748.88 -8.64062 1748.81 -10.7894C1748.32 -15.0398 1747.44 -18.8888 1746.38 -22.8085C1745.34 -26.7047 1744.07 -30.6245 1743.24 -34.7568C1743.5 -38.6058 1743.22 -42.4311 1743.41 -46.2564C1743.55 -50.0818 1744.07 -53.9071 1745.77 -57.3074C1745.53 -61.0383 1749.03 -64.0608 1750.11 -67.7208H1749.71C1751.29 -68.5709 1749.43 -71.2392 1751.36 -71.3336V-71.1683C1752.45 -71.4753 1750.3 -73.5533 1751.41 -73.5533L1751.08 -73.8366C1751.36 -74.7103 1751.55 -73.7186 1752 -74.2853C1752.07 -74.545 1751.36 -74.7103 1751.84 -75.0881C1753.4 -74.4034 1752.57 -77.2133 1754.27 -76.3396C1754.03 -75.9146 1755.28 -76.6466 1755.12 -75.5132C1755.43 -75.6785 1756.04 -77.0244 1755.28 -77.3078C1754.6 -77.8509 1754.25 -78.7482 1753.21 -78.2759L1753.66 -77.8037C1752.97 -77.8509 1753.28 -77.7564 1752.8 -77.8745C1752.14 -76.8591 1751.27 -77.1425 1750.51 -76.5285C1750.51 -76.5285 1750.56 -76.5285 1750.58 -76.5049C1750.96 -75.6312 1750.18 -75.1118 1749.88 -74.7103H1749.48C1748.7 -74.7339 1750.16 -72.7977 1749.19 -73.695C1748.79 -72.5143 1748.29 -71.2628 1747.82 -69.9641C1747.33 -68.689 1746.81 -67.3666 1746.36 -66.0443C1746.66 -65.5248 1745.6 -64.0608 1746.69 -64.3205C1745.44 -64.0136 1744.63 -62.0773 1744.44 -61.3217C1744.35 -61.3689 1744.26 -61.4397 1744.33 -61.5342C1742.58 -60.448 1745.06 -59.5034 1743.1 -58.5589C1744.18 -58.063 1742.08 -56.1504 1743.33 -55.0642C1743.05 -54.9461 1742.82 -54.9461 1742.6 -55.0405C1742.06 -52.5612 1741.23 -49.8456 1740.93 -47.6968C1741.78 -45.7842 1740.05 -43.2576 1741.45 -41.6046C1741.04 -40.3295 1740.48 -38.1807 1741.07 -36.3861L1740.9 -36.5514C1741.04 -34.4971 1741.26 -31.9232 1742.32 -30.6009C1741.02 -29.8689 1741.4 -28.9952 1741.07 -28.0507C1741.87 -26.7519 1742.08 -23.9656 1743.1 -22.0529C1742.56 -21.6043 1743.71 -20.4236 1742.86 -20.1166C1745.86 -14.7801 1747.56 -7.95585 1749.88 -1.72196L1749.78 -1.76919C1750.66 -1.29693 1752.07 -1.08441 1753.09 -0.801048C1753.09 -0.682983 1752.95 -0.612144 1752.85 -0.753822C1753.61 0.0962524 1753.56 1.46582 1754.41 2.29228C1754.33 2.35525 1754.21 2.36311 1754.06 2.31589C1755.07 2.88261 1754.98 4.55914 1756.42 4.98418L1756.3 5.1967L1757.13 5.5509C1756.91 5.76341 1756.56 6.04678 1756.32 5.66897C1759.84 9.42346 1764.83 12.0918 1770.02 12.9891C1775.22 13.9808 1780.37 13.4849 1785.3 12.9418L1784.97 13.2724C1785.61 13.0363 1786.22 12.7765 1786.81 12.4932C1786.81 12.6349 1786.74 12.7293 1786.67 12.8238C1789.2 12.9654 1791.54 11.6431 1793.87 11.3125C1793.87 11.4542 1793.59 11.8084 1793.97 11.9028C1795.5 10.7458 1796.94 12.3751 1797.44 10.5333C1797.53 10.6041 1797.68 10.9583 1797.51 11.1236C1802.12 9.58875 1806.98 8.64423 1811.7 8.71507C1812.65 8.31364 1813.69 8.10111 1814.73 7.98305C1815.77 7.93582 1816.81 8.05389 1817.85 8.14834C1819.92 8.47893 1821.93 8.97481 1824.08 9.18732L1823.94 9.47069C1826.65 9.87212 1829.11 11.4306 1831.21 13.2724C1833.34 15.1379 1835.13 17.3575 1837.07 19.3882C1838.51 21.23 1839.81 22.2218 1841.32 24.04L1841.06 24.3234C1842.88 25.4096 1843.97 27.2278 1845.12 29.0224C1846.28 30.817 1847.6 32.6116 1849.68 33.4617L1849.11 33.627C1850.13 33.5089 1850.79 35.5633 1851.52 34.3826L1851.78 35.1855C1855.09 35.6341 1855.16 39.1761 1858.7 40.2859L1858.32 40.404C1859.22 40.7582 1860.21 41.1832 1860.59 41.8208C1860.47 41.8208 1860.47 41.9152 1860.24 41.8444C1861.87 44.5835 1865.39 45.1266 1867.96 46.7323L1867.35 47.0865C1868.98 47.2282 1870.96 49.1881 1872.8 49.8492L1872.57 50.0381L1873.63 50.1562L1873.37 50.6757C1875.54 51.9508 1877.86 52.6592 1880.03 53.769V53.7218Z" fill="white" fill-opacity="0.3"/>
<path d="M1815.13 53.8163C1815.13 55.115 1815.08 56.3429 1815.72 57.5472C1816.88 59.696 1820.28 59.696 1821.41 57.5472C1822.05 56.3429 1822 55.115 1822 53.8163C1822 52.0217 1820.42 50.2979 1818.55 50.3687C1816.69 50.4396 1815.11 51.88 1815.11 53.8163H1815.13Z" fill="white" fill-opacity="0.3"/>
</svg>
