<svg width="213" height="409" viewBox="0 0 213 409" fill="none" xmlns="http://www.w3.org/2000/svg">
<g clip-path="url(#clip0_15_555)">
<path d="M54.8498 103.316C54.7307 101.184 53.4471 98.9934 51.37 98.2912C49.3445 97.597 47.3229 98.6113 46.1817 100.336C46.114 100.431 46.0728 100.537 46.0051 100.632C45.3313 101.064 44.8116 101.647 44.4665 102.329C44.0192 103.008 43.7925 103.87 43.8669 104.82C43.8959 105.136 43.949 105.437 44.0136 105.725C44.3043 107.229 45.1968 108.626 46.6882 109.331C48.4059 110.143 50.1124 109.999 51.5348 109.256C52.343 108.902 52.9811 108.358 53.441 107.679C54.3898 106.495 54.9362 104.953 54.8498 103.316Z" fill="white" fill-opacity="0.3"/>
<path d="M124.203 91.5484C124.087 90.1435 123.156 88.8898 121.636 88.5574C119.803 88.1643 118.072 89.0117 116.935 90.3657C116.257 90.887 115.712 91.6129 115.413 92.5203C115.273 92.8009 115.148 93.1057 115.076 93.4311C114.547 95.7114 115.543 97.686 117.193 98.7335C118.112 99.4526 119.28 99.8174 120.634 99.5785C120.896 99.5288 121.146 99.4677 121.391 99.3687C121.455 99.3629 121.518 99.3571 121.579 99.326C125.076 98.2911 126.265 94.3053 124.215 91.5473L124.203 91.5484Z" fill="white" fill-opacity="0.3"/>
<path d="M107.848 120.594C103.203 125.229 96.8318 126.463 90.5142 126.749C84.4756 127.023 77.718 127.234 72.3277 124.158C70.2042 122.95 68.6097 126.399 70.7206 127.608C77.0233 131.188 85.2819 130.953 92.3057 130.449C99.2536 129.952 105.727 128.032 110.758 123.018C112.485 121.291 109.562 118.869 107.846 120.582L107.848 120.594Z" fill="white" fill-opacity="0.3"/>
<path d="M193.958 191.816C190.272 184.962 186.03 178.439 181.096 172.413C177.48 167.987 173.536 164.013 167.745 162.963C167.382 162.894 167.052 162.912 166.765 162.976C166.215 161.279 165.291 159.821 163.714 158.869C159.36 156.259 151.886 157.964 147.231 158.468C139.965 159.249 132.807 160.645 125.738 162.466C122.801 163.22 124.483 167.67 127.408 166.917C133.766 165.275 140.214 164.046 146.744 163.295C149.492 162.979 152.261 162.75 155.024 162.599C159.106 162.378 162.216 162.539 162.532 167.381C163.328 179.385 163.907 191.397 164.576 203.412C163.225 204.518 163.39 206.875 164.811 207.51C165.423 218.345 166.048 229.191 166.659 240.026C167.02 246.318 167.38 252.61 167.727 258.891C167.885 261.721 168.042 264.55 168.212 267.378C168.299 268.875 169.124 273.429 169.032 276.179C168.649 276.304 168.289 276.553 167.97 276.965L167.652 277.377C166.957 278.282 166.989 279.325 167.548 280.281C167.655 280.476 167.773 280.643 167.901 280.797L167.863 281.069C149.782 282.689 132.521 288.378 114.826 292.118C106.465 293.879 97.9731 295.181 89.4284 295.352C84.5703 295.441 79.7027 295.147 74.9139 294.324C70.2032 293.519 64.3789 293.211 62.9649 287.793C61.8436 283.484 61.8025 278.591 61.2185 274.168C60.5641 269.254 59.8706 264.331 59.1531 259.424C57.7988 250.213 56.3447 241.024 54.7769 231.845C52.0061 215.661 48.8713 199.536 45.4241 183.477C46.9092 182.308 46.1961 179.81 44.5338 179.325C44.4242 178.825 44.3273 178.323 44.2189 177.836C54.1557 177.843 64.0344 177.077 73.855 175.539C73.9561 175.53 74.0296 175.498 74.1283 175.463C79.8681 182.767 90.5082 183.219 99.0918 182.917C109.466 182.552 119.889 178.969 126.064 170.19C127.811 167.709 124.181 164.65 122.422 167.145C120.439 169.966 117.99 172.155 115.237 173.81C114.812 166.121 114.376 158.445 113.951 150.756C120.484 148.372 126.513 144.937 131.582 140.34C143.233 129.732 146.896 113.417 145.422 97.4837C145.422 97.4837 145.447 97.4814 145.46 97.4802C152.136 94.853 156.93 87.9478 155.858 80.5729C154.939 74.2935 149.959 72.6459 144.843 73.1151C140.579 62.5898 135.575 52.8974 126.771 45.3771C118.74 38.5129 108.923 34.1081 98.5136 32.5631C98.4734 27.4019 96.2421 22.5181 91.7165 19.2858C85.7727 15.0358 78.4393 14.8029 71.3593 15.3884C71.3672 15.1964 71.3498 15.0067 71.3324 14.817C71.5129 13.7292 71.2443 12.6061 70.3397 11.7708C69.004 10.5415 67.1711 10.5566 65.758 11.4003C63.7407 12.0444 62.0346 13.999 62.8244 16.2221C62.8268 16.2474 62.8406 16.2589 62.8555 16.283C55.84 17.0156 47.2386 17.9575 42.4794 23.291C37.9163 28.4025 40.0868 34.7074 42.9241 40.3645C33.7389 43.5534 27.7271 51.8967 23.8356 60.5811C18.7487 71.9258 16.4949 84.2987 16.7023 96.7009C15.0397 97.1849 13.4945 97.977 12.2243 99.2668C9.2856 102.227 8.66261 106.824 10.1832 110.625C11.8234 114.76 15.6585 117.545 19.8171 118.72C21.3599 119.152 25.3035 120.066 27.8537 119.399C33.8176 133.313 45.5916 144.464 60.8498 150.129C69.1056 153.198 78.5616 154.907 88.0965 154.976C89.0004 162.749 90.1431 170.487 91.5247 178.191C85.999 177.805 80.4607 176.311 77.4512 171.97C76.7912 171.023 75.8309 170.831 74.9881 171.086C74.5951 170.829 74.085 170.685 73.4707 170.792C62.759 172.476 51.9879 173.234 41.1333 173.082C39.9595 173.062 38.7411 174.5 39.0005 175.662C39.388 177.386 39.7513 179.126 40.1261 180.851C35.3244 183.638 31.4752 188.199 27.8611 192.268C23.8649 196.753 18.3016 203.321 17.8881 209.646C17.5423 214.766 24.9618 218.855 28.764 220.866C32.2594 222.726 35.9861 223.915 39.8135 224.533C39.7316 238.364 40.1838 252.185 41.232 265.977C41.7549 272.79 42.5545 279.565 43.2025 286.354C43.5712 290.235 43.2607 293.656 42.397 297.433C41.8329 299.895 41.2069 302.376 41.44 304.918C42.0686 311.772 50.2984 317.891 55.4962 311.089C61.2171 303.601 54.9473 293.018 48.3132 288.742C48.2592 288.708 48.2063 288.688 48.1523 288.654C48.0118 285.594 47.5152 282.541 47.2001 279.522C45.297 261.408 44.4424 243.199 44.517 224.981C45.8711 225.023 47.2344 225.026 48.5884 224.927C48.6641 224.92 48.7388 224.9 48.8146 224.893C51.5814 240.479 54.0485 256.13 56.1745 271.812C56.719 275.805 57.2394 279.812 57.746 283.809C58.108 286.645 58.1258 289.895 59.4719 292.488C61.9788 297.321 69.4195 298.169 74.1302 298.974C75.5408 299.214 76.972 299.402 78.3882 299.566C79.7086 322.438 81.7239 345.246 84.4465 367.99C84.6004 369.251 85.7142 370.284 87.013 370.139L103.318 368.325C103.511 372.376 103.805 376.417 104.188 380.45C98.6891 382.306 92.0108 386.438 90.5608 392.157C88.9127 398.634 96.4119 400.675 101.242 399.722C107.336 398.525 113.539 393.939 115.383 387.789C116.896 382.753 114.087 376.851 108.629 377.071C108.372 373.983 108.164 370.891 108.022 367.805L115.209 367.005C120.455 366.422 129.391 367.605 130.399 360.677C130.909 357.2 129.868 353.074 129.558 349.557C129.131 344.623 128.704 339.688 128.264 334.755C128.02 332.087 127.8 329.416 127.568 326.746C128.012 329.639 128.468 332.53 128.911 335.423C130.316 344.489 131.708 353.556 133.113 362.622C133.31 363.943 134.334 364.831 135.679 364.771C140.768 364.559 145.839 364.158 150.898 363.618C151.872 367.571 153.139 371.663 153.62 375.662C154.006 378.891 151.364 381.199 151.395 384.589C151.446 390.986 156.871 395.411 162.832 396.242C167.568 396.904 174.358 395.657 173.085 389.41C171.812 383.176 164.232 378.859 158.576 376.776C158.568 376.687 158.572 376.598 158.564 376.509C158.183 372.068 156.652 367.464 155.574 363.074C160.9 362.394 166.197 361.526 171.476 360.481C172.678 360.243 173.811 359.272 173.609 357.9C171.263 341.346 168.263 324.889 164.565 308.586C163.77 305.062 162.937 301.53 162.068 298.026C161.357 295.145 161.137 290.791 159.358 288.34C158.963 287.789 158.456 287.402 157.909 287.134C161.975 286.455 166.066 285.927 170.217 285.622C171.203 285.545 172.207 284.687 172.332 283.681C172.461 282.598 172.605 281.527 172.735 280.443C173.633 278.843 173.519 277.464 173.435 275.431C173.28 271.658 173.01 267.882 172.792 264.115C172.367 256.566 171.93 249.018 171.505 241.469C170.854 229.923 170.19 218.379 169.538 206.821C171.517 206.321 173.449 205.71 175.349 205.039C177.423 219.744 179.373 234.473 181.209 249.213C181.679 252.957 182.138 256.703 182.584 260.462C182.812 262.392 183.158 263.942 183.073 265.378C182.185 265.969 181.829 267.226 182.165 268.254C181.91 268.673 181.593 269.097 181.186 269.53C177.919 273.069 176.989 276.406 176.927 281.283C176.872 285.267 177.847 289.373 182.24 290.322C185.827 291.103 189.568 288.974 191.24 285.811C194.171 280.263 193.427 270.206 187.893 266.402C187.921 264.895 187.69 263.348 187.517 261.884C185.268 242.502 182.68 223.164 179.952 203.838C179.932 203.623 179.863 203.426 179.795 203.241C184.619 201.115 189.174 198.414 193.416 195.08C194.521 194.213 194.596 192.944 193.966 191.764L193.958 191.816ZM110.674 176.001C107.471 177.188 104.028 177.848 100.497 178.095C99.1806 178.19 97.7485 178.271 96.2739 178.304C96.2611 178.165 96.261 178.024 96.2333 177.861C94.8586 170.233 93.724 162.584 92.8271 154.887C98.4315 154.602 104.008 153.734 109.323 152.239C109.764 160.105 110.206 167.984 110.647 175.851C110.652 175.901 110.657 175.952 110.661 176.002L110.674 176.001ZM152.146 83.9867C151.598 88.0158 149.088 91.345 145.63 93.218C145.404 93.1239 145.159 93.0826 144.904 93.0805C144.102 87.8106 142.762 82.6411 140.981 77.8053C146.403 75.9562 153.179 76.3551 152.133 83.9879L152.146 83.9867ZM98.1576 36.4598C98.2862 36.4735 98.4264 36.4735 98.5653 36.4607C98.6158 36.4561 98.6664 36.4514 98.7157 36.4342C108.184 38.0016 117.023 42.0116 124.376 48.2877C132.503 55.2323 137.115 64.1317 141.072 73.8053C140.575 73.9401 140.066 74.0888 139.598 74.2593C138.593 71.9156 137.494 69.6571 136.306 67.5343C128.014 52.8129 114.316 42.2216 98.7567 37.2976C98.6278 37.0033 98.414 36.7551 98.1542 36.5622C98.1508 36.5242 98.1725 36.484 98.1817 36.4449L98.1576 36.4598ZM136.763 77.2356C134.411 79.0964 127.661 77.8662 125.17 77.6483C121.152 77.3154 117.085 76.5789 113.349 75.0086C108.01 72.7691 104.489 69.3809 102.213 64.9858C104.005 66.7472 106.183 68.1288 108.843 68.9433C116.172 71.2044 124.815 69.7486 132.28 69.0513C132.457 69.0351 132.606 68.9959 132.754 68.9441C134.285 71.6093 135.622 74.3816 136.775 77.2345L136.763 77.2356ZM119.094 52.5086C116.204 52.9394 113.277 53.3864 110.371 53.3723C105.337 53.3494 102.639 51.0207 100.279 46.8119C100.112 46.5211 99.9155 46.3224 99.7121 46.188C99.7889 44.6633 99.7887 43.133 99.7103 41.5844C106.748 44.0124 113.354 47.7043 119.095 52.5212L119.094 52.5086ZM99.0637 51.8969C100.891 54.3182 103.131 56.1022 106.431 56.8071C111.446 57.8775 116.909 56.5986 121.894 55.9502C122.184 55.9235 122.43 55.8245 122.635 55.7036C123.56 56.6136 124.462 57.5638 125.33 58.5554C127.235 60.7145 128.974 63.0036 130.556 65.3963C124.989 65.9451 119.179 66.6309 113.646 66.0288C106.466 65.2462 102.429 60.8086 100.165 54.1807C99.9196 53.4508 99.4024 53.0902 98.8338 53.002C98.9151 52.6375 99.0089 52.2718 99.0775 51.9084L99.0637 51.8969ZM50.4938 51.9258C40.2785 62.9118 32.5973 75.8334 27.7575 90.0121C29.7255 75.2169 36.3318 59.8815 47.0831 49.739C48.1645 50.5581 49.3011 51.2828 50.4823 51.9396L50.4938 51.9258ZM50.0198 47.1742C54.1492 43.8624 58.8178 41.2918 63.987 39.7337C64.1603 39.6796 64.3061 39.6024 64.4519 39.5253C64.7012 39.6045 64.9952 39.6158 65.3328 39.5465C74.6579 37.4671 84.3652 37.6099 93.5838 39.7869C84.3637 52.7349 62.8336 56.1886 50.0324 47.1731L50.0198 47.1742ZM54.113 53.6089C56.9543 54.7256 59.9754 55.4433 63.0755 55.7711C57.1532 62.7289 51.2308 69.6867 45.3096 76.6571C40.6757 82.1067 36.2272 88.1896 30.7657 92.9499C35.4776 78.2091 43.4489 64.8401 54.113 53.6089ZM47.0254 80.5041C53.8324 72.496 60.6404 64.5006 67.4474 56.4924C67.585 56.3268 67.6836 56.152 67.757 55.9794C70.3261 55.9351 72.8974 55.6356 75.4339 55.0969C70.7552 63.1139 65.6548 70.9782 59.7924 78.1728C53.9644 85.326 46.5826 91.3719 37.247 91.9475C40.695 88.29 43.8176 84.2798 47.0254 80.5041ZM60.6798 82.9885C68.2925 74.4602 74.4774 64.3921 80.156 54.4981C80.3085 54.2163 80.3864 53.9541 80.4011 53.6977C82.7329 52.8717 84.9704 51.8503 87.0722 50.5991C83.4613 58.3141 79.4218 65.8006 74.8446 72.9794C72.0048 77.4355 69.1611 81.2926 64.3097 83.6759C62.0424 84.7893 59.6681 85.7084 57.2432 86.4919C58.4401 85.3747 59.5945 84.2103 60.6798 82.9885ZM92.2351 48.4167C92.4987 47.8187 92.4488 47.2749 92.2164 46.8243C93.5947 45.6012 94.8603 44.2609 95.9891 42.8183C96.4655 58.0143 88.5116 71.573 75.6535 78.6057C82.2192 69.2169 87.5895 58.8792 92.2351 48.4167ZM46.3156 24.8394C50.8407 20.9811 58.4687 20.6769 64.0486 19.9867C70.5611 19.1854 77.5888 18.0308 84.0323 19.812C91.3788 21.8546 96.3795 28.4611 94.3913 36.0911C84.8671 33.7763 74.8072 33.5383 64.9585 35.7423C64.5589 35.8299 64.257 36.0107 63.9988 36.2511C63.6127 36.0697 63.1475 35.9976 62.6274 36.1601C57.433 37.7204 52.8044 40.1726 48.6956 43.2913C45.5908 37.6332 40.621 29.6976 46.3156 24.8394ZM18.4566 114.164C15.7829 112.79 13.4354 110.251 13.1615 107.126C12.6081 100.813 18.6816 99.8096 23.527 99.7223C23.6813 105.294 24.6715 110.674 26.4229 115.742C23.9149 116.176 20.3422 115.139 18.4693 114.163L18.4566 114.164ZM24.0722 90.248C23.8017 92.1602 23.6311 94.0505 23.5478 95.9201C22.5291 95.9243 21.4862 95.9434 20.4492 96.0257C20.313 84.956 22.2971 73.9469 26.5822 63.7215C30.1671 55.1672 35.6253 46.7599 44.7004 43.7597C45.0547 44.4286 45.4067 45.0722 45.7323 45.7055C33.367 56.7229 26.395 74.043 24.0584 90.2365L24.0722 90.248ZM72.4215 149.489C49.0764 144.82 27.9461 126.379 27.1198 101.255C27.1114 100.886 27.1157 100.515 27.1073 100.146C27.3071 100.103 27.5046 100.033 27.71 99.9126C29.9415 98.5475 31.9844 96.9318 33.9123 95.1737C34.248 95.5 34.6892 95.7273 35.2382 95.7407C40.2102 95.9224 44.7927 94.635 48.9598 92.4292C49.1401 92.4509 49.3308 92.4462 49.5432 92.4012C56.1595 90.9273 62.8858 89.1244 68.4241 85.4793C68.6412 85.4849 68.8697 85.4767 69.1051 85.4041C81.9499 81.5608 91.7211 72.2607 96.4942 60.5494C98.8388 68.8916 103.612 75.2384 112.362 78.6954C117.345 80.6615 122.672 81.3845 128.002 81.5843C131.032 81.7018 135.209 82.3773 138.104 80.8875C139.539 85.1429 140.565 89.525 141.151 93.973C142.749 106.26 141.626 120.825 134.462 131.327C121.572 150.236 93.0671 153.615 72.4215 149.489ZM52.7891 303.239C52.9769 305.148 52.5807 309.023 49.9578 309.314C47.7012 309.572 46.5008 306.762 46.1536 305.059C45.4603 301.667 47.0235 297.876 47.7657 294.301C50.3978 296.61 52.4334 299.637 52.788 303.227L52.7891 303.239ZM32.6234 217.528C28.224 215.534 21.2897 212.012 23.8504 206.319C25.9033 201.757 29.0881 197.868 32.4338 194.207C35.0854 191.312 37.8183 188.051 41.1262 185.784C43.5517 197.231 45.8141 208.705 47.902 220.22C42.6329 220.55 37.4364 219.726 32.6108 217.529L32.6234 217.528ZM84.6031 321.912C84.6031 321.912 84.6789 321.905 84.7294 321.901C88.379 321.553 92.0286 321.206 95.6656 320.86C98.2932 320.619 98.3111 320.12 98.9071 322.59C99.2759 324.112 99.2097 325.891 99.3524 327.446C99.7119 331.367 100.663 334.519 96.3755 336.519C93.3585 337.93 89.4597 338.339 86.0226 338.642C85.5111 333.064 85.0249 327.485 84.5893 321.901L84.6031 321.912ZM86.4954 343.38C89.8556 343.072 93.5832 342.603 96.9106 341.52C96.7334 345.005 96.5404 348.874 95.3718 352.106C94.2044 355.35 90.9064 355.92 87.8229 356.19C87.3551 351.923 86.9126 347.653 86.4954 343.38ZM111.073 385.519C110.852 386.725 110.365 387.803 109.624 388.751C108.9 389.889 108.125 390.738 107.123 391.62C104.331 394.095 100.681 395.973 97.2387 394.133C94.5592 392.696 95.2069 392.675 96.8395 390.752C97.817 389.604 98.9198 388.572 100.139 387.695C102.386 386.086 104.853 385.069 107.516 384.379C108.126 384.221 108.611 383.679 108.86 383.057C109.597 383.869 110.322 384.695 111.059 385.508L111.073 385.519ZM157.278 381.371C160.885 382.787 164.449 384.833 166.916 387.846C169.599 391.132 166.724 392.008 163.629 391.59C160.842 391.208 157.932 389.894 156.752 387.171C155.764 384.864 156.472 383.141 157.279 381.384L157.278 381.371ZM168.563 356.221C158.27 358.159 147.9 359.404 137.44 359.942C135.781 349.216 134.121 338.477 132.463 327.751C131.421 320.973 131.995 308.346 124.458 305.058C122.826 304.341 120.941 305.598 121.096 307.433C122.406 322.552 123.729 337.67 125.038 352.777C125.196 354.497 125.76 356.626 125.522 358.331C125.111 361.213 123.867 361.263 121.308 361.549C117.55 361.97 113.793 362.391 110.034 362.8C102.972 363.587 95.8984 364.377 88.837 365.164C88.668 363.739 88.5255 362.324 88.3566 360.898C92.0808 360.531 96.0022 359.674 98.4032 356.546C101.361 352.679 101.367 346.085 101.619 341.471C101.666 340.727 101.407 340.126 101.008 339.665C104.579 337.348 104.676 333.411 104.325 329.439C104.001 325.911 104.84 318.807 101.41 316.545C99.4311 315.247 96.5192 315.999 94.4107 316.205L84.3083 317.17C84.3083 317.17 84.2704 317.173 84.2577 317.175C83.8334 311.436 83.447 305.695 83.1123 299.961C94.4543 300.566 105.88 298.894 116.945 296.476C129.283 293.776 141.429 290.226 153.811 287.867C153.343 288.458 153.113 289.282 153.298 290.324C153.539 291.705 154.681 292.352 155.791 292.365C155.952 293.014 156.125 293.648 156.286 294.297C156.587 295.493 156.889 296.703 157.19 297.899C157.858 300.605 158.514 303.313 159.145 306.022C159.19 306.235 159.236 306.46 159.295 306.684C154.339 307.929 148.052 309.526 144.212 312.658C143.11 313.563 142.545 314.762 142.575 316.201C142.604 317.486 142.89 318.378 142.705 319.696C142.54 320.82 142.299 321.799 142.557 322.949C143.016 325.036 144.759 326.815 146.773 328.224C147.598 333.607 147.521 341.38 151.857 345.178C156.179 348.965 162.017 347.894 167.055 346.437C167.583 349.692 168.086 352.961 168.563 356.221ZM166.279 341.726C166.279 341.726 166.216 341.732 166.19 341.734C162.359 342.876 156.267 344.647 153.9 340.094C152.586 337.575 152.211 334.179 151.858 331.023C156.011 332.835 160.416 332.941 164.266 330.471C164.965 334.208 165.628 337.96 166.265 341.715L166.279 341.726ZM160.318 311.309C161.292 315.683 162.241 320.06 163.115 324.456C163.212 324.957 163.309 325.458 163.406 325.959C162.931 325.914 162.406 326.025 161.903 326.378C158.548 328.688 154.857 327.47 151.674 325.543C148.438 323.595 147.459 322.499 147.622 318.722C147.696 317.032 147.106 316.984 148.394 315.756C149.296 314.896 151.243 314.449 152.433 313.958C155.012 312.905 157.658 312.037 160.342 311.294L160.318 311.309ZM187.905 280.557C187.618 282.573 185.77 287.282 182.691 285.524C180.877 284.492 181.53 279.662 181.805 278.081C182.384 274.674 184.553 273.595 186.29 271.281C188.15 273.648 188.273 278.049 187.905 280.557ZM169.226 202.029C169.11 200.076 169.007 198.121 168.893 196.181C168.468 188.632 168.031 181.084 167.606 173.535C167.515 171.847 167.582 169.801 167.497 167.755C173.266 169.126 177.051 174.709 180.409 179.235C183.548 183.461 186.364 187.909 188.937 192.493C182.945 196.882 176.362 200.112 169.226 202.029Z" fill="white" fill-opacity="0.3"/>
<path d="M104.789 224.619C104.405 221.963 104.181 217.852 101.305 216.636C98.9717 215.639 95.2149 216.902 92.1884 217.932C91.9913 215.782 91.7941 213.632 91.5855 211.496C93.6764 210.96 95.7538 210.693 97.9658 210.643C101.017 210.58 100.557 205.84 97.532 205.913C94.2772 205.982 91.3077 206.522 88.2157 207.533C87.2386 207.852 86.6022 208.969 86.6938 209.968C87.0406 213.749 87.4 217.529 87.7594 221.309C87.9136 222.991 89.4808 223.689 90.9494 223.312C92.6557 222.888 96.2352 221.221 97.9215 221.551C100.426 222.048 100.077 224.771 100.295 226.74C100.624 229.771 100.081 229.54 97.1975 230.047C94.9284 230.446 92.6085 230.569 90.3128 230.678C87.2671 230.804 87.7134 235.533 90.7465 235.408C94.3894 235.265 99.892 235.398 103.137 233.417C106.13 231.599 105.219 227.5 104.789 224.619Z" fill="white" fill-opacity="0.3"/>
<path d="M122.451 228.853C120.365 229.172 117.627 229.04 115.651 229.719C115.251 229.666 114.931 229.645 114.676 229.642C114.663 229.503 114.649 229.352 114.649 229.211C115.104 226.81 114.366 224.455 116.228 222.397C117.523 220.964 119.559 220.523 120.941 219.197C124.983 215.345 123.699 209.545 122.146 204.829C121.813 203.839 120.723 203.212 119.713 203.305C115.251 203.689 110.791 204.085 106.317 204.47C105.028 204.588 104.092 205.77 104.184 207.05C104.364 209.571 104.898 211.639 106.023 213.908C107.354 216.617 111.803 214.985 110.456 212.239C109.909 211.142 109.533 210.092 109.279 208.993C112.287 208.73 115.282 208.468 118.29 208.205C118.827 209.903 119.234 211.702 118.79 213.388C118.044 216.224 115.527 216.697 113.514 218.501C110.877 220.86 110.069 224.275 109.95 227.704C109.883 229.75 109.649 232.616 111.531 233.961C114.326 235.962 119.861 234.09 122.888 233.621C125.878 233.168 125.468 228.423 122.454 228.891L122.451 228.853Z" fill="white" fill-opacity="0.3"/>
<path d="M136.48 209.865C133.161 196.18 120.597 187.385 106.862 187.777C106.292 187.256 105.489 186.972 104.558 187.236C91.729 190.836 78.9572 198.116 74.4383 211.487C70.4715 223.239 75.2413 234.968 85.4998 241.538C91.3329 245.276 98.1795 247.007 104.999 247.746C111.703 248.483 118.165 248.375 123.527 243.79C133.24 235.515 139.593 222.703 136.479 209.853L136.48 209.865ZM132.623 216.57C132.732 223.727 129.397 230.142 124.934 235.512C122.766 238.121 120.291 241 117.118 242.375C113.16 244.09 108.335 243.423 104.22 242.869C91.273 241.149 76.138 233.355 77.808 217.95C79.3515 203.665 92.3915 195.838 104.886 192.065C105.284 192.373 105.798 192.568 106.445 192.534C120.347 191.744 132.404 202.371 132.636 216.569L132.623 216.57Z" fill="white" fill-opacity="0.3"/>
</g>
<defs>
<clipPath id="clip0_15_555">
<rect width="177.343" height="393" fill="white" transform="translate(0.106934 17) rotate(-5.23965)"/>
</clipPath>
</defs>
</svg>
