<svg width="265" height="416" viewBox="0 0 265 416" fill="none" xmlns="http://www.w3.org/2000/svg">
<g clip-path="url(#clip0_22_1874)">
<path d="M242.291 91.6358C243.663 78.2852 244.808 63.978 242.634 50.6473C241.009 40.6922 236.361 30.5085 227.418 25.1598C219.648 20.5267 209.524 20.7737 202.608 26.7659C201.867 25.9884 201.079 25.3604 200.216 25.0194C196.566 23.5195 192.81 28.0938 190.538 30.3629C190.395 30.501 190.292 30.658 190.189 30.8149C176.896 18.8683 159.333 11.7877 140.914 11.9894C140.462 11.9926 140.094 12.1185 139.76 12.3187C139.384 12.035 138.897 11.851 138.298 11.9073C130.086 12.5904 122.62 15.3337 115.962 19.4825C114.332 16.6561 112.397 12.5821 108.691 13.2454C107.941 13.3826 107.2 13.676 106.448 14.0667C102.213 6.86211 93.7915 3.80093 85.7445 6.08146C75.754 8.92252 69.5497 17.9854 65.8191 27.1419C55.9435 51.3422 53.8783 78.7573 54.7909 104.62C54.8843 107.308 59.0271 106.654 58.9321 103.98C58.198 83.0834 59.7516 61.8217 65.4003 41.6331C68.0045 32.3301 71.1121 21.7479 78.4401 15.015C85.2777 8.73177 97.4596 6.5851 102.804 16.0053C102.897 16.1713 103.02 16.3266 103.133 16.4525C102.832 16.7272 102.532 17.0018 102.231 17.2764C102.14 17.2094 102.035 17.1407 101.915 17.0843C81.7462 7.66849 69.9888 33.4651 66.8532 48.8487C62.2579 71.4859 66.2005 95.3522 57.7232 117.265C56.7493 119.786 60.6307 121.355 61.603 118.849C68.4393 101.167 67.5323 82.2223 69.0802 63.651C69.8905 53.9962 71.4011 44.2688 75.3717 35.3519C79.4774 26.1269 88.2887 16.3842 99.1178 20.461C98.3898 21.249 97.6963 21.9847 97.0887 22.5896C96.6572 23.0179 96.1978 23.4429 95.7212 23.8941C95.6794 23.8892 95.6409 23.8565 95.5869 23.836C79.1064 18.7144 74.7469 48.5931 73.2643 58.8029C70.2011 80.0562 73.4052 100.116 77.9211 120.908C78.4887 123.525 82.6267 122.912 82.0623 120.267C78.5374 104.016 75.0231 87.5552 76.1571 70.8232C76.6593 63.4289 77.7177 55.9872 79.2069 48.723C80.2906 43.4681 84.3089 27.5402 92.0732 27.4244C90.3619 29.2522 88.8865 31.2344 88.2491 33.4138C88.1025 33.5798 87.9666 33.7751 87.8676 34.0171C84.6943 41.4356 83.6205 49.3686 82.3796 57.282C81.0357 65.8314 79.3945 74.3881 78.4823 82.9882C76.8155 98.4881 80.6168 113.349 85.4648 127.952C86.3085 130.503 90.1479 128.826 89.3043 126.276C86.2092 116.937 83.6497 107.604 82.7129 98.0401C86.8131 112.64 96.4852 125.598 110.323 134.34C132.312 148.211 165.716 153.603 189.106 139.938C214.299 125.232 218.847 88.1049 210.784 62.5424C210.753 62.4402 210.721 62.3519 210.689 62.2637C213.186 61.0778 216.135 59.7759 216.844 57.2246C218.9 61.3549 216.486 75.6399 216.285 78.1946C215.714 85.2145 215.359 92.3162 214.245 99.2723C211.963 113.516 206.462 127.523 202.273 141.303C201.492 143.86 205.37 145.457 206.153 142.886C211.357 125.759 217.853 108.686 219.437 90.7668C220.245 81.7317 220.972 72.6729 221.682 63.6264C222.057 58.88 222.243 52.2516 215.924 51.9596C215.869 51.9531 215.825 51.9621 215.782 51.971C215.104 50.6515 214.297 49.345 213.704 48.148C213.236 47.2054 212.782 46.2644 212.312 45.3356C224.128 41.8637 224.598 60.5595 224.172 67.6669C223.675 76.2173 222.355 84.6849 220.345 93.0151C216.209 110.183 212.109 127.045 210.18 144.656C209.892 147.342 214.042 147.829 214.33 145.144C215.58 133.667 217.471 122.265 220.078 111.018C222.626 100.032 225.922 89.2888 227.381 78.076C228.537 69.2086 230.264 57.999 226.415 49.5437C223.601 43.3376 216.987 39.5589 210.425 41.5772C209.9 40.5152 209.388 39.4687 208.863 38.4066C208.475 37.6283 208.066 36.6644 207.597 35.6089C217.015 32.1089 226.79 37.9498 228.779 47.694C230.874 57.9722 228.968 69.7384 227.744 80.0348C225.162 101.753 220.618 123.241 220.059 145.169C219.985 147.838 224.145 148.355 224.208 145.657C224.907 118.335 231.864 91.7063 233.33 64.4603C233.83 55.1636 234.718 43.8836 227.785 36.5732C222.133 30.6111 213.379 28.9339 205.827 31.808C205.564 31.284 205.287 30.7583 204.994 30.2448C212.917 23.2578 224.267 26.0292 230.807 33.5611C238.055 41.9229 239.306 53.4967 239.411 64.1326C239.633 86.7443 236.547 109.39 230.678 131.215C229.979 133.796 233.857 135.393 234.558 132.798C238.191 119.305 240.833 105.596 242.256 91.6881L242.291 91.6358ZM195.273 41.9658C189.108 41.3256 182.769 39.4109 178.102 35.2695C174.319 31.9081 172.056 27.2602 170.18 22.5592C179.895 26.9842 188.577 33.5984 195.273 41.9658ZM197.597 46.339C197.892 46.3456 198.165 46.3072 198.401 46.2222C199.302 47.568 200.159 48.9227 200.966 50.342C202.251 52.6207 203.399 54.9818 204.43 57.3854C193.993 57.7788 182.212 56.6334 175.891 47.352C172.545 42.4358 170.738 36.5454 169.336 30.5757C170.976 33.5582 172.98 36.3299 175.58 38.5939C181.536 43.7746 189.891 45.9545 197.6 46.3112L197.597 46.339ZM161.083 19.1227C161.6 19.2822 162.117 19.4556 162.633 19.629C162.628 19.6707 162.637 19.714 162.644 19.7712C165.284 30.7051 166.855 43.6408 174.504 52.4302C182.176 61.2646 195.032 62.0292 206.021 61.5035C207.27 65.046 208.253 68.698 208.947 72.4006C194.983 71.4494 178.412 68.3037 167.907 58.5868C156.943 48.4497 158.963 32.47 161.081 19.1366L161.083 19.1227ZM155.493 17.6765C142.645 42.3024 116.818 58.4421 89.1535 59.5859C91.2348 54.2511 93.9272 49.0022 97.1423 44.1107C97.2258 44.1205 97.3094 44.1303 97.4068 44.1418C118.853 44.7327 136.531 32.3409 150.121 16.7773C151.914 17.0163 153.716 17.2986 155.493 17.6765ZM154.571 27.3182C153.131 40.8863 145.31 53.0138 132.975 59.468C118.954 66.8089 101.858 69.0824 86.1717 68.8586C86.6126 67.1492 87.1126 65.4186 87.6805 63.7101C87.8722 63.7608 88.0671 63.7837 88.2932 63.7821C114.873 63.2153 139.813 49.0988 154.587 27.3059L154.571 27.3182ZM138.954 16.0563C139.153 16.0375 139.329 15.9877 139.504 15.9378C139.756 16.0801 140.071 16.1595 140.452 16.162C141.965 16.1426 143.483 16.1943 144.997 16.2877C133.173 29.1987 118.034 39.6909 100.068 40.0023C109.744 27.1065 123.24 17.3792 138.966 16.0718L138.954 16.0563ZM94.0168 31.908C95.6574 29.2407 98.7414 26.7853 100.984 24.6396C102.813 22.8961 104.764 20.5894 106.921 19.2931C110.049 17.4206 111.06 19.2725 112.54 21.8135C105.516 26.9195 99.5061 33.61 94.5848 41.0062C92.5952 38.2362 91.8194 35.4679 94.0184 31.8941L94.0168 31.908ZM92.2065 44.7844C90.2573 48.0354 88.5489 51.3992 87.0199 54.7982C87.7212 50.2734 88.4766 45.769 89.7391 41.3946C90.4595 42.5924 91.3273 43.737 92.2065 44.7844ZM209.652 76.6117C210.317 81.7622 210.465 86.9927 210.053 92.1716C208.976 105.782 204.435 121.226 194.29 130.911C176.033 148.349 144.435 145.48 123.051 136.315C98.8721 125.949 80.2329 101.243 85.0765 73.9711C85.128 73.6531 85.209 73.3245 85.2605 73.0065C102.8 73.3213 122.447 70.8406 137.697 61.5729C145.83 56.6396 151.956 49.2019 155.52 40.6177C156.174 47.9084 158.466 54.8282 163.907 60.4273C175.125 72.0033 194.219 75.671 209.654 76.5978L209.652 76.6117ZM205.964 41.8136C207.423 44.7749 208.868 47.7345 210.327 50.6957C210.827 51.7267 212.571 53.9465 212.515 55.1376C212.436 56.8896 210.804 57.6839 209.315 58.3402C205.675 48.9513 200.123 40.5775 193.177 33.6178C195.64 31.1599 197.727 28.4183 200.546 31.4549C202.952 34.0484 204.415 38.6586 205.964 41.8136Z" fill="white" fill-opacity="0.3"/>
<path d="M114.553 82.5086C114.911 80.1837 114.023 77.5291 111.937 76.2976C109.905 75.0865 107.488 75.7181 105.86 77.3161C105.765 77.4036 105.696 77.5082 105.601 77.5957C104.774 77.9071 104.079 78.4171 103.55 79.0735C102.911 79.7029 102.469 80.5808 102.332 81.6215C102.292 81.9689 102.28 82.3057 102.284 82.6303C102.255 84.3176 102.901 86.028 104.353 87.1286C106.025 88.396 107.904 88.6309 109.611 88.1553C110.566 87.9576 111.381 87.5179 112.033 86.8901C113.329 85.8308 114.273 84.2932 114.553 82.5086Z" fill="white" fill-opacity="0.3"/>
<path d="M192.239 85.6674C192.434 84.1264 191.714 82.5624 190.145 81.8567C188.254 81.0143 186.188 81.5323 184.649 82.7322C183.797 83.1392 183.042 83.7972 182.511 84.707C182.296 84.9776 182.091 85.2776 181.939 85.612C180.845 87.9491 181.472 90.3052 183.017 91.8113C183.847 92.7966 185.026 93.4565 186.545 93.5082C186.841 93.5148 187.124 93.5058 187.412 93.4552C187.482 93.4634 187.552 93.4715 187.625 93.4519C191.643 93.1353 193.852 89.1118 192.252 85.669L192.239 85.6674Z" fill="white" fill-opacity="0.3"/>
<path d="M167.905 113.24C161.824 117.175 154.653 117.05 147.755 115.916C141.163 114.831 133.807 113.515 128.68 108.967C126.66 107.18 124.148 110.534 126.154 112.319C132.153 117.618 141.137 119.252 148.848 120.313C156.475 121.365 163.914 120.774 170.499 116.518C172.761 115.051 170.153 111.772 167.907 113.226L167.905 113.24Z" fill="white" fill-opacity="0.3"/>
<path d="M227.631 260.89C227.819 257.488 227.673 254.047 227.284 250.507C225.496 233.897 223.195 217.324 221.135 200.738C221.114 200.553 221.064 200.378 221.013 200.217C222.607 197.586 224.023 194.907 224.933 192.21C226.598 187.291 224.223 183.842 221.467 179.897C214.871 170.442 207.081 160.805 195.578 157.536C194.836 156.885 193.769 156.591 192.872 156.894C182.215 154.838 171.246 157.959 160.456 158.832C160.896 154.854 161.568 150.932 162.478 147.037C163.244 143.76 158.047 143.177 157.284 146.426C156.314 150.596 155.608 154.796 155.166 159.041C154.967 159.046 154.783 159.053 154.586 159.044C147.768 158.918 141.051 157.931 134.423 156.434C134.424 156.42 134.426 156.406 134.429 156.378L135.896 143.898C136.29 140.549 131.096 139.938 130.702 143.287L129.305 155.17C121.735 153.153 114.303 150.56 107.019 147.914C106.274 147.644 105.59 147.704 104.997 147.944C102.324 143.897 94.9851 143.879 90.5662 144.36C80.9273 145.411 71.0831 147.367 63.9017 154.413C56.2717 161.914 53.6317 172.241 55.5146 181.804C46.6417 193.272 38.7862 205.452 32.0786 218.316C29.0342 224.158 26.2413 230.142 23.6909 236.224C22.9154 236.697 22.6109 237.605 22.7308 238.507C22.6932 238.587 22.6555 238.667 22.6301 238.763C20.187 244.773 16.2912 252.093 16.4998 258.725C16.6322 262.883 19.3071 267.27 23.7763 267.682C28.7484 268.14 32.5232 264.132 34.0626 259.804C36.6953 252.42 37.4242 239.375 29.2126 236.451C30.2349 234.119 31.2957 231.821 32.3549 229.536C39.2381 214.818 47.6876 200.947 57.4169 187.959C59.4851 192.824 62.8489 197.235 67.4067 200.616C68.4194 201.37 69.6112 201.439 70.6914 200.777C75.777 197.627 80.8627 194.477 85.9344 191.326C69.2183 225.317 48.6034 259.808 53.1357 299.074C53.2343 299.916 53.7744 300.966 54.6583 301.253C62.0171 303.626 69.4234 305.835 76.8771 307.881C74.7629 323.103 73.5801 338.448 73.4531 353.819C73.3955 360.674 75.7541 371.955 71.5652 377.324C68.3409 381.454 62.6135 385.979 62.0403 391.576C61.6483 395.39 64.4374 397.846 68.1112 398.179C72.5943 398.593 77.028 395.705 79.9028 392.506C84.5938 387.309 87.2903 374.34 79.1241 372.591C79.1463 370.24 78.8039 367.749 78.7418 365.755C78.2525 346.859 79.4014 327.959 81.9691 309.24C110.325 316.744 139.327 321.873 168.563 324.168C167.908 338.392 166.262 352.514 164.322 366.615C163.36 373.589 162.218 380.542 161.355 387.527C160.724 392.652 160.551 398.084 163.375 402.643C167.303 408.981 177.953 411.106 181.28 402.86C184.646 394.52 173.958 385.641 167.211 381.904C167.603 379.892 167.996 377.994 168.216 376.358C170.663 359.146 172.971 341.918 173.757 324.539C180.124 324.907 186.541 324.957 192.855 323.967C198.034 323.152 207.059 321.917 210.053 316.985C211.839 314.039 210.975 309.739 210.888 306.516C210.738 301.187 210.588 295.857 210.438 290.528C210.167 280.943 210.025 271.346 209.483 261.785C208.461 243.462 204.844 225.833 197.46 209.142C202.106 210.449 206.814 211.355 211.689 211.801C212.973 211.924 213.936 211.417 214.588 210.311C215.224 209.23 215.902 208.14 216.612 207.026C218.117 219.207 219.637 231.376 221.141 243.557C221.951 250.12 223.185 256.915 222.268 263.514C221.52 268.921 218.381 274.244 219.42 279.819C221.064 288.649 230.265 288.082 233.646 280.815C236.877 273.868 235.995 262.634 227.594 260.843L227.631 260.89ZM29.864 255.168C29.2122 258.431 28.035 263.04 23.9939 261.509C20.237 260.081 21.9476 256.097 22.8829 253.065C24.1152 249.068 25.5826 245.112 27.1983 241.216C32.3222 242.424 30.6098 251.466 29.8624 255.182L29.864 255.168ZM178.092 162.173C182.013 161.718 185.982 161.466 189.869 161.909C186.686 169.045 182.501 176.668 174.827 179.134C166.668 181.767 142.788 177.382 146.405 165.113C146.545 164.636 146.511 164.209 146.4 163.83C157.091 164.763 167.27 163.437 178.092 162.173ZM105.686 153.126C117.318 157.339 129.134 161.307 141.39 163.213C141.418 163.216 141.446 163.219 141.474 163.223C141.436 163.303 141.385 163.381 141.345 163.475C137.783 172.158 129.365 178.678 119.627 176.73C108.675 174.541 105.516 164.547 105.087 154.619C105.073 154.378 105.042 154.163 104.981 153.959C105.263 153.724 105.506 153.457 105.688 153.112L105.686 153.126ZM78.0224 377.759C81.8299 378.756 77.809 386.779 76.919 387.985C75.7122 389.604 73.9885 391.177 72.1744 392.077C68.0681 394.102 67.7004 391.706 69.3989 388.186C70.0889 386.759 71.3917 385.405 72.3808 384.197C74.1248 382.091 76.6585 380.233 78.0207 377.773L78.0224 377.759ZM175.407 402.254C173.37 404.213 170.016 402.72 168.494 400.892C165.686 397.519 165.634 392.44 166.296 387.404C169.169 389.15 171.679 391.333 173.725 394.11C175.162 396.054 178.063 399.72 175.406 402.268L175.407 402.254ZM219.308 191.661C216.88 196.702 213.675 201.51 210.778 206.34C204.899 205.663 199.22 204.376 193.629 202.338C191.707 201.633 188.793 203.361 189.945 205.695C199.481 224.85 203.419 245.039 204.35 266.297C204.84 277.386 205.032 288.483 205.337 299.579C205.479 304.852 207.565 312.931 202.46 315.881C198.401 318.222 192.663 318.759 188.083 319.165C177.869 320.063 167.507 318.859 157.343 317.777C146.134 316.572 134.969 314.992 123.876 313.04C101.676 309.134 79.7688 303.698 58.3101 296.85C54.4023 256.235 78.2679 220.632 94.7641 185.389C95.9502 182.866 93.0359 180.635 90.8116 182.022C83.6557 186.45 76.4998 190.879 69.3561 195.322C59.5602 186.901 56.9746 172.507 64.8083 161.593C69.1984 155.473 75.8248 152.307 83.0521 150.874C85.7403 150.344 100.836 146.948 100.681 152.354C100.67 152.564 100.691 152.75 100.727 152.923C100.12 153.401 99.6941 154.14 99.7469 155.133C100.279 167.538 105.331 179.446 118.692 182.045C127.719 183.797 136.212 179.878 141.772 173.177C146.062 181.599 160.615 185.1 168.955 185.249C182.82 185.484 190.128 174.353 195.241 163.048C195.961 163.288 196.693 163.543 197.405 163.852C203.022 166.273 207.522 170.621 211.365 175.285C214.577 179.185 221.853 186.465 219.348 191.68L219.308 191.661ZM229.062 278.261C227.204 282.298 225.069 281.004 224.528 277.08C224.244 275.046 225.344 272.78 225.908 270.86C226.371 269.322 226.707 267.784 226.986 266.252C231.163 267.955 230.805 274.479 229.063 278.247L229.062 278.261Z" fill="white" fill-opacity="0.3"/>
<path d="M143.604 195.301C143.678 193.591 142.861 192.016 141.551 191.03C141.496 190.658 141.356 190.289 141.113 189.95C140.352 188.86 138.468 188.315 137.379 189.286C135.522 190.913 134.43 192.997 134.404 195.502C134.391 196.811 134.729 198.02 135.819 198.838C136.793 199.559 138.011 199.885 139.224 199.774C141.565 199.556 143.506 197.699 143.616 195.317L143.604 195.301Z" fill="white" fill-opacity="0.3"/>
<path d="M143.565 214.008C143.45 212.825 142.536 211.83 141.363 211.607C140.631 211.465 139.884 211.335 139.152 211.192C138.102 209.801 135.666 209.627 134.704 211.205C134.334 211.471 134.025 211.815 133.807 212.227C133.116 213.54 133.131 214.979 133.648 216.223C133.534 216.957 133.418 217.704 133.345 218.442C133.107 220.95 135.649 222.503 137.902 222.43C142.353 222.277 143.946 217.857 143.563 214.022L143.565 214.008Z" fill="white" fill-opacity="0.3"/>
<path d="M139.094 237.265C138.874 236.38 137.895 235.701 137.052 235.546C136.209 235.39 135.35 235.247 134.507 235.092C133.304 234.88 132.198 235.525 131.668 236.547C129.804 237.512 128.51 239.276 128.423 241.45C128.354 243.005 129.011 244.139 130.444 244.801C131.327 245.215 132.368 245.365 133.338 245.282C135.079 245.12 136.801 244.167 137.919 242.819C139.267 241.203 139.605 239.284 139.108 237.267L139.094 237.265Z" fill="white" fill-opacity="0.3"/>
<path d="M136.072 262.976C135.512 260.895 133.779 259.184 131.627 258.875C130.434 258.692 129.276 259.303 128.757 260.355C127.24 261.726 126.663 264.11 127.386 266.013C128.269 268.343 130.907 269.681 133.301 269.131C135.97 268.529 136.702 265.304 136.072 262.976Z" fill="white" fill-opacity="0.3"/>
<path d="M133.124 290.217C132.923 287.361 130.593 285.086 127.858 284.568C126.74 284.352 125.423 284.986 124.958 286.058C124.823 286.366 124.716 286.678 124.609 286.989C123.153 288.086 122.393 290.11 122.665 291.875C123.065 294.599 125.538 296.496 128.288 296.045C131.093 295.6 133.332 293.129 133.124 290.217Z" fill="white" fill-opacity="0.3"/>
<path d="M102.859 231.456C98.2724 247.655 86.7761 262.704 68.7774 263.533C65.3282 263.691 65.814 269.046 69.2771 268.889C89.788 267.947 102.94 250.824 108.157 232.388C109.098 229.061 103.799 228.142 102.875 231.443L102.859 231.456Z" fill="white" fill-opacity="0.3"/>
<path d="M194.484 280.692C175.067 276.408 172.082 253.641 170.539 237.228C170.21 233.78 164.859 234.264 165.186 237.726C166.973 256.873 171.423 281.109 193.536 285.991C196.907 286.739 197.855 281.44 194.484 280.692Z" fill="white" fill-opacity="0.3"/>
</g>
<defs>
<clipPath id="clip0_22_1874">
<rect width="219.376" height="393" fill="white" transform="translate(46.7178) rotate(6.70484)"/>
</clipPath>
</defs>
</svg>
