<svg width="234" height="413" viewBox="0 0 234 413" fill="none" xmlns="http://www.w3.org/2000/svg">
<g opacity="0.3" clip-path="url(#clip0_22_1865)">
<path d="M169.434 62.4355C166.294 54.1971 153.92 57.8685 148.161 61.0011C147.988 60.6288 147.828 60.2551 147.657 59.8957C154.107 56.7503 160.24 52.9879 165.911 48.3766C166.652 47.7704 166.768 46.9475 166.519 46.2444C166.772 45.2493 166.365 43.9632 165.095 43.5845C155.556 40.7972 145.936 38.3196 136.241 36.1115C135.505 25.5511 132.7 15.5378 121.618 11.8019C110.239 7.98207 96.8217 11.0924 85.4828 13.4061C78.3067 14.8704 71.1942 16.6671 64.1857 18.8047C57.7329 20.7749 50.5188 22.5962 45.0104 26.6798C35.849 33.462 34.2852 45.6277 33.4322 56.2243C33.1699 56.2147 32.8861 56.2468 32.5868 56.3721C22.4584 60.4949 15.7061 69.2901 6.738 75.2407C2.25394 78.216 23.2019 81.398 30.2777 81.473C30.2016 82.1868 30.1528 82.9106 30.1155 83.6201C22.9053 82.2412 12.5522 86.5722 13.9262 95.2584C15.3525 104.291 25.7875 105.423 33.1139 105.287C38.8082 121.451 51.9621 134.382 69.3116 140.4C78.0401 143.422 88.0115 144.959 98.0197 144.742C98.2268 145.071 98.5068 145.353 98.867 145.534C98.8957 145.557 98.9359 145.565 98.9631 145.575C99.1009 145.638 99.25 145.687 99.4106 145.721C99.4637 145.728 99.5182 145.748 99.5713 145.755C99.7835 145.783 99.9942 145.798 100.226 145.772C100.446 145.747 100.636 145.7 100.812 145.641C100.864 145.635 100.9 145.605 100.95 145.586C101.087 145.531 101.211 145.465 101.319 145.387C101.357 145.37 101.38 145.341 101.415 145.311C101.536 145.219 101.63 145.13 101.722 145.015C101.733 145.001 101.757 144.985 101.767 144.958C101.87 144.829 101.959 144.688 102.035 144.549C116.772 143.523 131.236 138.583 141.525 128.827C154.444 116.579 157.231 97.4312 154.009 79.6815C154.048 79.6771 154.099 79.6713 154.138 79.6669C160.234 77.7762 172.551 70.598 169.461 62.4455L169.434 62.4355ZM18.2443 96.2459C14.9341 89.2675 25.115 86.4187 30.024 87.5483C30.0689 92.3362 30.7257 96.9896 31.9196 101.426C27.043 101.507 20.5932 101.191 18.2443 96.2459ZM37.4498 54.4379C38.2679 45.1513 39.8998 34.8585 47.9956 29.2808C52.8445 25.9508 59.1733 24.3864 64.7277 22.6744C71.1015 20.7 77.5605 19.0164 84.0803 17.6393C94.1336 15.5101 105.21 12.9519 115.535 14.3834C120.432 15.0574 125.24 16.9167 128.326 20.9821C131.871 25.6485 132.469 37.8701 132.493 37.9718C132.117 38.1059 87.6682 53.8796 40.3815 56.7968C36.2934 56.9194 37.3483 54.58 37.4513 54.4508L37.4498 54.4379ZM13.4225 75.3207C19.5618 70.5781 24.8013 64.5789 31.7154 61.0285C34.5097 59.7461 38.6063 61.0852 38.729 60.784C89.7172 57.9054 136.063 40.5459 136.206 40.0727C144.802 42.0392 153.331 44.2223 161.809 46.6463C156.821 50.4752 151.2 54.4932 142.405 58.0473C126.348 65.1912 108.544 68.6669 91.3414 71.5782C77.613 73.9009 63.7744 75.5962 49.8902 76.6566C44.8135 77.0478 34.4331 77.5553 34.4417 77.5152C33.2078 77.6939 31.9907 77.6748 30.7919 77.4708C30.7863 77.5367 19.0364 77.0237 13.4354 75.3193L13.4225 75.3207ZM144.254 119.572C131.473 139.17 102.383 143.243 81.1734 139.477C57.1902 135.214 35.177 116.834 33.7924 91.1839C33.6172 88.0171 33.6913 84.7438 33.9832 81.4327C37.8535 81.3478 41.732 81.1052 45.5833 80.8526C61.0531 79.8349 76.4726 78.0262 91.7659 75.4482C109.417 72.46 127.704 68.8644 144.182 61.5162C147.186 67.7457 149.261 74.4328 150.296 81.2766C152.195 93.7953 151.359 108.7 144.255 119.585L144.254 119.572ZM153.199 75.8682C152.287 71.9619 151.099 68.1522 149.67 64.5264C149.757 64.4904 149.832 64.4559 149.917 64.407C152.969 62.6254 169.157 58.0264 165.421 66.6896C163.455 71.2608 157.732 74.3631 153.185 75.8567L153.199 75.8682Z" fill="white"/>
<path d="M37.4497 54.4379C37.4497 54.4379 37.4497 54.4379 37.4511 54.4508C37.4611 54.4236 37.4611 54.4236 37.4497 54.4379Z" fill="white"/>
<path d="M62.1928 92.6873C62.0252 90.5122 60.665 88.3021 58.5249 87.6299C56.4379 86.9647 54.3915 88.045 53.261 89.8314C53.1938 89.9304 53.1539 90.0394 53.0867 90.1384C52.4067 90.5941 51.8875 91.2013 51.5491 91.9056C51.106 92.6087 50.8927 93.4948 50.9891 94.4633C51.0256 94.7857 51.0864 95.0923 51.1586 95.3845C51.4883 96.9144 52.4314 98.3227 53.9722 99.0104C55.747 99.8023 57.4897 99.6183 58.9289 98.8288C59.7481 98.4488 60.3893 97.8801 60.8452 97.1755C61.7904 95.9455 62.3164 94.358 62.1928 92.6873Z" fill="white"/>
<path d="M132.891 79.1566C132.742 77.7238 131.764 76.4631 130.201 76.1567C128.318 75.7949 126.565 76.6983 125.431 78.1064C124.748 78.6538 124.206 79.4072 123.92 80.3407C123.783 80.6304 123.661 80.9445 123.595 81.2786C123.102 83.6198 124.163 85.6154 125.874 86.6496C126.83 87.3643 128.032 87.7116 129.412 87.4381C129.68 87.3817 129.934 87.3138 130.183 87.2073C130.247 87.2 130.312 87.1927 130.373 87.1596C133.929 86.0262 135.06 81.9282 132.904 79.1551L132.891 79.1566Z" fill="white"/>
<path d="M116.77 109.189C112.117 114.024 105.626 115.424 99.1692 115.854C92.9973 116.264 86.0886 116.628 80.508 113.602C78.3096 112.414 76.7524 115.972 78.9379 117.162C85.4627 120.682 93.9066 120.262 101.081 119.595C108.179 118.936 114.76 116.834 119.799 111.602C121.529 109.8 118.487 107.388 116.768 109.176L116.77 109.189Z" fill="white"/>
<path d="M205.134 180.273C202.28 176.051 199.462 171.812 196.56 167.635C191.772 160.758 186.322 154.27 178.532 150.762C163.225 143.86 145.422 148.394 129.792 151.571C127.915 151.953 126.039 152.348 124.162 152.73C123.995 151.025 123.815 149.322 123.649 147.617C123.554 146.778 123.14 144.853 123.033 143.442C123.839 143.063 124.377 142.271 124.141 141.109C123.467 137.921 119.24 137.51 118.367 140.874C117.876 142.771 118.555 145.202 118.747 147.126C118.969 149.321 119.191 151.516 119.413 153.711C114.346 154.767 109.294 155.835 104.23 156.917C103.308 152.345 102.709 147.738 102.443 143.079C102.26 139.953 97.4627 140.508 97.632 143.623C97.8977 148.399 98.5216 153.109 99.4808 157.78C99.4866 157.832 99.5168 157.867 99.5226 157.919C88.3274 160.347 77.1523 162.838 65.9889 165.432C60.1457 166.785 54.3168 168.15 48.4795 169.554C44.6008 170.489 40.4408 171.246 37.2101 173.754C34.1956 176.092 32.9434 179.46 32.0428 183.049C30.67 188.585 29.5812 194.206 28.3675 199.763C28.1956 200.553 28.386 201.197 28.7897 201.648C26.8945 207.648 25.7878 213.689 25.5604 219.996C25.499 221.649 26.5105 222.854 28.2277 222.79C31.5847 222.672 34.9205 222.712 38.2466 222.898C37.0425 229.002 36.5927 235.191 37.0618 241.42C37.3973 246.005 37.6257 253.802 41.2218 257.301C44.5235 260.506 48.858 258.057 52.1053 256.044C56.438 253.347 60.5533 250.231 64.548 246.971C64.5021 253.728 64.1594 260.519 65.0322 267.198C65.8789 273.763 68.4044 278.884 72.1131 282.801C67.4226 294.811 66.2629 307.662 68.8829 320.321C69.1679 321.687 70.15 322.516 71.5547 322.461C80.5148 322.101 89.4821 321.806 98.4451 321.472C98.8952 340.357 100.046 359.203 101.91 377.995C96.7939 379.775 92.5477 383.467 90.0585 388.372C88.1576 392.126 85.9572 399.701 91.2221 401.783C96.1455 403.734 102.623 398.98 105.486 395.417C109.127 390.878 110.623 384.924 109.249 379.241C108.928 377.906 107.784 377.265 106.685 377.246C104.843 358.648 103.7 339.984 103.246 321.295C107.979 321.099 112.724 320.902 117.452 320.655C124.712 320.278 134.397 317.55 137.285 310.746C139.391 313.773 141.815 316.725 144.755 317.659C147.33 318.478 150.241 317.653 152.802 317.193C156.412 316.537 160.006 315.739 163.562 314.841C164.348 314.634 165.134 314.415 165.919 314.196C165.93 314.299 165.915 314.392 165.926 314.495C167.725 328.435 169.51 342.377 171.308 356.318C172.177 363.076 172.895 369.891 173.944 376.628C174.758 381.865 176.093 387.199 179.762 391.224C182.192 393.888 186.231 396.683 190.049 396.017C194.225 395.283 194.245 390.841 194.237 387.42C194.229 376.255 187.738 371.647 177.801 368.918C177.772 368.66 177.743 368.402 177.714 368.144C175.385 350.085 173.068 332.024 170.738 313.951C170.691 313.538 170.548 313.202 170.359 312.91C181.482 309.497 192.124 304.833 202.276 299.075C203.123 298.588 203.514 297.081 203.078 296.229C199.268 288.759 194.949 281.529 189.859 274.869C188.802 273.487 187.028 271.78 185.204 270.903C186.189 269.329 186.763 267.474 186.652 265.215C186.404 260.019 184.595 254.647 183.498 249.573L180.302 234.707C184.764 236.043 189.313 236.992 193.99 237.338C197.613 237.608 203.271 238.548 205.427 234.739C207.486 231.111 205.82 225.043 205.403 221.238C204.656 214.636 203.587 208.07 202.276 201.558C202.244 201.391 202.19 201.254 202.134 201.104C203.555 199.924 204.977 198.758 206.399 197.578C208.467 195.882 211.236 194.145 211.289 191.149C211.359 187.262 207.143 183.246 205.133 180.261L205.134 180.273ZM95.5834 396.798C93.7234 397.909 92.8505 397.237 92.9678 394.808C93.1285 394.15 93.2878 393.479 93.4485 392.821C94.067 390.896 95.0899 389.083 96.3771 387.527C98.6054 384.82 101.473 383.15 104.774 382.189C105.019 388.052 101.915 396.069 95.5963 396.796L95.5834 396.798ZM187.043 378.556C188.245 379.948 191.718 390.212 188.695 391.207C186.604 391.887 183.271 388.059 182.276 386.657C181.231 385.155 180.518 383.473 179.97 381.746C179.183 379.288 178.759 376.698 178.426 374.097C181.543 374.973 184.911 376.107 187.043 378.556ZM56.2027 247.223C54.3232 248.624 52.4193 250.04 50.4622 251.332C47.7978 253.07 45.1359 255.409 43.5197 251.282C40.2557 242.979 41.2841 231.971 43.0853 223.291C46.4661 223.614 49.8515 224.093 53.2142 224.719C54.6152 224.978 55.621 223.937 55.977 222.696C56.7504 220.062 57.7922 217.606 59.0793 215.24C62.5844 222.902 63.9248 231.292 64.3809 239.716C64.3945 240.067 64.4066 240.405 64.4201 240.756C61.7322 242.98 58.9998 245.156 56.1913 247.237L56.2027 247.223ZM71.338 238.394C71.4692 238.052 71.5158 237.655 71.436 237.181C71.0504 234.926 70.3878 231.723 71.238 229.537C71.346 228.99 71.4539 228.442 71.5632 227.907C72.6995 227.674 73.8359 227.441 74.9722 227.208C75.8307 227.869 75.8045 231.45 75.8737 232.409C76.0854 235.206 76.0034 238.062 75.4925 240.823C75.1435 242.704 75.4215 243.43 73.2787 243.542C71.4468 243.631 71.181 242.551 71.2385 241.095C71.5498 240.499 71.5658 239.831 71.3812 239.238C71.3768 239.199 71.3853 239.159 71.3953 239.132C71.4048 238.869 71.3786 238.637 71.3394 238.407L71.338 238.394ZM70.1905 269.031C68.8804 262.297 69.1238 255.321 69.254 248.385C70.4217 249.585 72.0385 250.251 74.2727 249.907C77.5845 249.389 79.2406 246.59 80.0586 243.311C83.2158 254.251 90.9418 263.773 101.278 269.343C116.93 277.799 140.947 277.97 153.811 264.305C161.065 256.589 165.345 245.918 166.372 235.015C167.229 236.472 168.18 237.723 169.199 238.639C171.987 241.119 174.44 240.397 176.191 238.436C176.629 240.463 177.066 242.477 177.491 244.506C178.563 249.478 179.636 254.463 180.707 259.435C181.18 261.654 182.054 264.18 181.685 266.468C181.087 270.075 177.587 271.464 174.616 273.04C157.08 282.349 137.553 287.692 117.752 288.768C101.172 289.663 74.2455 289.991 70.189 269.018L70.1905 269.031ZM115.988 251.786C117.466 246.721 118.405 242.084 118.178 237.303C118.799 237.246 119.406 237.19 120.027 237.133C121.33 248.309 123.32 259.328 126.814 269.891C126.855 270.029 126.92 270.14 126.972 270.251C120.864 270.537 114.598 269.535 108.875 267.439C107.39 266.902 105.947 266.268 104.546 265.552C111.078 263.821 114.128 258.095 115.975 251.787L115.988 251.786ZM102.905 260.971C101.549 261.228 100.902 262.32 100.869 263.421C92.5091 257.993 86.2215 249.523 84.083 239.852C93.8366 239.115 103.632 238.517 113.391 237.714C113.536 240.845 113.102 243.937 112.217 247.315C110.84 252.59 109.148 259.808 102.892 260.972L102.905 260.971ZM116.557 190.38C117.639 204.114 118.118 218.282 119.503 232.269C118.844 232.33 118.196 232.378 117.537 232.439C117.291 231.305 116.992 230.163 116.585 228.994C113.816 220.792 108.236 201.938 97.4405 202.127C102.676 197.134 108.931 193.07 115.464 189.955C115.769 190.116 116.132 190.206 116.549 190.198C116.557 190.262 116.537 190.317 116.542 190.368L116.557 190.38ZM112.114 230.806C112.336 231.499 112.53 232.182 112.698 232.856C102.937 233.646 93.1608 234.294 83.3944 235.032C83.2621 233.284 83.2702 231.507 83.4187 229.701C84.1398 221.405 87.3815 214.143 92.1706 207.973C92.8592 208.287 93.685 208.311 94.5069 207.839C104.039 202.256 110.233 225.037 112.114 230.806ZM121.362 189.784C129.402 189.489 137.411 191.692 144.151 195.958C132.551 202.206 129.594 218.682 128.925 231.138C127.528 231.375 126.113 231.574 124.709 231.746C124.637 230.879 124.552 230.013 124.48 229.147C123.379 216.055 122.405 202.935 121.381 189.834C121.379 189.821 121.376 189.796 121.375 189.783L121.362 189.784ZM160.832 223.339C151.876 225.696 142.93 228.38 133.838 230.23C133.863 229.757 133.903 229.296 133.945 228.86C134.915 218.263 137.389 203.513 148.628 199.278C151.32 201.599 153.716 204.305 155.67 207.376C158.751 212.212 160.607 217.644 161.373 223.265C161.205 223.283 161.024 223.304 160.834 223.352L160.832 223.339ZM161.76 228.079C162.031 237.295 159.565 246.676 155.03 254.516C154.057 256.193 152.95 257.728 151.75 259.131C151.377 258.259 150.556 257.581 149.371 257.611C137.227 258.004 133.972 245.626 133.739 235.243C143.197 233.391 152.503 230.549 161.773 228.078L161.76 228.079ZM128.807 236.101C129.178 248.283 134.754 261.901 148.361 262.426C143.516 266.487 137.557 268.898 131.236 269.835C131.466 269.325 131.516 268.732 131.311 268.076C127.933 257.84 126.268 247.267 125.154 236.606C126.379 236.467 127.589 236.305 128.808 236.114L128.807 236.101ZM172.036 219.134C172.755 222.487 173.488 225.852 174.207 229.205C174.169 234.42 173.275 238.296 169.767 230.034C168.221 226.408 167.085 222.488 166.758 218.555C166.415 214.48 168.686 215.385 170.986 216.549C170.867 217.463 171.235 218.519 172.049 219.132L172.036 219.134ZM188.063 280.583C189.244 282.252 190.401 283.936 191.51 285.653C193.711 289.06 195.727 292.568 197.622 296.154C188.238 301.316 178.352 305.502 168.106 308.581C162.623 310.232 157.049 311.542 151.411 312.519C147.607 313.184 145.873 312.87 143.04 309.652C140.987 307.324 139.225 304.676 137.339 302.212C135.977 300.446 132.448 301.472 133.001 303.93C136.035 317.6 113.588 315.946 105.694 316.264C94.8867 316.689 84.079 317.114 73.2713 317.54C71.445 306.933 72.3322 296.293 75.9957 286.175C81.1403 289.851 87.6767 291.972 94.8344 292.887C112.279 295.12 130.34 293.457 147.281 288.929C156.259 286.53 165.009 283.268 173.332 279.127C175.472 278.063 177.832 276.986 179.958 275.688C180.985 277.139 183.379 277.521 184.043 275.422C183.928 275.788 187.673 280.027 188.075 280.582L188.063 280.583ZM199.432 232.674C198.04 233.302 194.649 232.536 192.97 232.36C188.436 231.893 184.023 230.877 179.706 229.432C179.516 229.376 179.342 229.33 179.157 229.312L179.099 229.031C179.386 224.637 179.358 218.619 176.429 216.051C176.746 215.153 176.605 214.137 175.749 213.503C175.315 211.515 174.895 209.525 174.461 207.536C174.189 206.287 173.906 205.053 173.659 203.801C173.008 200.466 173.454 201.173 175.247 197.509C174.388 199.265 175.789 200.687 177.308 200.828C180.172 203.626 183.248 207.731 186.807 209.51C189.867 211.045 192.014 209.352 194.408 207.41C195.581 206.468 196.752 205.499 197.911 204.546C199.307 211.806 200.394 219.114 201.045 226.484C201.237 228.644 202.128 231.442 199.405 232.664L199.432 232.674ZM202.092 194.84C198.674 197.655 195.303 201.236 191.525 203.518C188.639 205.267 187.667 204.058 185.323 201.816C183.637 200.191 181.938 198.568 180.253 196.956C180.142 193.194 175.693 190.472 171.96 192.696C165.987 196.257 168.618 204.736 170.147 210.636C168.981 210.141 167.785 209.845 166.502 210.056C165.181 210.27 164.122 210.952 163.352 211.888C156.34 194.122 137.588 183.326 118.867 185.051C118.294 184.254 117.315 183.803 116.145 184.314C98.6912 191.929 82.8897 205.496 79.1726 225.075C79.1755 225.101 79.1655 225.128 79.157 225.168C77.8409 222.078 75.5731 219.814 71.7076 220.865C69.5398 221.449 68.1767 223.027 67.3433 225.015C66.0683 219.4 64.1099 213.979 61.2031 208.836C60.4537 207.523 58.1746 207.585 57.3684 208.773C55.0497 212.183 53.2947 215.725 51.9759 219.543C44.8521 218.351 37.7108 217.813 30.5091 217.896C30.8838 212.891 31.7934 207.995 33.3396 203.184C33.6204 202.316 33.4282 201.541 33.0085 200.949C33.0585 200.813 33.1213 200.675 33.1425 200.516C33.9525 196.82 34.7626 193.124 35.5727 189.428C36.4283 185.557 36.7516 180.675 39.847 177.896C42.7421 175.309 47.2164 174.79 50.8544 173.922C55.1544 172.9 59.4544 171.878 63.7573 170.883C80.3555 167.021 96.987 163.338 113.65 159.822C128.03 156.786 142.79 152.727 157.535 152.117C164.44 151.833 171.619 152.589 177.846 155.789C184.989 159.461 189.657 166.09 194.073 172.565C196.644 176.349 199.201 180.135 201.773 183.932C202.87 185.544 204.718 187.451 205.394 189.268C206.466 192.164 204.171 193.129 202.103 194.825L202.092 194.84Z" fill="white"/>
</g>
<defs>
<clipPath id="clip0_22_1865">
<rect width="191" height="393" fill="white" transform="translate(0 22) rotate(-6.45061)"/>
</clipPath>
</defs>
</svg>
