<svg width="255" height="414" viewBox="0 0 255 414" fill="none" xmlns="http://www.w3.org/2000/svg">
<g clip-path="url(#clip0_15_540)">
<path d="M57.1328 165.918C57.927 168.132 59.1032 170.47 60.1821 172.825C60.4608 172.897 60.7394 172.968 61.021 173.012C61.7626 172.221 62.5536 171.476 63.3836 170.749C63.0305 169.987 62.6908 169.227 62.4051 168.473C60.5091 163.615 58.8555 158.661 57.4699 153.628C55.0901 144.967 53.4843 136.091 52.732 127.144C51.0458 107.173 53.9733 87.0525 61.4407 68.4522C73.1937 39.1258 105.752 -3.41227 140.327 18.4444C117.395 12.5909 92.7779 21.6212 79.2713 41.4281C71.8592 52.3025 67.8284 65.0611 65.093 77.8252C61.9607 92.4687 60.193 107.357 61.0342 122.34C61.9616 138.779 65.8566 154.901 72.2883 170.033C73.4262 169.858 74.5775 169.684 75.7238 169.182C75.9827 169.061 76.2506 168.981 76.5021 168.927C76.4133 168.617 76.3379 168.309 76.2476 168.012C76.0805 167.421 75.7309 167.001 75.2947 166.749C62.4247 135.175 62.1213 100.341 71.7725 67.6614C76.1907 52.7362 83.6571 38.254 96.889 29.4217C102.276 25.8255 108.306 23.3361 114.568 21.9631C96.0761 29.619 82.9273 48.4015 76.2835 66.9557C72.1728 78.4509 71.8453 90.1561 74.6552 100.991C73.3343 110.433 73.1547 120.041 73.8031 129.562C74.4085 138.356 75.7281 147.105 77.4698 155.737C78.3256 160.004 79.2638 164.266 80.3292 168.487C81.4367 168.09 82.6058 167.755 83.7719 167.446C83.0473 164.721 82.4584 159.761 82.2368 158.796C81.4417 155.095 80.7156 151.388 80.0883 147.651C78.8306 140.204 77.9218 132.686 77.6014 125.151C77.3793 120.081 77.4342 114.973 77.7871 109.885C82.6759 120.921 91.0189 130.562 102.055 137.417C123.424 150.681 155.771 155.643 178.291 142.224C185.384 137.997 190.743 131.915 194.59 124.823C194.351 127.879 194.056 130.942 193.751 133.977C192.262 148.432 189.995 162.775 187.072 177.005C188.024 177.027 188.965 177.035 189.928 177.086C190.376 177.108 190.774 177.206 191.129 177.327C194.301 161.828 196.711 146.179 198.178 130.425C198.699 124.919 199.105 119.345 199.197 113.778C199.407 113.105 199.577 112.428 199.76 111.753C200.46 136.744 197.991 161.769 192.531 186.194C193.827 186.568 195.101 187.021 196.406 187.314C203.628 155.268 205.687 122.152 202.364 89.4833C202.235 83.81 201.524 78.2229 200.323 72.9913C198.37 59.0725 195.569 45.4154 185.466 34.8993C180.41 29.627 174.491 25.133 167.988 22.1023C169.465 22.3187 170.925 22.5605 172.364 22.8817C180.246 24.6454 185.958 30.1667 190.761 36.3794C199.925 48.2382 204.655 62.9657 206.615 77.7034C208.794 94.0469 207.783 110.614 206.683 127.007C206.121 135.373 205.436 143.739 204.63 152.092C204.246 156.1 203.834 160.105 203.396 164.107C203.176 166.114 202.957 168.109 202.724 170.115C202.619 171.072 202.64 174.865 202.237 176.798C202.523 176.802 202.806 176.833 203.085 176.905C204.095 177.152 205.1 177.316 206.108 177.454C206.385 175.793 206.338 173.988 206.509 172.548C207.062 167.877 207.573 163.214 208.058 158.536C209.087 148.516 209.94 138.491 210.645 128.45C211.921 109.826 213.128 90.84 209.916 72.3513C207.245 57.004 201.333 41.7378 190.796 30.0831C185.844 24.6041 180.154 20.3807 172.832 18.8557C164.244 17.0556 155.164 17.1245 146.435 17.7362C135.428 9.3711 121.055 6.45991 107.763 10.6083C94.6689 14.6964 84.1596 24.4543 75.91 35.1279C55.7611 61.148 46.1433 94.1448 48.7047 126.921C49.4231 136.178 51.0639 145.357 53.5219 154.3C54.5928 158.222 55.8179 162.106 57.1837 165.951L57.1328 165.918ZM78.6853 83.01C77.8925 85.5141 77.2061 88.0435 76.6141 90.5832C76.3417 86.8442 76.5034 83.0027 77.1621 79.1067C81.4576 53.7223 101.61 25.0571 128.852 22.5736C129.045 22.5538 129.214 22.5042 129.384 22.4545C129.628 22.5904 129.933 22.6648 130.302 22.6642C133.228 22.603 136.159 22.7468 139.056 23.0779C126.414 30.2566 112.919 35.3917 102.037 45.5588C91.108 55.7888 83.2094 68.7372 78.6988 83.0115L78.6853 83.01ZM187.383 43.4276C189.262 46.0744 190.598 48.9481 191.635 51.939C182.955 38.0197 169.525 27.4936 154.082 22.2696C167.406 23.675 179.778 32.6533 187.383 43.4276ZM189.085 55.287C192.145 60.5996 194.452 66.3206 195.997 72.2582C196.943 78.0755 197.72 83.929 198.333 89.7916C198.361 91.7721 198.307 93.7571 198.158 95.7453C198.155 95.7723 198.15 95.8127 198.147 95.8396C197.695 92.7491 197.076 89.6812 196.248 86.6586C189.34 61.4241 170.449 42.7178 151.507 25.724C167.059 30.578 180.822 40.9359 189.084 55.3005L189.085 55.287ZM193.121 90.7889C194.703 97.8896 195.222 105.106 195.166 112.341C192.783 120.275 188.958 127.792 183.203 133.38C165.675 150.415 135.095 147.882 114.345 139.172C97.7813 132.217 83.8489 118.308 78.6588 101.43C79.7103 93.9497 81.5003 86.5775 84.1862 79.4944C89.294 65.9947 97.7153 54.0036 108.93 44.9094C119.605 36.2471 132.567 31.6262 144.244 24.6554C164.709 42.8116 186.915 62.8903 193.133 90.8038L193.121 90.7889Z" fill="white" fill-opacity="0.3"/>
<path d="M105.751 87.1209C106.08 84.866 105.201 82.3015 103.175 81.1249C101.201 79.9677 98.8668 80.5984 97.3044 82.1591C97.2131 82.2445 97.1474 82.3464 97.0562 82.4319C96.2585 82.74 95.5899 83.2394 95.0832 83.8794C94.4702 84.4941 94.0492 85.348 93.925 86.3571C93.8881 86.694 93.8797 87.0203 93.8861 87.3347C93.8707 88.9694 94.5083 90.6211 95.9206 91.6758C97.5474 92.8904 99.3657 93.1033 101.014 92.6293C101.936 92.4303 102.72 91.998 103.346 91.3849C104.592 90.3486 105.493 88.8518 105.751 87.1209Z" fill="white" fill-opacity="0.3"/>
<path d="M180.907 89.587C181.084 88.0928 180.377 86.5834 178.854 85.912C177.018 85.1109 175.025 85.6288 173.545 86.8031C172.724 87.204 171.999 87.8473 171.492 88.7328C171.286 88.9965 171.09 89.2887 170.946 89.6138C169.905 91.8862 170.529 94.1637 172.035 95.6105C172.845 96.5583 173.99 97.1884 175.459 97.2266C175.745 97.2307 176.019 97.2198 176.298 97.1685C176.365 97.1759 176.432 97.1832 176.503 97.1637C180.387 96.8256 182.48 92.9094 180.921 89.5885L180.907 89.587Z" fill="white" fill-opacity="0.3"/>
<path d="M157.592 116.488C151.74 120.346 144.803 120.282 138.124 119.236C131.74 118.237 124.616 117.02 119.624 112.655C117.656 110.939 115.252 114.208 117.206 115.922C123.047 121.007 131.748 122.52 139.214 123.488C146.598 124.447 153.788 123.816 160.125 119.642C162.302 118.204 159.756 115.047 157.594 116.474L157.592 116.488Z" fill="white" fill-opacity="0.3"/>
<path d="M64.6042 287.857C63.2353 287.775 61.9758 288.687 61.8208 290.102L61.747 290.776C61.6023 292.096 62.6228 293.49 63.9782 293.57C65.3471 293.652 66.6066 292.74 66.7616 291.325L66.8354 290.651C66.9801 289.331 65.9596 287.937 64.6042 287.857Z" fill="white" fill-opacity="0.3"/>
<path d="M224.647 280.301C224.421 279.376 223.815 278.805 223.11 278.523C225.168 270.444 223.661 261.538 222.874 253.406C221.285 237.154 218.445 220.861 209.902 206.82C217.591 204.008 222.252 197.823 223.366 189.027C224.58 179.314 223.75 168.832 214.511 163.388C206.388 158.584 197.027 160.232 189.424 165.003C189.32 164.705 189.203 164.406 189.042 164.13C188.106 162.459 186.343 161.87 184.593 161.406C180.551 160.322 176.415 159.473 172.345 158.523C170.895 158.187 170.006 159.071 169.761 160.19C162.881 165.709 154.838 168.523 146.436 169.375C147.337 162.901 148.236 156.44 149.136 149.966C149.586 146.729 144.558 146.178 144.108 149.415C143.222 155.755 142.335 162.108 141.463 168.449C141.127 168.78 140.85 169.186 140.704 169.647C135.508 169.637 130.234 168.964 125.061 167.742L127.382 146.56C127.738 143.313 122.709 142.762 122.354 146.009L120.118 166.41C112.038 163.956 104.364 160.293 97.8053 156.029C97.4995 155.832 97.1849 155.715 96.8658 155.639C96.6144 154.821 95.9619 154.177 94.8028 154.172C89.2155 154.119 83.643 154.054 78.0556 154.001C76.9115 153.985 75.9629 154.549 75.5226 155.456C69.2266 151.411 58.9205 150.473 52.8764 154.215C46.159 158.375 42.4811 168.908 41.5014 176.356C40.7925 181.705 42.0919 186.157 44.8515 189.732C36.7971 200.741 30.1099 212.717 25.1551 225.443C22.7225 231.708 20.7094 238.129 19.1068 244.662C17.2617 252.165 16.3555 259.688 13.8256 266.966C12.311 271.327 13.5343 275.975 16.8982 279.139C19.4463 281.532 24.5552 283.96 27.1918 280.69C32.4633 274.163 27.8469 264.002 21.0727 260.587C21.2851 259.519 21.4841 258.45 21.6591 257.351C22.9525 249.406 24.8735 241.585 27.4538 233.972C32.3652 219.401 39.4916 205.781 48.5067 193.351C49.9266 194.461 51.523 195.454 53.284 196.315C59.9637 199.597 68.5911 202.533 75.3979 199.052C75.3935 199.092 75.3891 199.133 75.3981 199.174C75.4321 199.86 75.5544 200.487 75.7336 201.093C75.7321 201.107 75.7037 201.117 75.6887 201.129C54.1582 223.698 39.2214 252.075 32.6967 282.615C30.3717 293.502 29.3496 304.449 29.2006 315.397C28.8397 316.325 28.9791 317.418 30.0556 318.177C35.7525 322.21 42.3062 324.401 49.3175 324.283C52.4607 324.232 55.4954 323.678 58.492 322.724C62.0543 321.587 63.1916 321.044 66.5627 323.022C66.7545 323.139 66.9329 323.254 67.1248 323.37C67.1203 323.41 67.1159 323.451 67.1115 323.491C67.5903 337.549 68.3447 351.581 69.1679 365.608C69.3696 369.121 69.5863 372.622 69.788 376.135C68.4676 377.354 68.8618 379.484 70.0357 380.349C70.1418 382.12 70.2479 383.89 70.3526 385.675C70.6352 390.192 70.8256 395.054 74.9706 397.813C82.664 402.924 90.0307 394.581 87.8442 386.896C86.12 380.843 80.9397 373.962 74.5459 374.42C74.5199 372.167 74.476 369.953 74.3544 367.826C73.545 354.047 72.7911 340.259 72.2827 326.472C83.3086 331.921 96.5257 331.814 107.542 326.394C117.751 335.067 133.34 334.852 143.283 326.028C146.647 332.055 152.736 335.123 158.834 335C155.529 346.242 152.224 357.485 148.918 368.728C148.072 371.594 147.224 374.474 146.392 377.342C145.388 380.777 144.076 381.916 141.259 383.721C137.913 385.877 135.17 389.122 133.659 392.829C130.975 399.394 134.932 406.237 142.496 403.561C150.656 400.678 151.567 390.373 151.591 383.053C151.593 382.166 151.216 381.498 150.681 381.03C153.346 374.013 154.904 366.261 157 359.086C159.437 350.789 161.874 342.492 164.311 334.195C164.335 334.103 164.33 334.02 164.352 333.941C166.626 333.113 168.761 331.806 170.615 329.95C174.303 338.249 184.856 341.287 192.379 335.13C194.598 337.418 197.097 339.26 199.969 340.816C200.496 341.105 200.982 341.159 201.428 341.071C201.734 341.268 202.087 341.403 202.519 341.45C204.284 341.643 205.245 340.221 205.232 338.843C205.423 338.85 205.611 338.87 205.803 338.864C207.729 322.779 208.83 306.632 208.719 290.583C208.611 276.13 207.17 261.64 202.806 247.812C199.057 235.96 192.671 221.405 181.616 214.48C182.189 212.238 182.403 209.78 182.711 208.341C182.928 207.356 183.118 206.368 183.323 205.367C188.311 209.896 198.806 209.109 204.778 208.141C211.25 218.054 214.459 229.479 216.28 241.12C217.131 246.558 217.704 252.035 218.196 257.502C218.827 264.444 220.071 272.013 217.803 278.773C216.302 283.259 205.377 299.053 215.447 301.643C225.107 304.119 226.025 285.783 224.646 280.314L224.647 280.301ZM23.4511 276.98C21.6384 276.59 20.1798 275.585 19.1736 273.811C17.6284 271.105 18.5002 269.374 19.4426 266.749C19.5633 266.395 19.6691 266.052 19.7763 265.695C23.4176 268.071 25.258 272.814 23.4525 276.966L23.4511 276.98ZM56.5677 192.243C49.9423 189.213 45.5324 184.638 46.558 176.896C47.2625 171.587 49.6454 165.152 53.0037 160.898C57.0763 155.725 69.307 155.906 74.0255 160.528C74.543 161.035 75.1588 161.266 75.7564 161.29C75.8645 162.42 75.9471 163.534 76.0417 164.663C72.6984 163.178 69.1125 162.662 65.4245 162.954C62.1902 163.213 62.9918 168.224 66.2261 167.964C69.5292 167.699 72.6214 168.488 75.5335 170.048C75.8423 170.218 76.121 170.29 76.404 170.321C76.4383 171.129 76.459 171.936 76.4797 172.743C75.1869 172.465 73.8435 172.399 72.4959 172.497C71.1333 172.607 70.2027 174.128 70.4039 175.404C70.6278 176.847 71.9349 177.617 73.2975 177.508C74.4534 177.416 75.5335 177.643 76.5659 178.057C76.5623 178.588 76.5736 179.107 76.5699 179.639C76.5499 181.191 76.4446 182.775 76.3123 184.356C72.6884 184.436 69.2202 183.593 65.9367 182.06C62.9784 180.673 61.1364 185.407 64.0692 186.778C67.8323 188.541 71.7556 189.339 75.8425 189.391C75.7229 190.483 75.6318 191.564 75.5541 192.646C70.1427 197.835 62.5561 194.986 56.5542 192.242L56.5677 192.243ZM81.9493 385.541C82.7682 387.28 83.4401 388.868 82.9669 390.82C83.1156 393.946 81.068 394.581 76.8211 392.752C76.4631 391.785 76.1067 390.805 75.7487 389.839C75.0114 386.608 74.7528 383.116 74.6349 379.585C77.9021 379.274 80.4858 382.462 81.9373 385.526L81.9493 385.541ZM145.669 392.031C145.178 393.9 144.403 396.488 142.684 397.609C140.128 399.279 136.838 398.305 138.34 394.678C139.79 391.155 142.492 388.778 145.735 386.952C145.981 386.815 146.228 386.679 146.462 386.541C146.367 388.398 146.152 390.243 145.681 392.046L145.669 392.031ZM170.909 165.647C166.563 173.19 159.833 178.834 152.525 183.529C150.529 184.81 148.46 186.015 146.395 187.18C145.044 187.932 141.882 190.395 140.311 190.045C138.766 189.699 137.336 184.578 136.643 182.934C135.394 180.016 134.143 177.11 132.881 174.19C146.297 175.756 159.792 173.607 170.911 165.634L170.909 165.647ZM93.9512 159.207C94.1194 159.539 94.3865 159.841 94.7822 160.088C104.525 166.42 116.415 171.445 128.595 173.584C128.577 173.623 128.535 173.632 128.518 173.671C125.614 178.385 122.697 183.097 119.793 187.811C107.241 182.59 97.4249 172.201 93.1754 159.19C93.4345 159.191 93.6936 159.192 93.9661 159.195L93.9512 159.207ZM87.8875 159.142C92.6761 174.953 104.315 187.629 119.872 193.315C120.856 193.668 122.247 193.425 122.843 192.468C125.281 188.521 127.704 184.587 130.141 180.64C131.141 182.972 132.14 185.305 133.153 187.638C134.154 189.957 134.957 193.591 137.336 195.038C141.572 197.588 148.372 191.924 151.83 189.876C162.28 183.643 171.779 176.011 177.061 164.781C177.647 164.913 178.218 165.057 178.804 165.19C179.974 165.468 181.13 165.745 182.302 166.009C184.441 166.53 185.118 167.695 184.305 169.515C184.588 171.783 183.562 174.929 183.231 177.198C182.855 179.761 182.453 182.308 182.023 184.865C181.177 189.968 180.251 195.062 179.243 200.147C178.998 201.389 176.94 209.345 176.779 212.805C176.044 213.161 175.548 213.952 175.415 214.796C175.235 214.94 175.069 215.086 174.926 215.275C174.446 214.799 173.753 214.519 172.866 214.653C149.68 218.209 125.178 221.961 102.513 213.791C97.4605 211.969 92.6032 209.61 88.1762 206.561C86.1584 205.181 83.5967 203.659 82.0916 201.708C79.8798 198.861 80.8132 195.322 81.0788 191.901C81.9227 180.962 81.7078 169.974 80.5974 159.066L87.901 159.144L87.8875 159.142ZM199.688 255.352C203.191 269.318 203.96 283.843 203.574 298.201C203.234 310.641 202.305 323.099 200.904 335.518C198.408 334.017 196.331 332.181 194.483 329.878C193.401 328.546 191.526 328.722 190.477 329.958C184.992 336.434 174.481 333.141 174.281 324.378C174.211 321.534 170.777 320.504 169.421 323.164C164.299 333.185 149.789 332.018 146.563 321.123C145.944 319.051 143.525 318.213 142.032 320.013C134.241 329.496 118.611 330.456 109.883 321.714C109.133 320.963 107.925 320.408 106.879 320.989C94.8537 327.526 80.8098 326.588 69.5782 318.907C68.5498 318.208 67.6008 317.531 66.5787 317.024C66.6383 316.853 66.6845 316.681 66.7066 316.479L66.8542 315.131C66.9989 313.811 65.9784 312.417 64.623 312.337C63.2541 312.255 61.9946 313.167 61.8396 314.582L61.692 315.929C61.6787 316.05 61.6804 316.16 61.694 316.284C59.083 316.707 56.5095 318.157 53.9975 318.673C47.1305 320.088 40.1346 318.572 34.2944 314.85C34.4658 304.819 35.386 294.801 37.395 284.808C43.4073 255.084 57.9304 227.493 78.5767 205.4C79.7706 206.581 81.156 207.633 82.4769 208.65C83.0811 209.112 83.6868 209.56 84.2925 210.008C71.8283 228.893 64.4091 250.539 62.8048 273.15C62.5718 276.398 67.5984 276.962 67.8329 273.701C69.3785 251.875 76.4425 230.98 88.5334 212.764C90.518 213.949 92.5563 215.018 94.6454 215.997C87.7163 223.584 87.6015 236.335 86.0112 245.87C85.4667 249.097 90.4962 249.634 91.0393 246.421C92.4768 237.783 92.3044 224.291 99.5848 218.229C99.6162 218.192 99.6461 218.168 99.6775 218.13C102.742 219.298 105.845 220.238 108.98 221.004C105.402 243.576 103.831 266.382 104.288 289.232C104.357 292.458 109.381 293.049 109.316 289.783C108.869 267.097 110.42 244.467 113.927 222.051C117.27 222.662 120.649 223.074 124.045 223.336L121.018 250.96C120.662 254.207 125.69 254.758 126.046 251.511L129.102 223.618C132.936 223.738 136.803 223.684 140.657 223.493C144.182 245.111 143.216 267.001 142.11 288.794C141.946 292.035 146.972 292.613 147.139 289.345C148.261 267.268 149.234 245.065 145.726 223.176C149.303 222.899 152.877 222.527 156.445 222.086C156.451 222.278 156.471 222.471 156.53 222.682C159.477 234.01 160.371 245.521 159.176 257.172C158.847 260.423 163.862 260.972 164.204 257.723C165.446 245.641 164.58 233.628 161.53 221.866C161.492 221.712 161.426 221.568 161.372 221.44C164.1 221.07 166.804 220.671 169.51 220.259C169.603 220.405 169.697 220.538 169.817 220.688C177.594 229.272 179.795 241.677 182.514 252.598C185.548 264.753 187.87 277.048 188.489 289.58C188.651 292.83 193.638 292.012 193.488 288.778C192.816 274.986 190.053 261.483 186.589 248.148C183.969 238.07 181.651 227.234 175.011 218.979C175.072 218.918 175.149 218.845 175.211 218.77C175.558 219.094 176.009 219.334 176.587 219.411C177.648 219.568 178.507 219.322 179.19 218.81C190.619 225.94 196.66 243.143 199.707 255.299L199.688 255.352ZM185.669 199.651C185.557 198.93 185.202 198.428 184.748 198.091C184.845 197.584 184.94 197.09 185.023 196.581L197.856 197.987C201.091 198.341 201.643 193.302 198.408 192.947L185.939 191.581C186.196 190.109 186.451 188.651 186.708 187.179C186.748 187.183 186.789 187.188 186.832 187.165C188.892 186.791 190.866 186.83 192.92 187.259C194.254 187.528 195.564 186.281 195.703 185.014C195.864 183.545 194.806 182.489 193.472 182.22C191.524 181.815 189.526 181.747 187.553 181.953C187.741 180.733 187.943 179.514 188.13 178.307C190.839 175.74 194.039 174.304 197.755 174.002C200.989 173.743 200.188 168.733 196.954 168.992C194.202 169.209 191.548 170.022 189.142 171.313C189.167 171.084 189.202 170.884 189.254 170.657C189.746 170.657 190.253 170.508 190.742 170.152C196.34 166.129 203.465 163.978 210.088 166.776C217.702 169.997 219.14 177.545 218.617 185.056C218.085 192.648 216.205 199.097 208.496 201.975C204.769 203.367 186.722 206.094 185.655 199.65L185.669 199.651ZM216.557 294.005C216.06 291.564 218.353 287.943 220.283 284.772C220.409 286.109 220.413 287.446 220.222 288.816C220.068 289.972 217.432 298.219 216.557 294.005Z" fill="white" fill-opacity="0.3"/>
<path d="M86.0827 258.914C84.7138 258.832 83.4543 259.744 83.2993 261.159L83.0041 263.854C82.8594 265.175 83.8799 266.568 85.2353 266.649C86.6042 266.731 87.8637 265.819 88.0187 264.404L88.3139 261.709C88.4586 260.388 87.4381 258.995 86.0827 258.914Z" fill="white" fill-opacity="0.3"/>
<path d="M105.165 303.019L104.576 308.396C104.22 311.643 109.248 312.194 109.604 308.947L110.193 303.57C110.549 300.323 105.521 299.772 105.165 303.019Z" fill="white" fill-opacity="0.3"/>
<path d="M146.375 296.816C145.006 296.734 143.746 297.646 143.591 299.061L143.37 301.082C143.225 302.403 144.246 303.796 145.601 303.877C146.97 303.959 148.229 303.047 148.384 301.632L148.606 299.61C148.751 298.29 147.73 296.896 146.375 296.816Z" fill="white" fill-opacity="0.3"/>
<path d="M165.736 275.741C165.556 275.272 165.375 274.802 165.208 274.334C164.744 273.096 163.04 272.46 161.87 273.054C160.585 273.704 160.093 275.082 160.589 276.405C160.769 276.875 160.95 277.344 161.117 277.813C161.581 279.05 163.285 279.687 164.455 279.092C165.741 278.442 166.233 277.064 165.736 275.741Z" fill="white" fill-opacity="0.3"/>
<path d="M166.038 306.975L165.519 298.764C165.316 295.509 160.315 296.339 160.52 299.566C160.698 302.299 160.861 305.044 161.039 307.777C161.242 311.032 166.244 310.202 166.04 306.962L166.038 306.975Z" fill="white" fill-opacity="0.3"/>
<path d="M193.107 311.305L192.149 320.05C191.793 323.297 196.821 323.848 197.177 320.601L198.135 311.855C198.491 308.608 193.463 308.057 193.107 311.305Z" fill="white" fill-opacity="0.3"/>
</g>
<defs>
<clipPath id="clip0_15_540">
<rect width="212.607" height="393" fill="white" transform="translate(42.8027) rotate(6.25261)"/>
</clipPath>
</defs>
</svg>
