<svg width="1920" height="1080" viewBox="0 0 1920 1080" fill="none" xmlns="http://www.w3.org/2000/svg">
<g clip-path="url(#clip0_50_2)">
<path d="M1933.12 -258.526H-78V1081.92H1933.12V-258.526Z" fill="#110B28"/>
<mask id="mask0_50_2" style="mask-type:luminance" maskUnits="userSpaceOnUse" x="-78" y="-259" width="2012" height="1341">
<path d="M1933.12 -258.526H-78V1081.92H1933.12V-258.526Z" fill="white"/>
</mask>
<g mask="url(#mask0_50_2)">
<g filter="url(#filter0_d_50_2)">
<path d="M582.13 1294.54C443.765 1274.54 308.403 1235.54 168.805 1223.82C100.534 1218.08 -94.3572 1258.27 -115.863 1162.75C-129.19 1103.53 -115.3 1010.99 -92.936 955.491C-48.6109 845.52 81.4952 724.371 202.672 803.404C224.902 817.907 249.947 838.952 274.429 828.711C280.677 826.111 285.932 821.634 291.778 818.229C324.948 798.873 368.469 817.693 394.962 845.494C421.455 873.294 438.456 909.245 465.861 936.161C501.659 971.308 554.645 988.09 604.145 979.94C653.672 971.817 698.48 938.976 721.166 894.205C734.332 868.201 740.151 839.193 748.651 811.312C782.921 698.688 873.85 568.959 990.79 536.279C1117.92 500.757 1255.05 524.671 1383.68 537.888C1418.35 541.453 1453.72 545.635 1487.83 538.102C1541.38 526.226 1561.39 490.221 1565.11 436.818C1567.66 400.036 1567.34 359.313 1591.82 331.727C1622.74 296.849 1680.58 297.974 1712.62 264.115C1739.95 235.188 1739.79 189.72 1730 151.169C1700.85 36.2656 1671.59 -76.895 1740.08 -185.9C1797.57 -277.453 1923.87 -329.274 2028.1 -294.905C2125.38 -262.815 2194.24 -213.218 2245.17 -123.328C2378.79 112.51 2400.67 408.561 2303.17 661.477C2205.69 914.393 1990.75 1119.19 1733.38 1204.38C1612.9 1244.28 1485.71 1258.81 1359.6 1273.12C1101.27 1302.45 839.5 1331.73 582.157 1294.54H582.13Z" fill="url(#paint0_linear_50_2)"/>
</g>
<g style="mix-blend-mode:overlay" opacity="0.5">
<path d="M582.077 1294.97C443.417 1274.81 307.733 1235.86 167.813 1224.12C102.545 1221.89 36.902 1233.77 -28.1511 1223.82C-59.2028 1219.18 -93.9281 1208.62 -110.044 1179.4C-110.312 1178.89 -110.527 1178.33 -110.768 1177.79L-113.637 1171.36C-114.897 1167.33 -116.479 1161.87 -117.123 1157.74C-128.788 1092.91 -114.951 1005.25 -88.6992 944.928C-42.2557 840.427 83.3991 728.151 199.427 801.178C218.949 812.76 237.558 830.749 261.504 831.124C276.359 831.499 286.308 819.328 299.34 814.342C326.235 803.752 356.241 814.583 378.498 830.775C393.728 841.821 405.581 856.646 416.602 871.686C438.214 901.792 457.87 935.062 490.021 955.223C553.76 997.849 642.705 987.715 694.699 931.175C707.517 917.663 718.002 901.792 725.376 884.715C739.909 850.239 745.621 812.76 759.967 778.176C780.534 726.033 809.575 677.107 846.231 634.641C882.94 592.605 928.445 556.198 982.075 538.799C1108.91 500.65 1242.74 522.875 1371.72 536.467C1408.73 540.14 1446.4 545.877 1483.33 538.853C1523.17 531.802 1551.25 508.023 1560.26 467.675C1571.07 423.145 1559.21 370.734 1590.56 332.933C1609.14 311.164 1637.78 302.907 1663.52 292.908C1680.85 286.232 1698.33 278.35 1711.47 264.892C1738.23 237.359 1739.2 194.921 1731.61 159.372C1727.37 141.196 1722.46 123.153 1718.2 104.95C1709.54 68.6239 1701.9 31.8956 1699.03 -5.42239C1692.11 -79.7368 1711.47 -157.885 1761.26 -214.72C1822.56 -284.664 1923.55 -321.929 2014.85 -298.98L2018.26 -298.122L2021.61 -297.104L2028.31 -295.066C2059.2 -284.638 2089.85 -272.118 2117.9 -255.362C2166.63 -227.266 2207.09 -186.141 2236.51 -138.368C2370.58 86.7736 2399.89 370.519 2318.53 619.199C2225.54 904.098 1984.18 1135.14 1695.75 1216.4C1587.8 1247.41 1475.79 1260.34 1364.51 1273.04C1105.72 1302.34 841.458 1332.29 582.05 1295.03L582.077 1294.97ZM582.211 1294.09C841.484 1331.33 1105.75 1301.43 1364.43 1272.1C1475.68 1259.42 1587.61 1246.47 1695.54 1215.48C1983.51 1134.23 2224.28 903.079 2316.82 618.556C2397.77 370.359 2367.9 87.4974 2234.55 -137.188C2195.32 -201.798 2136.86 -250.081 2066.9 -278.364C2050.11 -285.227 2031.93 -292.251 2014.32 -296.889C1923.9 -319.57 1823.55 -282.788 1763.14 -213.165C1714.04 -156.571 1695.3 -79.3883 1702.43 -5.74411C1706.19 40.5281 1717.29 86.1033 1728.76 131.142C1741.85 175.404 1749.79 231.381 1714.74 268.002C1701.17 282.05 1683.02 290.361 1665.29 297.277C1647.76 304.14 1630.09 309.958 1614.67 319.207C1599.3 328.429 1587.53 342.021 1581.39 358.884C1568.17 393.521 1574.5 432.904 1565.81 468.935C1550.61 537.244 1488.74 551.614 1427.2 547.914C1280.26 537.512 1128.86 501.964 984.301 545.528C931.931 562.498 887.418 598.047 851.433 639.091C815.259 680.833 786.487 729.143 766.108 780.509C751.681 815.253 746.023 852.196 731.087 887.128C723.365 904.822 712.397 921.282 699.017 935.223C645.199 993.345 552.821 1003.67 487.339 959.297C454.732 938.708 434.621 904.661 413.062 874.233C402.202 859.246 390.698 844.77 376.084 834.073C354.713 818.443 326.396 807.907 300.734 817.773C287.514 823.028 277.003 835.172 261.584 834.636C236.781 834.314 217.635 815.87 197.765 803.886C83.9086 731.234 -41.4781 842.759 -87.278 945.571C-113.557 1005.78 -127.313 1092.94 -115.863 1157.5C-115.38 1159.75 -115.139 1162.11 -114.388 1164.28L-112.457 1170.9L-109.669 1177.2C-109.427 1177.71 -109.213 1178.27 -108.944 1178.76C-92.9628 1207.6 -58.7469 1217.98 -27.9633 1222.64C37.0629 1232.56 102.625 1220.71 167.92 1222.96C307.867 1234.68 443.604 1273.82 582.211 1294.06V1294.09Z" fill="white"/>
</g>
<path d="M-162.816 427.73C-151.312 452.823 -136.591 478.157 -112.645 491.857C-59.7392 522.151 23.4676 487.004 74.0138 464.646C180.791 417.435 267.215 328.698 314.008 221.971C351.897 135.512 348.438 52.485 353.077 -39.3625C355.356 -84.0262 368.495 -138.877 407.35 -166.249C460.819 -203.916 501.98 -159.922 552.634 -146.169C592.937 -135.231 612.538 -168.153 649.033 -167.375C691.455 -166.464 717.411 -120.379 744.763 -93.9723C903.239 58.9191 1181.15 54.2007 1316.56 -127.725C1352.95 -176.624 1385.1 -229.867 1431.79 -269.062C1454.72 -288.337 1485.71 -314.637 1441.17 -329.408C1391.16 -346.003 1339.36 -356.834 1287.15 -364.206C1181.95 -379.059 1075.31 -379.916 969.07 -379.943C625.141 -379.997 276.708 -370.989 -54.0276 -276.648C-79.5018 -269.383 -105.539 -261.26 -126.24 -244.746C-147.478 -227.803 -161.341 -203.406 -172.737 -178.742C-212.531 -92.7391 -227.011 4.28247 -216.741 98.3282C-210.198 158.139 -192.554 217.762 -191.293 278.055C-190.113 334.381 -187.539 373.844 -162.816 427.73Z" fill="url(#paint1_linear_50_2)"/>
<g filter="url(#filter1_d_50_2)">
<path d="M-162.816 427.73C-151.312 452.823 -136.591 478.157 -112.645 491.857C-59.7392 522.151 23.4676 487.004 74.0138 464.646C180.791 417.435 267.215 328.698 314.008 221.971C351.897 135.512 348.438 52.485 353.077 -39.3625C355.356 -84.0262 368.495 -138.877 407.35 -166.249C460.819 -203.916 501.98 -159.922 552.634 -146.169C592.937 -135.231 612.538 -168.153 649.033 -167.375C691.455 -166.464 717.411 -120.379 744.763 -93.9723C903.239 58.9191 1181.15 54.2007 1316.56 -127.725C1352.95 -176.624 1385.1 -229.867 1431.79 -269.062C1454.72 -288.337 1485.71 -314.637 1441.17 -329.408C1391.16 -346.003 1339.36 -356.834 1287.15 -364.206C1181.95 -379.059 1075.31 -379.916 969.07 -379.943C625.141 -379.997 276.708 -370.989 -54.0276 -276.648C-79.5018 -269.383 -105.539 -261.26 -126.24 -244.746C-147.478 -227.803 -161.341 -203.406 -172.737 -178.742C-212.531 -92.7391 -227.011 4.28247 -216.741 98.3282C-210.198 158.139 -192.554 217.762 -191.293 278.055C-190.113 334.381 -187.539 373.844 -162.816 427.73Z" fill="url(#paint2_linear_50_2)"/>
</g>
<g filter="url(#filter2_d_50_2)">
<path d="M583.015 1038.81C711.485 1049 851.084 1067.04 960.301 998.626C1044.82 945.678 1094.78 849.461 1178.68 795.548C1242.82 754.343 1324.61 741.609 1398.24 761.421C1464.13 779.115 1520.84 820.508 1583.64 847.156C1646.44 873.804 1724.98 883.24 1778.26 840.668C1821.73 805.923 1836.18 746.274 1839.8 690.752C1843.42 635.231 1839.13 578.101 1856.46 525.207C1871.02 480.704 1900.03 442.287 1932.05 408.106C1965.41 372.503 2006.89 338.67 2055.67 337.169C2098.94 335.829 2139.78 361.217 2166.54 395.264C2193.31 429.285 2208 471.133 2219.67 512.821C2254.87 638.502 2266.65 769.356 2278.26 899.353C2281.96 940.88 2285.66 982.943 2278.95 1024.09C2261.9 1128.94 2178.32 1213.53 2082.35 1259.13C1986.38 1304.73 1878.55 1317.57 1772.77 1327.76C1497.03 1354.33 1219.95 1367.03 942.952 1365.86C812.417 1365.29 681.801 1361.65 551.856 1349.53C501.015 1344.78 448.538 1338.16 404.776 1311.86C380.589 1297.3 359.888 1277.2 334.655 1264.57C294.486 1244.49 236.78 1238.35 223.346 1186.74C211.735 1142.13 251.18 1105.38 285.369 1084.5C372.491 1031.28 484.577 1031.04 583.042 1038.84L583.015 1038.81Z" fill="url(#paint3_linear_50_2)"/>
</g>
<g style="mix-blend-mode:overlay" opacity="0.5">
<path d="M2058.94 342.022C2096.18 342.022 2134.96 363.04 2162.66 398.267C2189.77 432.743 2204.27 476.174 2214.92 514.108C2250.13 639.762 2261.93 771.93 2273.32 899.755C2276.94 940.424 2280.72 982.487 2274.07 1023.26C2266.22 1071.63 2242.86 1119.11 2206.53 1160.55C2173.03 1198.76 2129.35 1231.3 2080.23 1254.65C1986.32 1299.26 1880.99 1312.37 1772.28 1322.83C1509.44 1348.13 1242.26 1360.98 978.16 1360.98C966.415 1360.98 954.697 1360.98 942.952 1360.9C786.487 1360.23 666.007 1355.21 552.285 1344.6C502.275 1339.93 449.906 1333.23 407.297 1307.6C397.134 1301.49 387.346 1294.17 377.881 1287.12C364.983 1277.49 351.656 1267.52 336.827 1260.12C326.611 1255.03 315.187 1250.76 304.14 1246.64C271.399 1234.41 237.531 1221.78 228.092 1185.48C215.892 1138.57 265.875 1102.14 287.917 1088.68C341.466 1055.97 410.702 1040.07 499.621 1040.07C524.344 1040.07 551.508 1041.28 582.613 1043.75C592.427 1044.52 602.322 1045.35 612.243 1046.19C656.998 1049.91 703.28 1053.77 748.624 1053.77C839.339 1053.77 907.422 1037.58 962.902 1002.84C1006.18 975.731 1040.85 937.046 1074.4 899.621C1106.82 863.456 1140.36 826.03 1181.34 799.704C1224 772.278 1276.13 757.185 1328.1 757.185C1351.61 757.185 1374.78 760.214 1396.96 766.166C1436.83 776.89 1474.21 796.889 1510.36 816.218C1533.39 828.55 1557.23 841.285 1581.71 851.66C1617.37 866.78 1653.68 874.769 1686.69 874.769C1724.34 874.769 1756.17 864.582 1781.32 844.475C1818.7 814.61 1840.02 762.976 1844.69 691.021C1845.65 676.061 1846.08 660.807 1846.46 646.035C1847.53 606.063 1848.63 564.75 1861.1 526.708C1873.38 489.23 1897.03 452.582 1935.59 411.43C1962.78 382.396 2004.82 343.63 2055.77 342.048C2056.82 342.022 2057.86 341.995 2058.88 341.995M2058.88 337.062C2057.78 337.062 2056.71 337.062 2055.61 337.116C2006.84 338.617 1965.35 372.45 1931.99 408.052C1899.98 442.233 1870.96 480.651 1856.4 525.153C1839.08 578.048 1843.37 635.151 1839.75 690.699C1836.13 746.22 1821.7 805.87 1778.21 840.614C1752.15 861.445 1720.02 869.836 1686.66 869.836C1653.31 869.836 1615.66 860.721 1583.59 847.102C1520.79 820.454 1464.07 779.088 1398.19 761.367C1375.32 755.228 1351.69 752.225 1328.04 752.225C1275.48 752.225 1222.87 767.104 1178.63 795.522C1094.7 849.435 1044.77 945.652 960.248 998.6C897.179 1038.12 823.947 1048.79 748.597 1048.79C693.493 1048.79 637.235 1043.08 582.988 1038.79C555.959 1036.64 527.884 1035.11 499.594 1035.11C424.861 1035.11 348.518 1045.84 285.316 1084.44C251.126 1105.33 211.682 1142.11 223.293 1186.69C236.727 1238.3 294.459 1244.44 334.601 1264.52C359.861 1277.14 380.535 1297.25 404.722 1311.81C448.484 1338.11 500.961 1344.73 551.802 1349.48C681.775 1361.62 812.39 1365.27 942.898 1365.8C954.643 1365.86 966.388 1365.88 978.133 1365.88C1243.39 1365.88 1508.67 1353.15 1772.71 1327.71C1878.5 1317.52 1986.32 1304.68 2082.29 1259.08C2178.26 1213.47 2261.85 1128.92 2278.9 1024.04C2285.6 982.89 2281.9 940.826 2278.2 899.299C2266.59 769.303 2254.82 638.448 2219.61 512.768C2207.95 471.08 2193.25 429.231 2166.49 395.211C2140.4 362.048 2100.93 337.062 2058.88 337.062Z" fill="white"/>
</g>
<g style="mix-blend-mode:overlay" opacity="0.5">
<path d="M-161.689 427.22C-151.687 448.667 -139.567 470.195 -120.529 484.726C-72.0471 520.167 -0.0757904 492.822 49.8536 472.447C158.374 429.472 248.847 345.131 299.849 240.308C343.477 154.466 342.673 63.2621 346.186 -30.4351C347.634 -73.4099 355.598 -118.797 383.432 -153.166C411.078 -186.115 448.136 -196.57 488.117 -180.029C510.642 -171.397 531.209 -158.877 554.082 -152.55C564.647 -149.708 575.373 -149.762 585.884 -153.327C596.476 -156.598 606.746 -162.737 618.518 -167.456C676.251 -191.423 709.528 -141.773 743.074 -104.401C884.71 41.8954 1145.43 50.8764 1286.99 -100.165C1335.74 -153.381 1368.42 -220.189 1423.69 -267.882C1436.75 -279.973 1470.56 -302.868 1455.57 -317.13C1447.21 -324.261 1434.87 -326.808 1424.36 -330.347C1412.94 -333.886 1401.43 -337.129 1389.85 -340.132C1273.39 -369.863 1152.48 -375.198 1032.73 -376.673C876.505 -377.799 720.093 -377.45 564.03 -369.461C372.196 -359.703 179.96 -336.727 -6.24323 -288.686C-39.2792 -279.222 -78.3754 -271.876 -108.81 -255.469C-130.155 -244.21 -146.566 -225.658 -158.579 -204.935C-216.714 -99.5486 -231.435 26.9361 -209.045 144.52C-204.888 168.192 -200.115 191.757 -196.415 215.564C-187.459 262.935 -192.661 311.781 -183.785 359.072C-179.495 382.637 -171.691 405.451 -161.716 427.22H-161.689ZM-163.942 428.239C-173.971 406.309 -181.827 383.281 -186.118 359.474C-194.967 311.969 -189.684 263.364 -198.587 215.859C-202.234 192.133 -207.007 168.568 -211.136 144.842C-229.102 50.2062 -222.962 -49.3622 -189.926 -140.084C-177.162 -173.702 -163.325 -208.312 -138.575 -235.095C-121.896 -252.976 -99.2643 -263.78 -76.3375 -271.206C142.955 -336.62 371.901 -363.59 599.882 -374.206C744.066 -380.855 888.411 -381.606 1032.73 -380.962C1152.81 -379.836 1274.17 -374.796 1391.11 -345.306C1402.77 -342.33 1414.39 -339.087 1425.89 -335.548C1441.76 -330.24 1469.87 -325.173 1464.07 -303.565C1457.26 -286.166 1440.45 -275.764 1427.44 -263.646C1372.63 -216.007 1340.08 -149.118 1291.47 -95.983C1152.27 53.3428 897.313 50.1526 750.77 -86.8143C712.853 -120.057 681.962 -186.061 621.414 -160.378C598.273 -150.298 578.644 -137.322 552.044 -145.043C507.746 -156.973 463.286 -197.884 416.816 -170.7C373.751 -146.652 358.842 -94.2404 354.874 -48.0486C353.828 -37.6735 353.747 -22.6337 353.104 -12.071C351.173 35.9171 350.288 84.2536 341.922 131.786C334.843 173.393 321.14 213.875 301.271 251.112C248.74 353.147 158.106 434.137 51.248 475.825C-0.102615 496.521 -72.7175 523.438 -122.245 486.977C-141.659 472.018 -153.859 450.088 -163.942 428.266V428.239Z" fill="white"/>
</g>
</g>
</g>
<defs>
<filter id="filter0_d_50_2" x="-141.314" y="-325.826" width="2510.25" height="1643.38" filterUnits="userSpaceOnUse" color-interpolation-filters="sRGB">
<feFlood flood-opacity="0" result="BackgroundImageFix"/>
<feColorMatrix in="SourceAlpha" type="matrix" values="0 0 0 0 0 0 0 0 0 0 0 0 0 0 0 0 0 0 127 0" result="hardAlpha"/>
<feOffset dx="-7.36" dy="-7.36"/>
<feGaussianBlur stdDeviation="6.44"/>
<feColorMatrix type="matrix" values="0 0 0 0 0 0 0 0 0 0 0 0 0 0 0 0 0 0 0.4 0"/>
<feBlend mode="normal" in2="BackgroundImageFix" result="effect1_dropShadow_50_2"/>
<feBlend mode="normal" in="SourceGraphic" in2="effect1_dropShadow_50_2" result="shape"/>
</filter>
<filter id="filter1_d_50_2" x="-225.452" y="-385.464" width="1709.52" height="909.334" filterUnits="userSpaceOnUse" color-interpolation-filters="sRGB">
<feFlood flood-opacity="0" result="BackgroundImageFix"/>
<feColorMatrix in="SourceAlpha" type="matrix" values="0 0 0 0 0 0 0 0 0 0 0 0 0 0 0 0 0 0 127 0" result="hardAlpha"/>
<feOffset dx="7.36" dy="7.36"/>
<feGaussianBlur stdDeviation="6.44"/>
<feColorMatrix type="matrix" values="0 0 0 0 0 0 0 0 0 0 0 0 0 0 0 0 0 0 0.4 0"/>
<feBlend mode="normal" in2="BackgroundImageFix" result="effect1_dropShadow_50_2"/>
<feBlend mode="normal" in="SourceGraphic" in2="effect1_dropShadow_50_2" result="shape"/>
</filter>
<filter id="filter2_d_50_2" x="201.034" y="316.878" width="2087.16" height="1054.57" filterUnits="userSpaceOnUse" color-interpolation-filters="sRGB">
<feFlood flood-opacity="0" result="BackgroundImageFix"/>
<feColorMatrix in="SourceAlpha" type="matrix" values="0 0 0 0 0 0 0 0 0 0 0 0 0 0 0 0 0 0 127 0" result="hardAlpha"/>
<feOffset dx="-7.36" dy="-7.36"/>
<feGaussianBlur stdDeviation="6.44"/>
<feColorMatrix type="matrix" values="0 0 0 0 0 0 0 0 0 0 0 0 0 0 0 0 0 0 0.4 0"/>
<feBlend mode="normal" in2="BackgroundImageFix" result="effect1_dropShadow_50_2"/>
<feBlend mode="normal" in="SourceGraphic" in2="effect1_dropShadow_50_2" result="shape"/>
</filter>
<linearGradient id="paint0_linear_50_2" x1="1077.38" y1="544.295" x2="1567.87" y2="1370.19" gradientUnits="userSpaceOnUse">
<stop stop-color="#110B28"/>
<stop offset="1" stop-color="#040111"/>
</linearGradient>
<linearGradient id="paint1_linear_50_2" x1="417.889" y1="-97.0017" x2="-92.4026" y2="-463.132" gradientUnits="userSpaceOnUse">
<stop stop-color="#110B28"/>
<stop offset="1" stop-color="#040111"/>
</linearGradient>
<linearGradient id="paint2_linear_50_2" x1="384.665" y1="-106.438" x2="0.0842831" y2="-362.892" gradientUnits="userSpaceOnUse">
<stop stop-color="#120C2B"/>
<stop offset="1" stop-color="#040111"/>
</linearGradient>
<linearGradient id="paint3_linear_50_2" x1="1206.62" y1="811.714" x2="1438.34" y2="1186.47" gradientUnits="userSpaceOnUse">
<stop stop-color="#110B28"/>
<stop offset="1" stop-color="#040111"/>
</linearGradient>
<clipPath id="clip0_50_2">
<rect width="1920" height="1082" fill="white"/>
</clipPath>
</defs>
</svg>
